<svg width="24" height="24" viewBox="0 0 24 24" fill="none" xmlns="http://www.w3.org/2000/svg">
<g clip-path="url(#clip0_255_2491)">
<g filter="url(#filter0_d_255_2491)">
<path d="M4.56424 3.60742L1.8378 11.8926L3.69466 13.7945L-0.615234 18.1519L1.90235 21.4815H19.7495L21.6576 12.4445L20.19 10.8704L23.9853 6.12409L21.595 3.60742H4.56424Z" fill="black"/>
</g>
<path d="M7.54904 9.98888V9.98517L9.35844 9.98147L1.5 18.0185L17.1049 17.9889V17.9796L17.1125 17.9926L18.6978 11.1611C17.8187 12.7518 16.4574 13.1018 15.6866 13.1648H15.1379C15.1151 13.1648 15.0999 13.1611 15.0999 13.1611V13.1648L12.6659 13.1685L20.5224 5.13147L5.64092 5.15925L5.62763 5.12592L5.61623 5.15925H5.61054L5.60674 5.18332L3.36066 11.65C4.70109 10.2796 6.29215 10.0222 7.06869 9.98332L7.54525 9.98703L7.54904 9.98888Z" fill="#FF1D1D"/>
</g>
<defs>
<filter id="filter0_d_255_2491" x="-4.61523" y="3.60742" width="32.6006" height="25.8741" filterUnits="userSpaceOnUse" color-interpolation-filters="sRGB">
<feFlood flood-opacity="0" result="BackgroundImageFix"/>
<feColorMatrix in="SourceAlpha" type="matrix" values="0 0 0 0 0 0 0 0 0 0 0 0 0 0 0 0 0 0 127 0" result="hardAlpha"/>
<feOffset dy="4"/>
<feGaussianBlur stdDeviation="2"/>
<feComposite in2="hardAlpha" operator="out"/>
<feColorMatrix type="matrix" values="0 0 0 0 0 0 0 0 0 0 0 0 0 0 0 0 0 0 0.25 0"/>
<feBlend mode="normal" in2="BackgroundImageFix" result="effect1_dropShadow_255_2491"/>
<feBlend mode="normal" in="SourceGraphic" in2="effect1_dropShadow_255_2491" result="shape"/>
</filter>
<clipPath id="clip0_255_2491">
<rect width="24" height="24" fill="white"/>
</clipPath>
</defs>
</svg>
