<svg width="26" height="27" viewBox="0 0 26 27" fill="none" xmlns="http://www.w3.org/2000/svg">
<circle cx="13" cy="13.5" r="13" fill="#F3BA2F"/>
<mask id="mask0_255_2435" style="mask-type:alpha" maskUnits="userSpaceOnUse" x="0" y="0" width="26" height="27">
<circle cx="13" cy="13.5" r="13" fill="white"/>
</mask>
<g mask="url(#mask0_255_2435)">
<path d="M14.8054 19.8858V21.9617L12.9739 23.0263L11.1964 21.9617V19.8858L12.9739 20.9504L14.8054 19.8858ZM5 12.6981L6.77758 13.7627V17.3299L9.84883 19.1397V21.2157L5 18.3945V12.6981ZM20.947 12.6981V18.3945L16.0443 21.2157V19.1397L19.1156 17.3299V13.7627L20.947 12.6981ZM16.0443 9.877L17.8758 10.9416V13.0175L14.8045 14.8273V18.4478L13.0269 19.5123L11.2493 18.4478V14.8273L8.07037 13.0175V10.9416L9.90182 9.877L12.9731 11.6868L16.0443 9.877ZM8.07124 14.5088L9.84883 15.5734V17.6493L8.07124 16.5847V14.5088ZM17.8766 14.5088V16.5847L16.099 17.6493V15.5734L17.8766 14.5088ZM6.77758 8.06721L8.60904 9.13179L6.77758 10.1964V12.2723L5 11.2077V9.13179L6.77758 8.06721ZM19.1685 8.06721L21 9.13179V11.2077L19.1685 12.2723V10.1964L17.391 9.13179L19.1685 8.06721ZM12.9731 8.06721L14.8045 9.13179L12.9731 10.1964L11.1955 9.13179L12.9731 8.06721ZM12.9731 4.5L17.8758 7.32114L16.0982 8.38573L13.0269 6.57594L9.90182 8.38573L8.12424 7.32114L12.9731 4.5Z" fill="white"/>
</g>
</svg>
