<svg width="119" height="31" viewBox="0 0 119 31" fill="none" xmlns="http://www.w3.org/2000/svg">
<g clip-path="url(#clip0_255_2586)">
<path d="M41.0061 13.2224C40.8754 11.4963 39.4585 9.08197 35.96 9.08197C32.9519 9.08197 30.5869 11.1686 30.5869 15.2654C30.5869 19.3075 32.8212 21.416 35.9273 21.416C38.8591 21.416 40.5157 19.6352 41.0061 17.0898H38.5648C38.2706 18.5318 37.3333 19.2966 35.9818 19.2966C33.911 19.2966 33.0827 17.4066 33.0827 15.2981C33.0827 11.9879 34.8047 11.2014 35.9818 11.2014C37.9981 11.2014 38.3686 12.5233 38.5648 13.2224H41.0061ZM78.4434 16.762C78.4434 13.6267 76.34 12.1955 74.0185 12.1955C71.6971 12.1955 69.5936 13.6267 69.5936 16.762C69.5936 19.8974 71.6971 21.3286 74.0185 21.3286C76.3509 21.3286 78.4434 19.8865 78.4434 16.762ZM76.1002 16.762C76.1002 17.8654 75.7732 19.4058 74.0185 19.4058C72.2638 19.4058 71.9369 17.8764 71.9369 16.762C71.9369 15.6477 72.2638 14.1183 74.0185 14.1183C75.7841 14.1183 76.1002 15.6477 76.1002 16.762ZM68.0024 10.0652H65.7246V12.414H64.5584V14.0418H65.7246V19.3075C65.7246 20.4328 66.0842 21.1866 68.046 21.1866H68.3403C68.6999 21.1866 69.0596 21.1756 69.4193 21.1538V19.4277C69.2558 19.4386 69.0923 19.4605 68.9506 19.4605C68.0242 19.4605 68.0024 19.2638 68.0024 18.7613V14.0418H69.4193V12.414H68.0024V10.0652ZM41.671 21.0992H43.9488V16.5763C43.9488 15.615 44.2758 14.5006 46.0523 14.5006C46.2593 14.5006 46.51 14.5006 46.7062 14.5334V12.2174C46.5645 12.2064 46.4119 12.1846 46.2702 12.1846C44.8861 12.1846 44.363 13.0367 43.8943 13.9107H43.8616V12.414H41.6819V21.0992H41.671Z" fill="white" fill-opacity="0.6"/>
<path d="M55.6325 12.4249H53.2239L51.4474 18.8159H51.4147L49.5619 12.4249H47.0225L50.2158 21.4597C49.9978 22.6505 49.551 22.7706 48.7227 22.7706C48.5265 22.7706 48.3848 22.7488 48.2867 22.7379V24.5623C48.6137 24.5732 49.006 24.5951 49.3112 24.5951C51.2948 24.5951 51.589 24.169 52.668 20.9571L55.6325 12.4249Z" fill="white" fill-opacity="0.6"/>
<path d="M58.2701 16.9587C58.2701 15.5713 58.6406 14.1729 60.2101 14.1729C61.6596 14.1729 62.15 15.462 62.15 16.8276C62.15 17.8546 61.7468 19.4496 60.2755 19.4496C58.815 19.4496 58.2701 18.2369 58.2701 16.9587ZM58.2701 12.425H56.0903V24.4968H58.3573V19.9958H58.39C58.6624 20.4656 59.2401 21.3286 60.8313 21.3286C63.4034 21.3286 64.4715 19.0454 64.4715 16.6638C64.4715 13.6595 62.7822 12.1956 60.8749 12.1956C59.3491 12.1956 58.706 12.9931 58.281 13.6813H58.2483V12.425H58.2701Z" fill="white" fill-opacity="0.6"/>
<path d="M2.70801 19.8101C5.12754 24.8573 9.18188 28.0364 12.9202 30.0247C12.9311 30.0356 13.2471 30.1995 13.2471 30.1995C13.2471 30.1995 13.5632 30.0356 13.5741 30.0247C19.9063 26.6817 27.1322 19.8866 25.8025 6.48193L23.0124 5.26929C22.4893 9.42068 19.939 12.9166 16.386 15.4511C15.9064 15.7898 15.4051 16.1175 14.8819 16.4234L15.3833 20.2034C15.4487 20.7059 14.9691 21.132 14.4678 21.132H11.9284C11.427 21.132 10.9366 20.7059 11.0129 20.2034L11.2744 18.1714C8.83312 19.1109 6.20652 19.6681 3.60171 19.7992C3.29654 19.7992 3.00227 19.8101 2.70801 19.8101Z" fill="white" fill-opacity="0.6"/>
<path d="M0.691721 6.48192C0.212175 11.3871 0.866102 15.4074 2.21755 18.7067C2.6644 18.7176 3.10035 18.7067 3.5472 18.6848C6.2392 18.5537 8.953 17.931 11.4488 16.9041L11.6559 15.3091C10.8712 14.7847 10.348 13.8889 10.348 12.8729C10.348 11.2669 11.6559 9.95598 13.258 9.95598C14.8601 9.95598 16.168 11.2669 16.168 12.8729C16.168 13.5611 15.9282 14.2057 15.5141 14.7082C15.5904 14.6536 15.6666 14.599 15.7429 14.5444C19.0126 12.2174 21.3667 9.02738 21.9007 5.29112C18.8382 6.09955 16.0481 5.03986 14.3261 2.75659H13.3125H13.2144H12.2008C10.348 5.21465 7.26369 6.2525 3.93956 5.08356L0.691721 6.48192Z" fill="white" fill-opacity="0.6"/>
<path d="M24.3095 1.30359C24.4948 1.30359 24.6692 1.38006 24.7891 1.50024C24.9089 1.62041 24.9852 1.7952 24.9852 1.98092C24.9852 2.16664 24.9089 2.34144 24.7891 2.46161C24.6692 2.58178 24.4948 2.65825 24.3095 2.65825C24.1242 2.65825 23.9499 2.58178 23.83 2.46161C23.7101 2.34144 23.6338 2.16664 23.6338 1.98092C23.6338 1.7952 23.7101 1.62041 23.83 1.50024C23.9499 1.39099 24.1242 1.30359 24.3095 1.30359ZM24.0588 2.41791V1.53301H24.3749C24.4403 1.53301 24.4839 1.54393 24.5275 1.55486C24.5602 1.56578 24.582 1.59856 24.6038 1.63133C24.6256 1.67503 24.6365 1.71873 24.6365 1.76243C24.6365 1.82798 24.6147 1.8826 24.582 1.9263C24.5493 1.97 24.4948 1.99185 24.4294 2.00277C24.4621 2.01369 24.4839 2.03555 24.4948 2.04647C24.5275 2.07925 24.5493 2.12294 24.5711 2.15572L24.7019 2.40699C24.7128 2.39606 24.7237 2.39606 24.7346 2.38514C24.8436 2.27589 24.9089 2.13387 24.9089 1.97C24.9089 1.80613 24.8436 1.66411 24.7346 1.55486C24.6256 1.44561 24.4839 1.38006 24.3204 1.38006C24.1569 1.38006 24.0152 1.44561 23.9063 1.55486C23.7973 1.66411 23.7319 1.80613 23.7319 1.97C23.7319 2.13387 23.7973 2.27589 23.9063 2.38514C24.0152 2.49438 24.1569 2.55993 24.3204 2.55993C24.4294 2.55993 24.5275 2.52716 24.6147 2.48346L24.4839 2.22126C24.4512 2.14479 24.4185 2.10109 24.3967 2.07924C24.3749 2.05739 24.364 2.03555 24.3422 2.02462C24.3204 2.0137 24.2986 2.0137 24.2659 2.0137H24.1569V2.40699H24.0588V2.41791ZM24.146 1.9263H24.3531C24.3967 1.9263 24.4294 1.91537 24.4512 1.91537C24.473 1.90445 24.4948 1.8826 24.5057 1.86075C24.5166 1.8389 24.5275 1.80613 24.5275 1.78428C24.5275 1.74058 24.5166 1.7078 24.4839 1.68595C24.4621 1.65318 24.4185 1.64226 24.3749 1.64226H24.146V1.9263Z" fill="white" fill-opacity="0.6"/>
<path d="M79.501 21.0992H84.558C88.4162 21.0992 89.408 17.4831 89.408 14.9595C89.408 12.7418 88.5906 9.37695 84.6561 9.37695H79.501V21.0992ZM113.734 12.4249H111.325L109.549 18.8159H109.516L107.663 12.4249H105.124L108.317 21.4597C108.11 22.6505 107.653 22.7707 106.824 22.7707C106.628 22.7707 106.486 22.7488 106.377 22.7379V24.5623C106.704 24.5732 107.097 24.5951 107.402 24.5951C109.385 24.5951 109.68 24.169 110.759 20.9571L113.734 12.4249ZM104.361 9.38787H102.083V21.0992H104.361V9.38787ZM98.4321 12.4249V21.0992H100.71V12.4249H98.4321ZM100.71 9.2677H98.4321V11.3871H100.71V9.2677ZM97.2115 14.6973C97.2115 12.556 94.9772 12.1846 93.7566 12.1846C91.9801 12.1846 90.1491 12.556 89.8875 15.2217H92.0891C92.1545 14.7191 92.3506 14.009 93.4841 14.009C94.0726 14.009 94.9772 14.0637 94.9772 15.0141C94.9772 15.5057 94.5413 15.6477 94.1816 15.7024L92.1327 16.0083C90.6831 16.2158 89.615 17.0898 89.615 18.7831C89.615 20.5748 90.9447 21.3177 92.2525 21.3177C93.8002 21.3177 94.5304 20.5966 95.0535 20.0613C95.108 20.5529 95.1407 20.684 95.2715 21.0882H97.7237V20.7605C97.4513 20.6622 97.2224 20.4328 97.2224 19.4058V14.6973H97.2115ZM94.9772 17.9856C94.9772 19.0453 93.9528 19.7008 92.9392 19.7008C92.5032 19.7008 91.882 19.4605 91.882 18.652C91.882 17.7016 92.5795 17.494 93.4296 17.352C94.3669 17.199 94.7484 17.057 94.9772 16.8822V17.9856ZM81.8878 11.4089H84.231C85.2773 11.4089 86.9121 11.693 86.9121 15.1452C86.9121 17.068 86.2473 19.0781 84.2637 19.0781H81.8878V11.4089Z" fill="white" fill-opacity="0.6"/>
<path d="M115.151 8.30633V9.25678C115.151 9.27863 115.14 9.30048 115.129 9.32232C115.118 9.34417 115.096 9.34418 115.074 9.34418H114.922C114.9 9.34418 114.878 9.33325 114.856 9.32232C114.834 9.3114 114.834 9.28955 114.834 9.25678V6.82057C114.834 6.79872 114.845 6.77687 114.856 6.75502C114.867 6.73317 114.889 6.73317 114.922 6.73317H115.794C116.033 6.73317 116.24 6.79872 116.393 6.92981C116.524 7.06091 116.611 7.24663 116.611 7.48697V7.5416C116.611 7.71639 116.567 7.86934 116.458 8.00044C116.371 8.10968 116.24 8.19708 116.077 8.2517L116.578 9.21308C116.589 9.224 116.589 9.23493 116.6 9.24585C116.6 9.25678 116.6 9.2677 116.6 9.27863C116.6 9.30048 116.589 9.3114 116.578 9.32232C116.567 9.33325 116.546 9.34418 116.535 9.34418H116.328C116.306 9.34418 116.284 9.33325 116.273 9.32232C116.262 9.3114 116.251 9.30048 116.24 9.27863L115.739 8.30633H115.151ZM115.63 5.85919C116.24 5.85919 116.796 6.11046 117.2 6.51467C117.603 6.91889 117.853 7.47605 117.853 8.08783C117.853 8.69962 117.603 9.25678 117.2 9.66099C116.796 10.0652 116.24 10.3165 115.63 10.3165C115.02 10.3165 114.464 10.0652 114.061 9.66099C113.657 9.25678 113.407 8.69962 113.407 8.08783C113.407 7.47605 113.657 6.91889 114.061 6.51467C114.453 6.11046 115.02 5.85919 115.63 5.85919ZM116.982 6.72224C116.633 6.37265 116.153 6.15416 115.619 6.15416C115.085 6.15416 114.606 6.37265 114.257 6.72224C113.908 7.07183 113.69 7.55252 113.69 8.08783C113.69 8.62314 113.908 9.10383 114.257 9.45342C114.606 9.80301 115.085 10.0215 115.619 10.0215C116.153 10.0215 116.633 9.80301 116.982 9.45342C117.33 9.10383 117.548 8.62314 117.548 8.08783C117.548 7.55252 117.33 7.07183 116.982 6.72224ZM115.151 7.04999V8.00044H115.772C115.913 8.00044 116.044 7.95674 116.142 7.88026C116.219 7.80379 116.273 7.70547 116.273 7.56345V7.4979C116.273 7.34495 116.219 7.23571 116.142 7.15923C116.044 7.07183 115.913 7.03906 115.772 7.03906H115.151V7.04999Z" fill="white" fill-opacity="0.6"/>
</g>
<defs>
<clipPath id="clip0_255_2586">
<rect width="117.955" height="30" fill="white" transform="translate(0.476074 0.672119)"/>
</clipPath>
</defs>
</svg>
