<svg width="173" height="21" viewBox="0 0 173 21" fill="none" xmlns="http://www.w3.org/2000/svg">
<g clip-path="url(#clip0_255_2555)">
<path d="M19.5161 1.12476C19.2787 1.12476 19.0119 1.13212 18.712 1.145C18.4139 1.15971 18.1895 1.17259 18.0441 1.18547C17.413 1.24067 16.9107 1.26827 16.5391 1.26827H13.9006V2.71813L15.1352 3.00884V15.0604L13.8325 15.2885V16.6556H16.574C16.7654 16.6556 17.1885 16.6832 17.8436 16.7384C18.5427 16.7936 19.0671 16.8212 19.4167 16.8212C20.7028 16.8212 21.8196 16.4587 22.7672 15.7338C23.7148 15.0088 24.4415 14.0116 24.9494 12.7421C25.4572 11.4725 25.7111 10.03 25.7111 8.41454C25.7111 6.06864 25.1922 4.26551 24.1545 3.01068C23.1168 1.75401 21.5713 1.1266 19.5197 1.1266L19.5161 1.12476ZM21.7056 13.7246C21.1481 14.7678 20.3606 15.2959 19.3449 15.3087C18.8371 15.3363 18.3863 15.2738 17.9908 15.1229V2.71997C18.0588 2.70709 18.1987 2.67765 18.4139 2.63718C18.6274 2.5967 18.8702 2.57462 19.1407 2.57462C20.3127 2.57462 21.1738 3.13764 21.7203 4.26183C22.2667 5.38787 22.5409 6.9426 22.5409 8.93156C22.5409 11.0843 22.2612 12.6832 21.7037 13.7246H21.7056Z" fill="white" fill-opacity="0.6"/>
<path d="M26.8408 2.71994L28.2281 3.00881V15.0603L26.8574 15.2885V16.6555H32.5409V15.3087L31.1205 15.0806V3.00881L32.5409 2.71994V1.27008H26.8408V2.71994Z" fill="white" fill-opacity="0.6"/>
<path d="M40.2559 10.2158L41.829 10.4237V14.7513C41.6597 14.9592 41.4095 15.1284 41.0765 15.2591C40.7434 15.3897 40.3736 15.4559 39.9688 15.4559C38.9771 15.4559 38.2467 14.8598 37.7775 13.6639C37.3101 12.4697 37.0746 10.8506 37.0746 8.80829C37.0746 6.76597 37.3506 5.1818 37.9044 4.09808C38.4564 3.01436 39.2347 2.47343 40.2393 2.47343C40.6901 2.47343 41.0489 2.52494 41.3138 2.62798C41.5788 2.73101 41.7628 2.85245 41.864 2.99044L42.3368 5.72458H44.3663L44.5686 1.72825C44.0387 1.57738 43.3893 1.43203 42.6238 1.29403C41.8566 1.15604 41.0838 1.08612 40.3055 1.08612C38.9514 1.08612 37.7812 1.39339 36.795 2.00792C35.8088 2.62246 35.0489 3.52954 34.519 4.73101C33.9891 5.93249 33.7241 7.38787 33.7241 9.10084C33.7241 10.5912 33.956 11.9233 34.4178 13.0972C34.8796 14.271 35.5622 15.1965 36.4656 15.8718C37.3672 16.5489 38.4509 16.8856 39.7131 16.8856C40.3442 16.8856 40.9366 16.8193 41.4886 16.6887C42.0406 16.5581 42.6606 16.3814 43.3488 16.1606C44.0479 15.9527 44.4932 15.8442 44.6846 15.8295V10.3833L45.5309 10.2177V8.70526H40.2522V10.2177L40.2559 10.2158Z" fill="white" fill-opacity="0.6"/>
<path d="M46.5317 2.71994L47.919 3.00881V15.0603L46.5483 15.2885V16.6555H52.2337V15.3087L50.8114 15.0806V3.00881L52.2337 2.71994V1.27008H46.5317V2.71994Z" fill="white" fill-opacity="0.6"/>
<path d="M53.452 1.27008L53.1797 7.52215H54.7712L55.4814 2.90578L57.5955 2.80274V15.0603L55.4465 15.2885V16.6555H62.8743V15.2885L60.5228 15.0603V2.80274L62.5688 2.90578L63.314 7.52215H64.8191L64.6001 1.27008H53.452Z" fill="white" fill-opacity="0.6"/>
<path d="M72.6516 1.20752H69.6065L65.8347 15.0603L64.854 15.2885L64.8706 16.6555H69.371V15.2885L68.0518 15.1026L68.6277 12.5967H72.67L73.2459 15.0824L72.0444 15.2903V16.6574H77.3729V15.2903L76.4419 15.0824L72.6516 1.20752ZM68.9644 11.0014L70.3351 4.83033L70.6056 3.36023L70.8595 4.8101L72.3149 11.0014H68.9662H68.9644Z" fill="white" fill-opacity="0.6"/>
<path d="M85.1023 14.8322L81.9229 15.0401V3.00881L83.5292 2.71994V1.27008H77.761V2.71994L79.0287 3.00881V15.0806L77.7261 15.2885V16.6555H87.3011L87.7923 10.9812L86.2026 10.7328L85.1023 14.8322Z" fill="white" fill-opacity="0.6"/>
<path d="M92.6643 2.71994L94.1031 3.01065V12.7015C94.1031 13.7503 94.0755 14.5819 94.0185 15.1965C93.9614 15.811 93.8768 16.3391 93.7645 16.7807C93.5732 17.4706 93.2843 18.0465 92.9016 18.5102C92.5189 18.972 92.1123 19.294 91.6836 19.4725L92.3257 20.6739C93.4978 20.4384 94.4637 19.9417 95.2181 19.1836C95.9743 18.4237 96.4803 17.4854 96.7415 16.3667C96.8427 15.9104 96.9108 15.248 96.9439 14.3796C96.9771 13.5111 96.9955 12.3704 96.9955 10.9628V2.98857L98.3312 2.71994V1.27008H92.6643V2.71994Z" fill="white" fill-opacity="0.6"/>
<path d="M104.946 1.0824C103.785 1.0824 102.769 1.40622 101.901 2.05572C101.032 2.70521 100.359 3.62702 99.8786 4.81929C99.3984 6.0134 99.1592 7.40439 99.1592 8.99224C99.1592 11.4504 99.6155 13.3786 100.53 14.7807C101.444 16.1827 102.848 16.8818 104.742 16.8818C105.914 16.8818 106.944 16.5396 107.829 15.857C108.714 15.1744 109.398 14.214 109.884 12.9794C110.37 11.7448 110.611 10.3188 110.611 8.70337C110.611 6.25995 110.151 4.37955 109.233 3.06032C108.313 1.74293 106.883 1.0824 104.944 1.0824H104.946ZM106.747 13.7448C106.302 14.9113 105.678 15.4945 104.878 15.4945C104.077 15.4945 103.439 14.9591 102.999 13.8901C102.559 12.8211 102.339 11.1818 102.339 8.972C102.339 6.76225 102.561 5.17623 103.006 4.08516C103.452 2.99408 104.081 2.44946 104.892 2.44946C105.704 2.44946 106.342 2.94256 106.771 3.9306C107.2 4.91864 107.413 6.5157 107.413 8.72361C107.413 10.9315 107.19 12.5783 106.745 13.7448H106.747Z" fill="white" fill-opacity="0.6"/>
<path d="M119.139 2.71994L120.595 3.01065V10.7347C120.595 12.1845 120.388 13.3198 119.976 14.1404C119.564 14.961 118.918 15.3731 118.039 15.3731C116.269 15.3731 115.382 13.8129 115.382 10.6942V3.02905L116.802 2.7181V1.27008H111.338V2.71994L112.387 3.01065V10.4035C112.387 12.6132 112.821 14.2342 113.689 15.2701C114.558 16.306 115.866 16.823 117.614 16.823C119.091 16.823 120.262 16.3152 121.124 15.3014C121.987 14.2857 122.418 12.7034 122.418 10.5488V3.00881L123.535 2.7181V1.27008H119.135V2.71994H119.139Z" fill="white" fill-opacity="0.6"/>
<path d="M135.227 14.6151C135.091 14.3318 134.911 13.9012 134.686 13.3216C134.304 12.3281 133.934 11.5093 133.579 10.8672C133.224 10.225 132.786 9.78714 132.267 9.55163C133.056 9.24804 133.654 8.6887 134.061 7.87361C134.467 7.05853 134.67 6.18272 134.67 5.24436C134.67 4.306 134.51 3.47435 134.188 2.87269C133.866 2.27288 133.351 1.8313 132.64 1.54795C131.93 1.2646 130.972 1.12292 129.765 1.12292C129.336 1.12292 128.817 1.15052 128.208 1.20572C128.072 1.22044 127.879 1.23332 127.625 1.24804C127.371 1.26276 127.137 1.26828 126.922 1.26828H124.317V2.6979L125.551 2.98861V15.0824L124.249 15.2904V16.6574H129.949V15.2904L128.444 15.0824V10.1128H129.967C130.271 10.2508 130.55 10.6335 130.804 11.2628C131.058 11.8902 131.36 12.777 131.709 13.9233C131.991 14.8617 132.223 15.5516 132.403 15.9932C132.583 16.4348 132.758 16.6556 132.927 16.6556H136.142V15.2885L135.651 15.1027C135.503 15.0604 135.364 14.8985 135.227 14.6169V14.6151ZM131.117 7.92697C130.789 8.48631 130.333 8.76598 129.746 8.76598H129.17C128.832 8.76598 128.589 8.74574 128.444 8.70342V2.61511C128.747 2.54703 129.104 2.51207 129.509 2.51207C130.265 2.51207 130.802 2.7439 131.124 3.20572C131.446 3.66754 131.606 4.39615 131.606 5.38971C131.606 6.52127 131.443 7.36763 131.115 7.92697H131.117Z" fill="white" fill-opacity="0.6"/>
<path d="M149.388 1.27008H145.056V2.71994L146.493 2.98857V12.5764L145.548 10.0907L140.878 1.27008H136.631V2.71994L137.951 2.98857V15.0603L136.631 15.2885V16.6555H141.334V15.2885L139.542 15.0603V4.45867L140.657 7.19096L145.614 16.6555H148.101V2.98857L149.388 2.71994V1.27008Z" fill="white" fill-opacity="0.6"/>
<path d="M157.135 1.20752H154.09L150.319 15.0603L149.338 15.2885L149.354 16.6555H153.855V15.2885L152.536 15.1026L153.112 12.5967H157.154L157.73 15.0824L156.528 15.2903V16.6574H161.857V15.2903L160.926 15.0824L157.135 1.20936V1.20752ZM153.446 11.0014L154.817 4.83033L155.088 3.36023L155.342 4.8101L156.797 11.0014H153.448H153.446Z" fill="white" fill-opacity="0.6"/>
<path d="M170.685 10.7328L169.586 14.8322L166.405 15.0401V3.00881L168.013 2.71994V1.27008H162.243V2.71994L163.513 3.00881V15.0806L162.21 15.2885V16.6555H171.785L172.276 10.9812L170.685 10.7328Z" fill="white" fill-opacity="0.6"/>
<path d="M10.8612 0.672119H0.732422V17.9104H10.8612V0.672119Z" fill="white" fill-opacity="0.6"/>
</g>
<defs>
<clipPath id="clip0_255_2555">
<rect width="171.544" height="20" fill="white" transform="translate(0.732422 0.672119)"/>
</clipPath>
</defs>
</svg>
