<svg width="1036" height="387" viewBox="0 0 1036 387" fill="none" xmlns="http://www.w3.org/2000/svg">
<g clip-path="url(#clip0_255_2741)">
<rect x="59.5" y="0.155762" width="193" height="54" rx="27" fill="#EE312F"/>
<path d="M128.988 19.187V36.1558H124.535V19.187H128.988ZM135.762 28.9604V36.1558H131.332V23.4292H135.527V25.8198H135.668C136.219 24.2378 137.684 23.2651 139.559 23.2651C142.254 23.2651 144.012 25.2456 143.988 28.0464V36.1558H139.559V28.9604C139.582 27.6479 138.879 26.8628 137.684 26.8745C136.512 26.8628 135.762 27.6597 135.762 28.9604ZM146.309 36.1558V23.4292H150.738V36.1558H146.309ZM146.309 20.0073C146.297 18.8823 147.293 17.9683 148.512 17.9683C149.719 17.9683 150.715 18.8823 150.715 20.0073C150.715 21.144 149.719 22.0581 148.512 22.0464C147.293 22.0581 146.297 21.144 146.309 20.0073ZM160.582 23.4292V26.6401H158.355V32.0776C158.355 32.6753 158.648 32.9097 159.27 32.9448C159.586 32.9565 160.242 32.9214 160.746 32.8745V36.1792C160.336 36.2612 159.633 36.3315 158.637 36.3433C155.555 36.3315 153.891 35.1714 153.926 32.5229V26.6401H152.285V23.4292H153.926V20.3823H158.355V23.4292H160.582ZM162.48 36.1558V23.4292H166.91V36.1558H162.48ZM162.48 20.0073C162.469 18.8823 163.465 17.9683 164.684 17.9683C165.891 17.9683 166.887 18.8823 166.887 20.0073C166.887 21.144 165.891 22.0581 164.684 22.0464C163.465 22.0581 162.469 21.144 162.48 20.0073ZM168.668 32.6401C168.668 29.8394 170.766 28.7378 173.355 28.5854C174.316 28.5386 175.816 28.4917 176.332 28.4683V27.437C176.32 26.7339 175.746 26.3354 174.879 26.3354C173.977 26.3354 173.367 26.7222 173.262 27.5308H169.16C169.324 25.2222 171.199 23.2651 174.949 23.2651C178.477 23.2651 180.762 25.0112 180.762 27.4604V36.1558H176.613V34.3745H176.52C175.758 35.7573 174.516 36.355 172.816 36.3667C170.391 36.355 168.668 35.1714 168.668 32.6401ZM172.84 32.3823C172.852 33.144 173.426 33.5425 174.246 33.5308C175.359 33.5425 176.367 32.8276 176.355 31.6323V30.9526C175.91 30.9644 174.738 31.0112 174.152 31.0698C173.355 31.1753 172.852 31.6909 172.84 32.3823ZM187.441 19.187V36.1558H183.012V19.187H187.441Z" fill="white"/>
<rect x="0.140625" y="74.1558" width="311.719" height="311.719" rx="155.859" fill="#EE312F"/>
<path d="M69.3911 178.156V160.48H82.0132V164.24H74.0298V167.438H81.354V171.198H74.0298V174.396H81.9888V178.156H69.3911ZM89.1177 170.661V178.156H84.5034V164.899H88.8735V167.389H89.02C89.5938 165.741 91.1196 164.728 93.0728 164.728C95.8804 164.728 97.7114 166.791 97.687 169.708V178.156H93.0728V170.661C93.0972 169.293 92.3647 168.476 91.1196 168.488C89.8989 168.476 89.1177 169.306 89.1177 170.661ZM107.892 164.899V168.244H105.573V173.908C105.573 174.53 105.878 174.774 106.525 174.811C106.854 174.823 107.538 174.787 108.063 174.738V178.18C107.636 178.266 106.903 178.339 105.866 178.351C102.655 178.339 100.922 177.13 100.958 174.372V168.244H99.2495V164.899H100.958V161.725H105.573V164.899H107.892ZM116.022 178.4C111.798 178.4 109.223 175.849 109.21 171.564C109.223 167.462 111.835 164.728 115.924 164.728C119.855 164.728 122.455 167.255 122.467 171.515V172.614H113.776V172.785C113.776 174.164 114.643 175.128 116.12 175.128C117.133 175.128 117.926 174.701 118.219 173.932H122.443C121.991 176.667 119.647 178.4 116.022 178.4ZM113.776 170.026H118.195C118.183 168.83 117.255 167.987 116.022 168C114.789 167.987 113.812 168.83 113.776 170.026ZM124.445 178.156V164.899H128.913V167.389H129.059C129.535 165.558 130.658 164.716 132.086 164.728C132.489 164.716 132.917 164.789 133.283 164.875V168.854C132.831 168.695 132.05 168.61 131.549 168.61C130.109 168.61 129.047 169.635 129.059 171.173V178.156H124.445ZM143.244 164.899V168.244H140.924V173.908C140.924 174.53 141.229 174.774 141.876 174.811C142.206 174.823 142.89 174.787 143.415 174.738V178.18C142.987 178.266 142.255 178.339 141.217 178.351C138.007 178.339 136.273 177.13 136.31 174.372V168.244H134.601V164.899H136.31V161.725H140.924V164.899H143.244ZM144.586 174.494C144.586 171.576 146.771 170.429 149.469 170.27C150.47 170.221 152.033 170.172 152.57 170.148V169.074C152.558 168.341 151.959 167.926 151.056 167.926C150.116 167.926 149.481 168.329 149.372 169.171H145.099C145.27 166.767 147.223 164.728 151.129 164.728C154.804 164.728 157.184 166.547 157.184 169.098V178.156H152.863V176.3H152.765C151.972 177.741 150.678 178.363 148.908 178.375C146.381 178.363 144.586 177.13 144.586 174.494ZM148.932 174.225C148.944 175.019 149.542 175.434 150.397 175.421C151.557 175.434 152.606 174.689 152.594 173.444V172.736C152.13 172.748 150.91 172.797 150.299 172.858C149.469 172.968 148.944 173.505 148.932 174.225ZM159.528 178.156V164.899H164.142V178.156H159.528ZM159.528 161.334C159.516 160.163 160.553 159.21 161.823 159.21C163.08 159.21 164.118 160.163 164.118 161.334C164.118 162.519 163.08 163.471 161.823 163.458C160.553 163.471 159.516 162.519 159.528 161.334ZM171.222 170.661V178.156H166.608V164.899H170.978V167.389H171.125C171.698 165.741 173.224 164.728 175.177 164.728C177.985 164.728 179.816 166.791 179.792 169.708V178.156H175.177V170.661C175.202 169.293 174.469 168.476 173.224 168.488C172.003 168.476 171.222 169.306 171.222 170.661ZM182.208 178.156V164.899H186.579V167.389H186.725C187.274 165.753 188.678 164.728 190.509 164.728C192.365 164.728 193.83 165.778 194.123 167.389H194.269C194.733 165.778 196.308 164.728 198.273 164.728C200.8 164.728 202.533 166.474 202.545 169.22V178.156H197.931V170.368C197.919 169.159 197.248 168.451 196.247 168.439C195.209 168.451 194.574 169.184 194.586 170.368V178.156H190.167V170.343C190.155 169.171 189.496 168.451 188.483 168.439C187.458 168.451 186.811 169.196 186.823 170.392V178.156H182.208ZM211.261 178.4C207.038 178.4 204.462 175.849 204.45 171.564C204.462 167.462 207.074 164.728 211.164 164.728C215.094 164.728 217.694 167.255 217.707 171.515V172.614H209.015V172.785C209.015 174.164 209.882 175.128 211.359 175.128C212.372 175.128 213.166 174.701 213.458 173.932H217.682C217.23 176.667 214.887 178.4 211.261 178.4ZM209.015 170.026H213.434C213.422 168.83 212.494 167.987 211.261 168C210.028 167.987 209.052 168.83 209.015 170.026ZM224.298 170.661V178.156H219.684V164.899H224.054V167.389H224.201C224.774 165.741 226.3 164.728 228.253 164.728C231.061 164.728 232.892 166.791 232.868 169.708V178.156H228.253V170.661C228.278 169.293 227.545 168.476 226.3 168.488C225.08 168.476 224.298 169.306 224.298 170.661ZM243.073 164.899V168.244H240.753V173.908C240.753 174.53 241.059 174.774 241.706 174.811C242.035 174.823 242.719 174.787 243.244 174.738V178.18C242.816 178.266 242.084 178.339 241.046 178.351C237.836 178.339 236.103 177.13 236.139 174.372V168.244H234.43V164.899H236.139V161.725H240.753V164.899H243.073Z" fill="white"/>
<path d="M87.4736 211.255C86.2607 211.264 85.2852 210.289 85.2939 209.076C85.2852 207.88 86.2607 206.905 87.4736 206.914C88.6689 206.905 89.6445 207.88 89.6357 209.076C89.6445 210.289 88.6689 211.264 87.4736 211.255ZM104.867 214.156L101.281 201.429H103.742L106.045 210.798H106.168L108.611 201.429H110.861L113.322 210.816H113.428L115.73 201.429H118.191L114.605 214.156H112.338L109.789 205.208H109.701L107.135 214.156H104.867ZM122.797 214.349C119.923 214.349 118.156 212.433 118.156 209.445C118.156 206.492 119.949 204.488 122.674 204.488C125.012 204.488 127.033 205.956 127.033 209.304V210.007H120.371C120.406 211.633 121.364 212.6 122.814 212.591C123.799 212.6 124.458 212.178 124.748 211.607H126.945C126.541 213.259 125.012 214.349 122.797 214.349ZM120.38 208.478H124.889C124.88 207.177 124.001 206.228 122.709 206.228C121.364 206.228 120.459 207.265 120.38 208.478ZM128.879 214.156V201.429H131.129V206.175H131.217C131.56 205.499 132.254 204.488 133.941 204.488C136.147 204.488 137.888 206.21 137.896 209.392C137.888 212.53 136.2 214.323 133.959 214.332C132.307 214.323 131.568 213.347 131.217 212.644H131.076V214.156H128.879ZM131.076 209.375C131.076 211.238 131.894 212.486 133.326 212.486C134.82 212.486 135.603 211.176 135.611 209.375C135.603 207.599 134.838 206.325 133.326 206.316C131.876 206.325 131.076 207.52 131.076 209.375ZM144.418 204.611V206.333H142.537V211.291C142.537 212.205 142.994 212.389 143.557 212.398C143.82 212.407 144.26 212.38 144.541 212.363V214.191C144.277 214.235 143.847 214.288 143.275 214.279C141.588 214.288 140.287 213.453 140.305 211.66V206.333H138.934V204.611H140.305V202.326H142.537V204.611H144.418ZM150.201 214.349C147.415 214.349 145.631 212.372 145.631 209.427C145.631 206.457 147.415 204.488 150.201 204.488C152.996 204.488 154.78 206.457 154.771 209.427C154.78 212.372 152.996 214.349 150.201 214.349ZM147.898 209.41C147.898 211.159 148.663 212.556 150.219 212.556C151.748 212.556 152.513 211.159 152.504 209.41C152.513 207.661 151.748 206.254 150.219 206.263C148.663 206.254 147.898 207.661 147.898 209.41ZM160.678 214.349C157.892 214.349 156.107 212.372 156.107 209.427C156.107 206.457 157.892 204.488 160.678 204.488C163.473 204.488 165.257 206.457 165.248 209.427C165.257 212.372 163.473 214.349 160.678 214.349ZM158.375 209.41C158.375 211.159 159.14 212.556 160.695 212.556C162.225 212.556 162.989 211.159 162.98 209.41C162.989 207.661 162.225 206.254 160.695 206.263C159.14 206.254 158.375 207.661 158.375 209.41ZM169.238 208.566V214.156H166.988V204.611H169.133V206.228H169.256C169.687 205.165 170.662 204.488 172.086 204.488C174.063 204.488 175.364 205.789 175.355 208.074V214.156H173.123V208.425C173.123 207.142 172.429 206.377 171.26 206.386C170.073 206.377 169.238 207.177 169.238 208.566ZM182.914 207.335C182.773 206.615 182.176 206.149 181.227 206.158C180.269 206.149 179.565 206.632 179.574 207.283C179.565 207.775 179.961 208.144 180.928 208.373L182.545 208.707C184.347 209.102 185.226 209.937 185.234 211.308C185.226 213.101 183.652 214.349 181.156 214.349C178.73 214.349 177.298 213.259 177.061 211.431H179.346C179.478 212.249 180.11 212.653 181.156 212.644C182.237 212.653 182.94 212.213 182.949 211.501C182.94 210.948 182.51 210.596 181.561 210.394L180.031 210.06C178.256 209.7 177.333 208.768 177.342 207.406C177.333 205.639 178.862 204.488 181.191 204.488C183.468 204.488 184.874 205.604 185.041 207.335H182.914ZM87.4736 238.255C86.2607 238.264 85.2852 237.289 85.2939 236.076C85.2852 234.88 86.2607 233.905 87.4736 233.914C88.6689 233.905 89.6445 234.88 89.6357 236.076C89.6445 237.289 88.6689 238.264 87.4736 238.255ZM104.867 241.156L101.281 228.429H103.742L106.045 237.798H106.168L108.611 228.429H110.861L113.322 237.816H113.428L115.73 228.429H118.191L114.605 241.156H112.338L109.789 232.208H109.701L107.135 241.156H104.867ZM122.797 241.349C119.923 241.349 118.156 239.433 118.156 236.445C118.156 233.492 119.949 231.488 122.674 231.488C125.012 231.488 127.033 232.956 127.033 236.304V237.007H120.371C120.406 238.633 121.364 239.6 122.814 239.591C123.799 239.6 124.458 239.178 124.748 238.607H126.945C126.541 240.259 125.012 241.349 122.797 241.349ZM120.38 235.478H124.889C124.88 234.177 124.001 233.228 122.709 233.228C121.364 233.228 120.459 234.265 120.38 235.478ZM128.879 241.156V228.429H131.129V233.175H131.217C131.56 232.499 132.254 231.488 133.941 231.488C136.147 231.488 137.888 233.21 137.896 236.392C137.888 239.53 136.2 241.323 133.959 241.332C132.307 241.323 131.568 240.347 131.217 239.644H131.076V241.156H128.879ZM131.076 236.375C131.076 238.238 131.894 239.486 133.326 239.486C134.82 239.486 135.603 238.176 135.611 236.375C135.603 234.599 134.838 233.325 133.326 233.316C131.876 233.325 131.076 234.52 131.076 236.375ZM141.904 235.566V241.156H139.654V231.611H141.799V233.228H141.922C142.353 232.165 143.328 231.488 144.752 231.488C146.729 231.488 148.03 232.789 148.021 235.074V241.156H145.789V235.425C145.789 234.142 145.095 233.377 143.926 233.386C142.739 233.377 141.904 234.177 141.904 235.566ZM154.332 241.349C151.546 241.349 149.762 239.372 149.762 236.427C149.762 233.457 151.546 231.488 154.332 231.488C157.127 231.488 158.911 233.457 158.902 236.427C158.911 239.372 157.127 241.349 154.332 241.349ZM152.029 236.41C152.029 238.159 152.794 239.556 154.35 239.556C155.879 239.556 156.644 238.159 156.635 236.41C156.644 234.661 155.879 233.254 154.35 233.263C152.794 233.254 152.029 234.661 152.029 236.41ZM168.834 231.611L165.424 241.156H162.963L159.553 231.611H161.943L164.141 238.712H164.246L166.461 231.611H168.834ZM174.143 241.349C171.269 241.349 169.502 239.433 169.502 236.445C169.502 233.492 171.295 231.488 174.02 231.488C176.357 231.488 178.379 232.956 178.379 236.304V237.007H171.717C171.752 238.633 172.71 239.6 174.16 239.591C175.145 239.6 175.804 239.178 176.094 238.607H178.291C177.887 240.259 176.357 241.349 174.143 241.349ZM171.726 235.478H176.234C176.226 234.177 175.347 233.228 174.055 233.228C172.71 233.228 171.805 234.265 171.726 235.478ZM182.369 228.429V241.156H180.119V228.429H182.369ZM189.928 234.335C189.787 233.615 189.189 233.149 188.24 233.158C187.282 233.149 186.579 233.632 186.588 234.283C186.579 234.775 186.975 235.144 187.941 235.373L189.559 235.707C191.36 236.102 192.239 236.937 192.248 238.308C192.239 240.101 190.666 241.349 188.17 241.349C185.744 241.349 184.312 240.259 184.074 238.431H186.359C186.491 239.249 187.124 239.653 188.17 239.644C189.251 239.653 189.954 239.213 189.963 238.501C189.954 237.948 189.523 237.596 188.574 237.394L187.045 237.06C185.27 236.7 184.347 235.768 184.355 234.406C184.347 232.639 185.876 231.488 188.205 231.488C190.481 231.488 191.888 232.604 192.055 234.335H189.928ZM87.4736 265.255C86.2607 265.264 85.2852 264.289 85.2939 263.076C85.2852 261.88 86.2607 260.905 87.4736 260.914C88.6689 260.905 89.6445 261.88 89.6357 263.076C89.6445 264.289 88.6689 265.264 87.4736 265.255ZM103.795 268.156H101.352L105.834 255.429H108.646L113.146 268.156H110.703L109.64 265.009H104.85L103.795 268.156ZM105.465 263.164H109.024L107.293 258.031H107.188L105.465 263.164ZM114.553 268.156V258.611H116.732V260.193H116.838C117.181 259.094 118.095 258.47 119.193 258.47C119.439 258.47 119.791 258.497 120.002 258.523V260.597C119.8 260.527 119.334 260.465 118.965 260.457C117.717 260.465 116.803 261.327 116.803 262.531V268.156H114.553ZM126.629 258.611V260.333H124.748V265.291C124.748 266.205 125.205 266.389 125.768 266.398C126.031 266.407 126.471 266.38 126.752 266.363V268.191C126.488 268.235 126.058 268.288 125.486 268.279C123.799 268.288 122.498 267.453 122.516 265.66V260.333H121.145V258.611H122.516V256.326H124.748V258.611H126.629ZM128.352 268.156V258.611H130.602V268.156H128.352ZM128.193 256.027C128.193 255.359 128.782 254.814 129.494 254.814C130.206 254.814 130.795 255.359 130.795 256.027C130.795 256.704 130.206 257.249 129.494 257.257C128.782 257.249 128.193 256.704 128.193 256.027ZM138.16 261.335C138.02 260.615 137.422 260.149 136.473 260.158C135.515 260.149 134.812 260.632 134.82 261.283C134.812 261.775 135.207 262.144 136.174 262.373L137.791 262.707C139.593 263.102 140.472 263.937 140.48 265.308C140.472 267.101 138.898 268.349 136.402 268.349C133.977 268.349 132.544 267.259 132.307 265.431H134.592C134.724 266.249 135.356 266.653 136.402 266.644C137.483 266.653 138.187 266.213 138.195 265.501C138.187 264.948 137.756 264.596 136.807 264.394L135.277 264.06C133.502 263.7 132.579 262.768 132.588 261.406C132.579 259.639 134.108 258.488 136.438 258.488C138.714 258.488 140.12 259.604 140.287 261.335H138.16ZM146.949 258.611V260.333H145.068V265.291C145.068 266.205 145.525 266.389 146.088 266.398C146.352 266.407 146.791 266.38 147.072 266.363V268.191C146.809 268.235 146.378 268.288 145.807 268.279C144.119 268.288 142.818 267.453 142.836 265.66V260.333H141.465V258.611H142.836V256.326H145.068V258.611H146.949ZM154.139 261.933V263.779H148.408V261.933H154.139ZM160.502 268.349C157.654 268.349 155.932 266.31 155.932 263.427C155.932 260.5 157.707 258.488 160.502 258.488C162.813 258.488 164.439 259.841 164.598 261.898H162.453C162.277 260.984 161.609 260.29 160.52 260.281C159.131 260.29 158.199 261.45 158.199 263.375C158.199 265.343 159.113 266.512 160.52 266.521C161.513 266.512 162.251 265.932 162.453 264.904H164.598C164.431 266.917 162.901 268.349 160.502 268.349ZM166.285 268.156V258.611H168.465V260.193H168.57C168.913 259.094 169.827 258.47 170.926 258.47C171.172 258.47 171.523 258.497 171.734 258.523V260.597C171.532 260.527 171.066 260.465 170.697 260.457C169.449 260.465 168.535 261.327 168.535 262.531V268.156H166.285ZM176.99 268.349C174.116 268.349 172.35 266.433 172.35 263.445C172.35 260.492 174.143 258.488 176.867 258.488C179.205 258.488 181.227 259.956 181.227 263.304V264.007H174.564C174.6 265.633 175.558 266.6 177.008 266.591C177.992 266.6 178.651 266.178 178.941 265.607H181.139C180.734 267.259 179.205 268.349 176.99 268.349ZM174.573 262.478H179.082C179.073 261.177 178.194 260.228 176.902 260.228C175.558 260.228 174.652 261.265 174.573 262.478ZM182.527 265.466C182.527 263.322 184.312 262.698 186.078 262.583C186.746 262.531 188.108 262.469 188.53 262.452L188.521 261.687C188.521 260.738 187.915 260.193 186.799 260.193C185.797 260.193 185.182 260.65 185.006 261.335H182.844C183.002 259.709 184.461 258.488 186.852 258.488C188.662 258.488 190.754 259.235 190.754 261.775V268.156H188.609V266.837H188.539C188.117 267.646 187.229 268.349 185.727 268.349C183.907 268.349 182.527 267.356 182.527 265.466ZM184.689 265.449C184.689 266.275 185.366 266.697 186.307 266.697C187.669 266.697 188.539 265.8 188.539 264.728L188.53 263.946C188.126 263.963 186.878 264.042 186.43 264.078C185.366 264.166 184.689 264.614 184.689 265.449ZM197.627 258.611V260.333H195.746V265.291C195.746 266.205 196.203 266.389 196.766 266.398C197.029 266.407 197.469 266.38 197.75 266.363V268.191C197.486 268.235 197.056 268.288 196.484 268.279C194.797 268.288 193.496 267.453 193.514 265.66V260.333H192.143V258.611H193.514V256.326H195.746V258.611H197.627ZM203.48 268.349C200.606 268.349 198.84 266.433 198.84 263.445C198.84 260.492 200.633 258.488 203.357 258.488C205.695 258.488 207.717 259.956 207.717 263.304V264.007H201.055C201.09 265.633 202.048 266.6 203.498 266.591C204.482 266.6 205.142 266.178 205.432 265.607H207.629C207.225 267.259 205.695 268.349 203.48 268.349ZM201.063 262.478H205.572C205.563 261.177 204.685 260.228 203.393 260.228C202.048 260.228 201.143 261.265 201.063 262.478ZM213.008 268.332C210.767 268.323 209.07 266.53 209.07 263.392C209.07 260.21 210.811 258.488 213.025 258.488C214.704 258.488 215.407 259.499 215.75 260.175H215.838V255.429H218.07V268.156H215.873V266.644H215.75C215.39 267.347 214.66 268.323 213.008 268.332ZM211.355 263.375C211.355 265.176 212.146 266.486 213.623 266.486C215.073 266.486 215.891 265.238 215.891 263.375C215.891 261.52 215.082 260.325 213.623 260.316C212.129 260.325 211.355 261.599 211.355 263.375ZM106.238 295.349C103.391 295.349 101.668 293.31 101.668 290.427C101.668 287.5 103.443 285.488 106.238 285.488C108.55 285.488 110.176 286.841 110.334 288.898H108.189C108.014 287.984 107.346 287.29 106.256 287.281C104.867 287.29 103.936 288.45 103.936 290.375C103.936 292.343 104.85 293.512 106.256 293.521C107.249 293.512 107.987 292.932 108.189 291.904H110.334C110.167 293.917 108.638 295.349 106.238 295.349ZM116.188 295.349C113.401 295.349 111.617 293.372 111.617 290.427C111.617 287.457 113.401 285.488 116.188 285.488C118.982 285.488 120.767 287.457 120.758 290.427C120.767 293.372 118.982 295.349 116.188 295.349ZM113.885 290.41C113.885 292.159 114.649 293.556 116.205 293.556C117.734 293.556 118.499 292.159 118.49 290.41C118.499 288.661 117.734 287.254 116.205 287.263C114.649 287.254 113.885 288.661 113.885 290.41ZM124.748 289.566V295.156H122.498V285.611H124.643V287.228H124.766C125.196 286.165 126.172 285.488 127.596 285.488C129.573 285.488 130.874 286.789 130.865 289.074V295.156H128.633V289.425C128.633 288.142 127.938 287.377 126.77 287.386C125.583 287.377 124.748 288.177 124.748 289.566ZM137.773 285.611V287.333H135.893V292.291C135.893 293.205 136.35 293.389 136.912 293.398C137.176 293.407 137.615 293.38 137.896 293.363V295.191C137.633 295.235 137.202 295.288 136.631 295.279C134.943 295.288 133.643 294.453 133.66 292.66V287.333H132.289V285.611H133.66V283.326H135.893V285.611H137.773ZM143.627 295.349C140.753 295.349 138.986 293.433 138.986 290.445C138.986 287.492 140.779 285.488 143.504 285.488C145.842 285.488 147.863 286.956 147.863 290.304V291.007H141.201C141.236 292.633 142.194 293.6 143.645 293.591C144.629 293.6 145.288 293.178 145.578 292.607H147.775C147.371 294.259 145.842 295.349 143.627 295.349ZM141.21 289.478H145.719C145.71 288.177 144.831 287.228 143.539 287.228C142.194 287.228 141.289 288.265 141.21 289.478ZM151.854 289.566V295.156H149.604V285.611H151.748V287.228H151.871C152.302 286.165 153.277 285.488 154.701 285.488C156.679 285.488 157.979 286.789 157.971 289.074V295.156H155.738V289.425C155.738 288.142 155.044 287.377 153.875 287.386C152.688 287.377 151.854 288.177 151.854 289.566ZM164.879 285.611V287.333H162.998V292.291C162.998 293.205 163.455 293.389 164.018 293.398C164.281 293.407 164.721 293.38 165.002 293.363V295.191C164.738 295.235 164.308 295.288 163.736 295.279C162.049 295.288 160.748 294.453 160.766 292.66V287.333H159.395V285.611H160.766V283.326H162.998V285.611H164.879ZM171.875 288.335C171.734 287.615 171.137 287.149 170.188 287.158C169.229 287.149 168.526 287.632 168.535 288.283C168.526 288.775 168.922 289.144 169.889 289.373L171.506 289.707C173.308 290.102 174.187 290.937 174.195 292.308C174.187 294.101 172.613 295.349 170.117 295.349C167.691 295.349 166.259 294.259 166.021 292.431H168.307C168.438 293.249 169.071 293.653 170.117 293.644C171.198 293.653 171.901 293.213 171.91 292.501C171.901 291.948 171.471 291.596 170.521 291.394L168.992 291.06C167.217 290.7 166.294 289.768 166.303 288.406C166.294 286.639 167.823 285.488 170.152 285.488C172.429 285.488 173.835 286.604 174.002 288.335H171.875Z" fill="white"/>
<rect x="494.859" y="0.155762" width="438" height="54" rx="27" fill="#333333"/>
<path d="M617.508 36.1558V19.187H629.625V22.7964H621.961V25.8667H628.992V29.4761H621.961V32.5464H629.602V36.1558H617.508ZM635.812 23.4292L637.734 27.437L639.75 23.4292H644.156L640.711 29.7808L644.32 36.1558H639.938L637.734 32.0542L635.602 36.1558H631.148L634.781 29.7808L631.359 23.4292H635.812ZM645.844 40.937V23.4292H650.227V25.6323H650.344C650.824 24.3784 651.996 23.2651 653.93 23.2651C656.484 23.2651 658.922 25.2222 658.922 29.8042C658.922 34.187 656.637 36.3315 653.883 36.3198C652.066 36.3315 650.859 35.3354 650.344 34.0698H650.273V40.937H645.844ZM650.18 29.7808C650.168 31.7026 650.965 32.9097 652.289 32.9214C653.602 32.9097 654.363 31.7261 654.375 29.7808C654.363 27.8589 653.613 26.6753 652.289 26.687C650.953 26.6753 650.168 27.8472 650.18 29.7808ZM660.281 32.6401C660.281 29.8394 662.379 28.7378 664.969 28.5854C665.93 28.5386 667.43 28.4917 667.945 28.4683V27.437C667.934 26.7339 667.359 26.3354 666.492 26.3354C665.59 26.3354 664.98 26.7222 664.875 27.5308H660.773C660.938 25.2222 662.812 23.2651 666.562 23.2651C670.09 23.2651 672.375 25.0112 672.375 27.4604V36.1558H668.227V34.3745H668.133C667.371 35.7573 666.129 36.355 664.43 36.3667C662.004 36.355 660.281 35.1714 660.281 32.6401ZM664.453 32.3823C664.465 33.144 665.039 33.5425 665.859 33.5308C666.973 33.5425 667.98 32.8276 667.969 31.6323V30.9526C667.523 30.9644 666.352 31.0112 665.766 31.0698C664.969 31.1753 664.465 31.6909 664.453 32.3823ZM679.055 28.9604V36.1558H674.625V23.4292H678.82V25.8198H678.961C679.512 24.2378 680.977 23.2651 682.852 23.2651C685.547 23.2651 687.305 25.2456 687.281 28.0464V36.1558H682.852V28.9604C682.875 27.6479 682.172 26.8628 680.977 26.8745C679.805 26.8628 679.055 27.6597 679.055 28.9604ZM697.008 27.5308C696.926 26.7339 696.164 26.23 695.227 26.2417C694.395 26.23 693.715 26.5698 693.727 27.1323C693.715 27.519 694.008 27.8823 695.016 28.0698L697.547 28.5386C700.137 29.0073 701.391 30.1089 701.414 31.9839C701.391 34.6792 698.848 36.3901 695.344 36.3901C691.5 36.3901 689.285 34.6792 689.016 32.1011H693.422C693.562 32.9214 694.301 33.3784 695.367 33.3901C696.258 33.3784 696.891 33.062 696.914 32.4995C696.891 31.9839 696.434 31.7026 695.414 31.5151L693.188 31.1167C690.609 30.6479 689.32 29.3706 689.32 27.3901C689.32 24.7534 691.547 23.2651 695.133 23.2651C698.754 23.2651 700.957 24.8706 701.086 27.5308H697.008ZM703.219 36.1558V23.4292H707.648V36.1558H703.219ZM703.219 20.0073C703.207 18.8823 704.203 17.9683 705.422 17.9683C706.629 17.9683 707.625 18.8823 707.625 20.0073C707.625 21.144 706.629 22.0581 705.422 22.0464C704.203 22.0581 703.207 21.144 703.219 20.0073ZM716.086 36.3901C711.984 36.3901 709.535 33.7417 709.523 29.8276C709.535 25.9136 711.984 23.2651 716.086 23.2651C720.188 23.2651 722.637 25.9136 722.625 29.8276C722.637 33.7417 720.188 36.3901 716.086 36.3901ZM714.047 29.8042C714.059 31.8198 714.809 33.0972 716.109 33.1089C717.352 33.0972 718.113 31.8198 718.102 29.8042C718.113 27.7651 717.352 26.4878 716.109 26.4995C714.809 26.4878 714.059 27.7651 714.047 29.8042ZM728.977 28.9604V36.1558H724.547V23.4292H728.742V25.8198H728.883C729.434 24.2378 730.898 23.2651 732.773 23.2651C735.469 23.2651 737.227 25.2456 737.203 28.0464V36.1558H732.773V28.9604C732.797 27.6479 732.094 26.8628 730.898 26.8745C729.727 26.8628 728.977 27.6597 728.977 28.9604ZM753.844 24.437C753.75 23.3003 753 22.6206 751.477 22.6323C750.012 22.6206 749.332 23.2065 749.32 23.9917C749.285 24.8706 750.082 25.3511 751.664 25.6792L753.07 26.0073C756.715 26.7808 758.344 28.5503 758.367 31.1636C758.344 34.4917 755.789 36.355 751.5 36.3667C747.117 36.355 744.27 34.4565 744.234 30.2729H748.5C748.57 31.855 749.66 32.687 751.43 32.687C752.965 32.687 753.785 32.0659 753.797 31.1636C753.785 30.3433 753.082 29.8628 751.195 29.4526L749.484 29.0776C746.496 28.4214 744.668 26.9448 744.68 24.3198C744.656 21.1089 747.492 18.9526 751.477 18.9526C755.543 18.9526 758.109 21.144 758.133 24.437H753.844ZM767.719 23.4292V26.6401H765.492V32.0776C765.492 32.6753 765.785 32.9097 766.406 32.9448C766.723 32.9565 767.379 32.9214 767.883 32.8745V36.1792C767.473 36.2612 766.77 36.3315 765.773 36.3433C762.691 36.3315 761.027 35.1714 761.062 32.5229V26.6401H759.422V23.4292H761.062V20.3823H765.492V23.4292H767.719ZM769.008 32.6401C769.008 29.8394 771.105 28.7378 773.695 28.5854C774.656 28.5386 776.156 28.4917 776.672 28.4683V27.437C776.66 26.7339 776.086 26.3354 775.219 26.3354C774.316 26.3354 773.707 26.7222 773.602 27.5308H769.5C769.664 25.2222 771.539 23.2651 775.289 23.2651C778.816 23.2651 781.102 25.0112 781.102 27.4604V36.1558H776.953V34.3745H776.859C776.098 35.7573 774.855 36.355 773.156 36.3667C770.73 36.355 769.008 35.1714 769.008 32.6401ZM773.18 32.3823C773.191 33.144 773.766 33.5425 774.586 33.5308C775.699 33.5425 776.707 32.8276 776.695 31.6323V30.9526C776.25 30.9644 775.078 31.0112 774.492 31.0698C773.695 31.1753 773.191 31.6909 773.18 32.3823ZM789.422 41.1948C785.637 41.1948 783.41 39.4604 783.234 37.0229H787.523C787.652 37.855 788.449 38.1831 789.539 38.1948C790.781 38.1831 791.684 37.6675 791.672 36.1323V33.9526H791.555C791.051 35.2183 789.727 35.9917 787.969 35.9917C785.227 35.9917 782.93 34.1636 782.93 29.7808C782.93 25.2104 785.379 23.2651 787.922 23.2651C789.855 23.2651 791.027 24.3784 791.508 25.6323H791.625V23.4292H796.055V36.1558C796.055 39.3784 793.395 41.1948 789.422 41.1948ZM787.5 29.7808C787.488 31.7144 788.25 32.8276 789.562 32.8276C790.887 32.8276 791.684 31.6909 791.695 29.7808C791.684 27.8472 790.898 26.6753 789.562 26.687C788.25 26.6753 787.488 27.8589 787.5 29.7808ZM804.469 36.3901C800.414 36.3901 797.941 33.9409 797.93 29.8276C797.941 25.8901 800.449 23.2651 804.375 23.2651C808.148 23.2651 810.645 25.6909 810.656 29.7808V30.8354H802.312V30.9995C802.312 32.3237 803.145 33.2495 804.562 33.2495C805.535 33.2495 806.297 32.8394 806.578 32.1011H810.633C810.199 34.7261 807.949 36.3901 804.469 36.3901ZM802.312 28.3511H806.555C806.543 27.2026 805.652 26.394 804.469 26.4058C803.285 26.394 802.348 27.2026 802.312 28.3511Z" fill="white"/>
<rect x="391.859" y="74.1558" width="312" height="312" rx="156" fill="white"/>
<path d="M476.497 165.156H469.783V147.48H476.448C481.893 147.48 485.286 150.788 485.286 156.318C485.286 161.835 481.893 165.156 476.497 165.156ZM474.422 161.201H476.326C479.048 161.201 480.599 160.041 480.599 156.318C480.599 152.583 479.048 151.435 476.204 151.435H474.422V161.201ZM487.605 165.156V151.899H492.22V165.156H487.605ZM487.605 148.334C487.593 147.163 488.631 146.21 489.9 146.21C491.158 146.21 492.195 147.163 492.195 148.334C492.195 149.519 491.158 150.471 489.9 150.458C488.631 150.471 487.593 149.519 487.605 148.334ZM501.009 170.405C497.066 170.405 494.747 168.598 494.563 166.059H499.031C499.166 166.926 499.996 167.268 501.131 167.28C502.425 167.268 503.365 166.73 503.353 165.131V162.861H503.23C502.706 164.179 501.326 164.985 499.495 164.985C496.639 164.985 494.246 163.081 494.246 158.515C494.246 153.754 496.797 151.728 499.446 151.728C501.46 151.728 502.681 152.888 503.182 154.194H503.304V151.899H507.918V165.156C507.918 168.513 505.147 170.405 501.009 170.405ZM499.007 158.515C498.995 160.529 499.788 161.689 501.155 161.689C502.535 161.689 503.365 160.505 503.377 158.515C503.365 156.501 502.547 155.28 501.155 155.292C499.788 155.28 498.995 156.513 499.007 158.515ZM510.384 165.156V151.899H514.998V165.156H510.384ZM510.384 148.334C510.372 147.163 511.409 146.21 512.679 146.21C513.936 146.21 514.974 147.163 514.974 148.334C514.974 149.519 513.936 150.471 512.679 150.458C511.409 150.471 510.372 149.519 510.384 148.334ZM525.252 151.899V155.244H522.933V160.908C522.933 161.53 523.238 161.774 523.885 161.811C524.214 161.823 524.898 161.787 525.423 161.738V165.18C524.996 165.266 524.263 165.339 523.226 165.351C520.015 165.339 518.282 164.13 518.318 161.372V155.244H516.609V151.899H518.318V148.725H522.933V151.899H525.252ZM526.595 161.494C526.595 158.576 528.78 157.429 531.478 157.27C532.479 157.221 534.041 157.172 534.578 157.148V156.074C534.566 155.341 533.968 154.926 533.064 154.926C532.125 154.926 531.49 155.329 531.38 156.171H527.107C527.278 153.767 529.231 151.728 533.138 151.728C536.812 151.728 539.192 153.547 539.192 156.098V165.156H534.871V163.3H534.773C533.98 164.741 532.686 165.363 530.916 165.375C528.389 165.363 526.595 164.13 526.595 161.494ZM530.94 161.225C530.953 162.019 531.551 162.434 532.405 162.421C533.565 162.434 534.615 161.689 534.603 160.444V159.736C534.139 159.748 532.918 159.797 532.308 159.858C531.478 159.968 530.953 160.505 530.94 161.225ZM546.15 147.48V165.156H541.536V147.48H546.15ZM554.012 147.48H559.798L563.997 157.758H564.217L568.416 147.48H574.202V165.156H569.661V154.755H569.515L565.486 165.034H562.703L558.699 154.682H558.553V165.156H554.012V147.48ZM582.942 165.4C578.719 165.4 576.143 162.849 576.131 158.564C576.143 154.462 578.755 151.728 582.845 151.728C586.775 151.728 589.375 154.255 589.388 158.515V159.614H580.696V159.785C580.696 161.164 581.563 162.128 583.04 162.128C584.053 162.128 584.847 161.701 585.14 160.932H589.363C588.912 163.667 586.568 165.4 582.942 165.4ZM580.696 157.026H585.115C585.103 155.83 584.175 154.987 582.942 155C581.709 154.987 580.733 155.83 580.696 157.026ZM596.175 165.327C593.306 165.339 590.926 163.105 590.926 158.54C590.926 153.767 593.477 151.728 596.126 151.728C598.14 151.728 599.361 152.888 599.861 154.194H599.935V147.48H604.549V165.156H599.983V162.983H599.861C599.324 164.301 598.067 165.339 596.175 165.327ZM595.687 158.515C595.674 160.542 596.468 161.774 597.835 161.787C599.214 161.774 600.044 160.517 600.057 158.515C600.044 156.501 599.227 155.28 597.835 155.292C596.468 155.28 595.674 156.513 595.687 158.515ZM606.99 165.156V151.899H611.604V165.156H606.99ZM606.99 148.334C606.978 147.163 608.016 146.21 609.285 146.21C610.542 146.21 611.58 147.163 611.58 148.334C611.58 149.519 610.542 150.471 609.285 150.458C608.016 150.471 606.978 149.519 606.99 148.334ZM613.436 161.494C613.436 158.576 615.621 157.429 618.318 157.27C619.319 157.221 620.882 157.172 621.419 157.148V156.074C621.407 155.341 620.809 154.926 619.905 154.926C618.965 154.926 618.331 155.329 618.221 156.171H613.948C614.119 153.767 616.072 151.728 619.979 151.728C623.653 151.728 626.033 153.547 626.033 156.098V165.156H621.712V163.3H621.614C620.821 164.741 619.527 165.363 617.757 165.375C615.23 165.363 613.436 164.13 613.436 161.494ZM617.781 161.225C617.793 162.019 618.392 162.434 619.246 162.421C620.406 162.434 621.456 161.689 621.443 160.444V159.736C620.979 159.748 619.759 159.797 619.148 159.858C618.318 159.968 617.793 160.505 617.781 161.225ZM495.54 182.949C495.442 181.765 494.661 181.057 493.074 181.069C491.548 181.057 490.84 181.667 490.828 182.485C490.792 183.4 491.622 183.901 493.27 184.243L494.734 184.584C498.531 185.39 500.228 187.233 500.252 189.956C500.228 193.422 497.566 195.363 493.099 195.375C488.533 195.363 485.567 193.386 485.53 189.028H489.974C490.047 190.676 491.182 191.542 493.025 191.542C494.625 191.542 495.479 190.896 495.491 189.956C495.479 189.101 494.747 188.601 492.781 188.173L490.999 187.783C487.886 187.099 485.982 185.561 485.994 182.827C485.97 179.482 488.924 177.236 493.074 177.236C497.31 177.236 499.983 179.519 500.008 182.949H495.54ZM509.993 181.899V185.244H507.674V190.908C507.674 191.53 507.979 191.774 508.626 191.811C508.956 191.823 509.639 191.787 510.164 191.738V195.18C509.737 195.266 509.004 195.339 507.967 195.351C504.756 195.339 503.023 194.13 503.06 191.372V185.244H501.351V181.899H503.06V178.725H507.674V181.899H509.993ZM511.971 195.156V181.899H516.438V184.389H516.585C517.061 182.558 518.184 181.716 519.612 181.728C520.015 181.716 520.442 181.789 520.809 181.875V185.854C520.357 185.695 519.576 185.61 519.075 185.61C517.635 185.61 516.573 186.635 516.585 188.173V195.156H511.971ZM528.279 195.4C524.056 195.4 521.48 192.849 521.468 188.564C521.48 184.462 524.092 181.728 528.182 181.728C532.112 181.728 534.712 184.255 534.725 188.515V189.614H526.033V189.785C526.033 191.164 526.9 192.128 528.377 192.128C529.39 192.128 530.184 191.701 530.477 190.932H534.7C534.249 193.667 531.905 195.4 528.279 195.4ZM526.033 187.026H530.452C530.44 185.83 529.512 184.987 528.279 185C527.046 184.987 526.07 185.83 526.033 187.026ZM536.067 191.494C536.067 188.576 538.252 187.429 540.95 187.27C541.951 187.221 543.514 187.172 544.051 187.148V186.074C544.039 185.341 543.44 184.926 542.537 184.926C541.597 184.926 540.962 185.329 540.853 186.171H536.58C536.751 183.767 538.704 181.728 542.61 181.728C546.285 181.728 548.665 183.547 548.665 186.098V195.156H544.344V193.3H544.246C543.453 194.741 542.159 195.363 540.389 195.375C537.862 195.363 536.067 194.13 536.067 191.494ZM540.413 191.225C540.425 192.019 541.023 192.434 541.878 192.421C543.038 192.434 544.087 191.689 544.075 190.444V189.736C543.611 189.748 542.391 189.797 541.78 189.858C540.95 189.968 540.425 190.505 540.413 191.225ZM551.009 195.156V181.899H555.379V184.389H555.525C556.075 182.753 557.479 181.728 559.31 181.728C561.165 181.728 562.63 182.778 562.923 184.389H563.069C563.533 182.778 565.108 181.728 567.073 181.728C569.6 181.728 571.333 183.474 571.346 186.22V195.156H566.731V187.368C566.719 186.159 566.048 185.451 565.047 185.439C564.009 185.451 563.375 186.184 563.387 187.368V195.156H558.968V187.343C558.956 186.171 558.296 185.451 557.283 185.439C556.258 185.451 555.611 186.196 555.623 187.392V195.156H551.009ZM573.763 195.156V181.899H578.377V195.156H573.763ZM573.763 178.334C573.75 177.163 574.788 176.21 576.058 176.21C577.315 176.21 578.353 177.163 578.353 178.334C578.353 179.519 577.315 180.471 576.058 180.458C574.788 180.471 573.75 179.519 573.763 178.334ZM585.457 187.661V195.156H580.843V181.899H585.213V184.389H585.359C585.933 182.741 587.459 181.728 589.412 181.728C592.22 181.728 594.051 183.791 594.026 186.708V195.156H589.412V187.661C589.437 186.293 588.704 185.476 587.459 185.488C586.238 185.476 585.457 186.306 585.457 187.661ZM602.767 200.405C598.824 200.405 596.504 198.598 596.321 196.059H600.789C600.923 196.926 601.753 197.268 602.889 197.28C604.183 197.268 605.123 196.73 605.11 195.131V192.861H604.988C604.463 194.179 603.084 194.985 601.253 194.985C598.396 194.985 596.004 193.081 596.004 188.515C596.004 183.754 598.555 181.728 601.204 181.728C603.218 181.728 604.439 182.888 604.939 184.194H605.062V181.899H609.676V195.156C609.676 198.513 606.905 200.405 602.767 200.405ZM600.765 188.515C600.752 190.529 601.546 191.689 602.913 191.689C604.292 191.689 605.123 190.505 605.135 188.515C605.123 186.501 604.305 185.28 602.913 185.292C601.546 185.28 600.752 186.513 600.765 188.515Z" fill="black"/>
<path d="M483.833 228.255C482.62 228.264 481.645 227.289 481.653 226.076C481.645 224.88 482.62 223.905 483.833 223.914C485.028 223.905 486.004 224.88 485.995 226.076C486.004 227.289 485.028 228.264 483.833 228.255ZM498.537 218.429H501.35L505.129 227.675H505.287L509.066 218.429H511.879V231.156H509.682V222.402H509.559L506.025 231.121H504.391L500.857 222.367H500.752V231.156H498.537V218.429ZM520.229 227.148V221.611H522.461V231.156H520.299V229.468H520.193C519.754 230.532 518.752 231.279 517.328 231.279C515.438 231.279 514.138 229.978 514.129 227.693V221.611H516.379V227.341C516.379 228.554 517.1 229.328 518.189 229.328C519.174 229.328 520.229 228.607 520.229 227.148ZM530.02 224.335C529.879 223.615 529.281 223.149 528.332 223.158C527.374 223.149 526.671 223.632 526.68 224.283C526.671 224.775 527.066 225.144 528.033 225.373L529.65 225.707C531.452 226.102 532.331 226.937 532.34 228.308C532.331 230.101 530.758 231.349 528.262 231.349C525.836 231.349 524.403 230.259 524.166 228.431H526.451C526.583 229.249 527.216 229.653 528.262 229.644C529.343 229.653 530.046 229.213 530.055 228.501C530.046 227.948 529.615 227.596 528.666 227.394L527.137 227.06C525.361 226.7 524.438 225.768 524.447 224.406C524.438 222.639 525.968 221.488 528.297 221.488C530.573 221.488 531.979 222.604 532.146 224.335H530.02ZM534.045 231.156V221.611H536.295V231.156H534.045ZM533.887 219.027C533.887 218.359 534.476 217.814 535.188 217.814C535.899 217.814 536.488 218.359 536.488 219.027C536.488 219.704 535.899 220.249 535.188 220.257C534.476 220.249 533.887 219.704 533.887 219.027ZM542.605 231.349C539.758 231.349 538.035 229.31 538.035 226.427C538.035 223.5 539.811 221.488 542.605 221.488C544.917 221.488 546.543 222.841 546.701 224.898H544.557C544.381 223.984 543.713 223.29 542.623 223.281C541.234 223.29 540.303 224.45 540.303 226.375C540.303 228.343 541.217 229.512 542.623 229.521C543.616 229.512 544.354 228.932 544.557 227.904H546.701C546.534 229.917 545.005 231.349 542.605 231.349ZM483.833 255.255C482.62 255.264 481.645 254.289 481.653 253.076C481.645 251.88 482.62 250.905 483.833 250.914C485.028 250.905 486.004 251.88 485.995 253.076C486.004 254.289 485.028 255.264 483.833 255.255ZM498.537 245.429H501.35L505.129 254.675H505.287L509.066 245.429H511.879V258.156H509.682V249.402H509.559L506.025 258.121H504.391L500.857 249.367H500.752V258.156H498.537V245.429ZM518.295 258.349C515.509 258.349 513.725 256.372 513.725 253.427C513.725 250.457 515.509 248.488 518.295 248.488C521.09 248.488 522.874 250.457 522.865 253.427C522.874 256.372 521.09 258.349 518.295 258.349ZM515.992 253.41C515.992 255.159 516.757 256.556 518.312 256.556C519.842 256.556 520.606 255.159 520.598 253.41C520.606 251.661 519.842 250.254 518.312 250.263C516.757 250.254 515.992 251.661 515.992 253.41ZM532.797 248.611L529.387 258.156H526.926L523.516 248.611H525.906L528.104 255.712H528.209L530.424 248.611H532.797ZM534.203 258.156V248.611H536.453V258.156H534.203ZM534.045 246.027C534.045 245.359 534.634 244.814 535.346 244.814C536.058 244.814 536.646 245.359 536.646 246.027C536.646 246.704 536.058 247.249 535.346 247.257C534.634 247.249 534.045 246.704 534.045 246.027ZM542.834 258.349C539.96 258.349 538.193 256.433 538.193 253.445C538.193 250.492 539.986 248.488 542.711 248.488C545.049 248.488 547.07 249.956 547.07 253.304V254.007H540.408C540.443 255.633 541.401 256.6 542.852 256.591C543.836 256.6 544.495 256.178 544.785 255.607H546.982C546.578 257.259 545.049 258.349 542.834 258.349ZM540.417 252.478H544.926C544.917 251.177 544.038 250.228 542.746 250.228C541.401 250.228 540.496 251.265 540.417 252.478ZM483.833 282.255C482.62 282.264 481.645 281.289 481.653 280.076C481.645 278.88 482.62 277.905 483.833 277.914C485.028 277.905 486.004 278.88 485.995 280.076C486.004 281.289 485.028 282.264 483.833 282.255ZM502.861 285.156H498.537V272.429H502.932C506.729 272.429 509.022 274.811 509.031 278.775C509.022 282.756 506.729 285.156 502.861 285.156ZM500.822 283.169H502.738C505.401 283.178 506.746 281.71 506.746 278.775C506.746 275.857 505.401 274.407 502.809 274.416H500.822V283.169ZM510.947 285.156V275.611H513.127V277.193H513.232C513.575 276.094 514.489 275.47 515.588 275.47C515.834 275.47 516.186 275.497 516.396 275.523V277.597C516.194 277.527 515.729 277.465 515.359 277.457C514.111 277.465 513.197 278.327 513.197 279.531V285.156H510.947ZM517.117 282.466C517.117 280.322 518.901 279.698 520.668 279.583C521.336 279.531 522.698 279.469 523.12 279.452L523.111 278.687C523.111 277.738 522.505 277.193 521.389 277.193C520.387 277.193 519.771 277.65 519.596 278.335H517.434C517.592 276.709 519.051 275.488 521.441 275.488C523.252 275.488 525.344 276.235 525.344 278.775V285.156H523.199V283.837H523.129C522.707 284.646 521.819 285.349 520.316 285.349C518.497 285.349 517.117 284.356 517.117 282.466ZM519.279 282.449C519.279 283.275 519.956 283.697 520.896 283.697C522.259 283.697 523.129 282.8 523.129 281.728L523.12 280.946C522.716 280.963 521.468 281.042 521.02 281.078C519.956 281.166 519.279 281.614 519.279 282.449ZM527.453 285.156V275.611H529.598V277.228H529.721C530.116 276.138 531.074 275.488 532.34 275.488C533.632 275.488 534.563 276.147 534.924 277.228H535.029C535.442 276.173 536.506 275.488 537.895 275.488C539.644 275.488 540.874 276.613 540.865 278.74V285.156H538.633V279.091C538.633 277.905 537.912 277.369 536.998 277.369C535.899 277.369 535.258 278.116 535.258 279.197V285.156H533.078V279.003C533.069 278.01 532.419 277.369 531.461 277.369C530.494 277.369 529.703 278.168 529.703 279.355V285.156H527.453ZM542.57 282.466C542.57 280.322 544.354 279.698 546.121 279.583C546.789 279.531 548.151 279.469 548.573 279.452L548.564 278.687C548.564 277.738 547.958 277.193 546.842 277.193C545.84 277.193 545.225 277.65 545.049 278.335H542.887C543.045 276.709 544.504 275.488 546.895 275.488C548.705 275.488 550.797 276.235 550.797 278.775V285.156H548.652V283.837H548.582C548.16 284.646 547.272 285.349 545.77 285.349C543.95 285.349 542.57 284.356 542.57 282.466ZM544.732 282.449C544.732 283.275 545.409 283.697 546.35 283.697C547.712 283.697 548.582 282.8 548.582 281.728L548.573 280.946C548.169 280.963 546.921 281.042 546.473 281.078C545.409 281.166 544.732 281.614 544.732 282.449ZM562.592 278.335C562.451 277.615 561.854 277.149 560.904 277.158C559.946 277.149 559.243 277.632 559.252 278.283C559.243 278.775 559.639 279.144 560.605 279.373L562.223 279.707C564.024 280.102 564.903 280.937 564.912 282.308C564.903 284.101 563.33 285.349 560.834 285.349C558.408 285.349 556.976 284.259 556.738 282.431H559.023C559.155 283.249 559.788 283.653 560.834 283.644C561.915 283.653 562.618 283.213 562.627 282.501C562.618 281.948 562.188 281.596 561.238 281.394L559.709 281.06C557.934 280.7 557.011 279.768 557.02 278.406C557.011 276.639 558.54 275.488 560.869 275.488C563.146 275.488 564.552 276.604 564.719 278.335H562.592ZM570.854 285.349C567.979 285.349 566.213 283.433 566.213 280.445C566.213 277.492 568.006 275.488 570.73 275.488C573.068 275.488 575.09 276.956 575.09 280.304V281.007H568.428C568.463 282.633 569.421 283.6 570.871 283.591C571.855 283.6 572.515 283.178 572.805 282.607H575.002C574.598 284.259 573.068 285.349 570.854 285.349ZM568.437 279.478H572.945C572.937 278.177 572.058 277.228 570.766 277.228C569.421 277.228 568.516 278.265 568.437 279.478ZM576.83 285.156V275.611H579.01V277.193H579.115C579.458 276.094 580.372 275.47 581.471 275.47C581.717 275.47 582.068 275.497 582.279 275.523V277.597C582.077 277.527 581.611 277.465 581.242 277.457C579.994 277.465 579.08 278.327 579.08 279.531V285.156H576.83ZM583.615 285.156V275.611H585.865V285.156H583.615ZM583.457 273.027C583.457 272.359 584.046 271.814 584.758 271.814C585.47 271.814 586.059 272.359 586.059 273.027C586.059 273.704 585.47 274.249 584.758 274.257C584.046 274.249 583.457 273.704 583.457 273.027ZM592.246 285.349C589.372 285.349 587.605 283.433 587.605 280.445C587.605 277.492 589.398 275.488 592.123 275.488C594.461 275.488 596.482 276.956 596.482 280.304V281.007H589.82C589.855 282.633 590.813 283.6 592.264 283.591C593.248 283.6 593.907 283.178 594.197 282.607H596.395C595.99 284.259 594.461 285.349 592.246 285.349ZM589.829 279.478H594.338C594.329 278.177 593.45 277.228 592.158 277.228C590.813 277.228 589.908 278.265 589.829 279.478ZM603.637 278.335C603.496 277.615 602.898 277.149 601.949 277.158C600.991 277.149 600.288 277.632 600.297 278.283C600.288 278.775 600.684 279.144 601.65 279.373L603.268 279.707C605.069 280.102 605.948 280.937 605.957 282.308C605.948 284.101 604.375 285.349 601.879 285.349C599.453 285.349 598.021 284.259 597.783 282.431H600.068C600.2 283.249 600.833 283.653 601.879 283.644C602.96 283.653 603.663 283.213 603.672 282.501C603.663 281.948 603.232 281.596 602.283 281.394L600.754 281.06C598.979 280.7 598.056 279.768 598.064 278.406C598.056 276.639 599.585 275.488 601.914 275.488C604.19 275.488 605.597 276.604 605.764 278.335H603.637ZM483.833 309.255C482.62 309.264 481.645 308.289 481.653 307.076C481.645 305.88 482.62 304.905 483.833 304.914C485.028 304.905 486.004 305.88 485.995 307.076C486.004 308.289 485.028 309.264 483.833 309.255ZM500.154 312.156H497.711L502.193 299.429H505.006L509.506 312.156H507.062L505.999 309.009H501.209L500.154 312.156ZM501.824 307.164H505.384L503.652 302.031H503.547L501.824 307.164ZM513.162 306.566V312.156H510.912V302.611H513.057V304.228H513.18C513.61 303.165 514.586 302.488 516.01 302.488C517.987 302.488 519.288 303.789 519.279 306.074V312.156H517.047V306.425C517.047 305.142 516.353 304.377 515.184 304.386C513.997 304.377 513.162 305.177 513.162 306.566ZM521.424 312.156V302.611H523.674V312.156H521.424ZM521.266 300.027C521.266 299.359 521.854 298.814 522.566 298.814C523.278 298.814 523.867 299.359 523.867 300.027C523.867 300.704 523.278 301.249 522.566 301.257C521.854 301.249 521.266 300.704 521.266 300.027ZM525.818 312.156V302.611H527.963V304.228H528.086C528.481 303.138 529.439 302.488 530.705 302.488C531.997 302.488 532.929 303.147 533.289 304.228H533.395C533.808 303.173 534.871 302.488 536.26 302.488C538.009 302.488 539.239 303.613 539.23 305.74V312.156H536.998V306.091C536.998 304.905 536.277 304.369 535.363 304.369C534.265 304.369 533.623 305.116 533.623 306.197V312.156H531.443V306.003C531.435 305.01 530.784 304.369 529.826 304.369C528.859 304.369 528.068 305.168 528.068 306.355V312.156H525.818ZM540.936 309.466C540.936 307.322 542.72 306.698 544.486 306.583C545.154 306.531 546.517 306.469 546.938 306.452L546.93 305.687C546.93 304.738 546.323 304.193 545.207 304.193C544.205 304.193 543.59 304.65 543.414 305.335H541.252C541.41 303.709 542.869 302.488 545.26 302.488C547.07 302.488 549.162 303.235 549.162 305.775V312.156H547.018V310.837H546.947C546.525 311.646 545.638 312.349 544.135 312.349C542.315 312.349 540.936 311.356 540.936 309.466ZM543.098 309.449C543.098 310.275 543.774 310.697 544.715 310.697C546.077 310.697 546.947 309.8 546.947 308.728L546.938 307.946C546.534 307.963 545.286 308.042 544.838 308.078C543.774 308.166 543.098 308.614 543.098 309.449ZM556.035 302.611V304.333H554.154V309.291C554.154 310.205 554.611 310.389 555.174 310.398C555.438 310.407 555.877 310.38 556.158 310.363V312.191C555.895 312.235 555.464 312.288 554.893 312.279C553.205 312.288 551.904 311.453 551.922 309.66V304.333H550.551V302.611H551.922V300.326H554.154V302.611H556.035ZM557.758 312.156V302.611H560.008V312.156H557.758ZM557.6 300.027C557.6 299.359 558.188 298.814 558.9 298.814C559.612 298.814 560.201 299.359 560.201 300.027C560.201 300.704 559.612 301.249 558.9 301.257C558.188 301.249 557.6 300.704 557.6 300.027ZM566.318 312.349C563.532 312.349 561.748 310.372 561.748 307.427C561.748 304.457 563.532 302.488 566.318 302.488C569.113 302.488 570.897 304.457 570.889 307.427C570.897 310.372 569.113 312.349 566.318 312.349ZM564.016 307.41C564.016 309.159 564.78 310.556 566.336 310.556C567.865 310.556 568.63 309.159 568.621 307.41C568.63 305.661 567.865 304.254 566.336 304.263C564.78 304.254 564.016 305.661 564.016 307.41ZM574.879 306.566V312.156H572.629V302.611H574.773V304.228H574.896C575.327 303.165 576.303 302.488 577.727 302.488C579.704 302.488 581.005 303.789 580.996 306.074V312.156H578.764V306.425C578.764 305.142 578.069 304.377 576.9 304.386C575.714 304.377 574.879 305.177 574.879 306.566Z" fill="black"/>
<rect x="723.859" y="74.1558" width="312" height="312" rx="156" fill="white"/>
<path d="M808.912 180.156V162.48H821.534V166.24H813.551V169.438H820.875V173.198H813.551V176.396H821.51V180.156H808.912ZM828.834 180.327C825.965 180.339 823.585 178.105 823.585 173.54C823.585 168.767 826.136 166.728 828.785 166.728C830.799 166.728 832.02 167.888 832.521 169.194H832.594V162.48H837.208V180.156H832.643V177.983H832.521C831.983 179.301 830.726 180.339 828.834 180.327ZM828.346 173.515C828.333 175.542 829.127 176.774 830.494 176.787C831.874 176.774 832.704 175.517 832.716 173.515C832.704 171.501 831.886 170.28 830.494 170.292C829.127 170.28 828.333 171.513 828.346 173.515ZM848.219 174.37V166.899H852.833V180.156H848.463V177.641H848.316C847.73 179.326 846.229 180.327 844.239 180.327C841.48 180.327 839.649 178.276 839.649 175.346V166.899H844.264V174.394C844.264 175.749 844.984 176.567 846.217 176.567C847.413 176.567 848.231 175.749 848.219 174.37ZM861.646 180.4C857.362 180.4 854.823 177.629 854.811 173.564C854.823 169.487 857.374 166.728 861.646 166.728C865.479 166.728 867.921 168.938 867.97 172.343H863.673C863.539 170.952 862.806 170.183 861.72 170.195C860.401 170.183 859.535 171.306 859.522 173.515C859.535 175.749 860.389 176.872 861.72 176.884C862.782 176.872 863.563 176.115 863.673 174.711H867.97C867.896 178.166 865.516 180.4 861.646 180.4ZM869.337 176.494C869.337 173.576 871.522 172.429 874.22 172.27C875.221 172.221 876.783 172.172 877.32 172.148V171.074C877.308 170.341 876.71 169.926 875.807 169.926C874.867 169.926 874.232 170.329 874.122 171.171H869.85C870.021 168.767 871.974 166.728 875.88 166.728C879.554 166.728 881.935 168.547 881.935 171.098V180.156H877.613V178.3H877.516C876.722 179.741 875.428 180.363 873.658 180.375C871.131 180.363 869.337 179.13 869.337 176.494ZM873.683 176.225C873.695 177.019 874.293 177.434 875.147 177.421C876.307 177.434 877.357 176.689 877.345 175.444V174.736C876.881 174.748 875.66 174.797 875.05 174.858C874.22 174.968 873.695 175.505 873.683 176.225ZM892.066 166.899V170.244H889.747V175.908C889.747 176.53 890.052 176.774 890.699 176.811C891.029 176.823 891.712 176.787 892.237 176.738V180.18C891.81 180.266 891.078 180.339 890.04 180.351C886.83 180.339 885.096 179.13 885.133 176.372V170.244H883.424V166.899H885.133V163.725H889.747V166.899H892.066ZM894.044 180.156V166.899H898.658V180.156H894.044ZM894.044 163.334C894.032 162.163 895.069 161.21 896.339 161.21C897.596 161.21 898.634 162.163 898.634 163.334C898.634 164.519 897.596 165.471 896.339 165.458C895.069 165.471 894.032 164.519 894.044 163.334ZM907.447 180.4C903.175 180.4 900.624 177.641 900.611 173.564C900.624 169.487 903.175 166.728 907.447 166.728C911.72 166.728 914.271 169.487 914.259 173.564C914.271 177.641 911.72 180.4 907.447 180.4ZM905.323 173.54C905.335 175.639 906.117 176.97 907.472 176.982C908.766 176.97 909.559 175.639 909.547 173.54C909.559 171.416 908.766 170.085 907.472 170.097C906.117 170.085 905.335 171.416 905.323 173.54ZM920.875 172.661V180.156H916.261V166.899H920.631V169.389H920.777C921.351 167.741 922.877 166.728 924.83 166.728C927.638 166.728 929.469 168.791 929.444 171.708V180.156H924.83V172.661C924.854 171.293 924.122 170.476 922.877 170.488C921.656 170.476 920.875 171.306 920.875 172.661ZM931.227 176.494C931.227 173.576 933.412 172.429 936.109 172.27C937.11 172.221 938.673 172.172 939.21 172.148V171.074C939.198 170.341 938.6 169.926 937.696 169.926C936.756 169.926 936.122 170.329 936.012 171.171H931.739C931.91 168.767 933.863 166.728 937.77 166.728C941.444 166.728 943.824 168.547 943.824 171.098V180.156H939.503V178.3H939.405C938.612 179.741 937.318 180.363 935.548 180.375C933.021 180.363 931.227 179.13 931.227 176.494ZM935.572 176.225C935.584 177.019 936.183 177.434 937.037 177.421C938.197 177.434 939.247 176.689 939.234 175.444V174.736C938.771 174.748 937.55 174.797 936.939 174.858C936.109 174.968 935.584 175.505 935.572 176.225ZM950.782 162.48V180.156H946.168V162.48H950.782Z" fill="black"/>
<path d="M784.333 213.255C783.12 213.264 782.145 212.289 782.153 211.076C782.145 209.88 783.12 208.905 784.333 208.914C785.528 208.905 786.504 209.88 786.495 211.076C786.504 212.289 785.528 213.264 784.333 213.255ZM799.037 216.156V203.429H807.316V205.345H801.322V208.826H806.877V210.742H801.322V214.222H807.352V216.156H799.037ZM812.959 216.332C810.718 216.323 809.021 214.53 809.021 211.392C809.021 208.21 810.762 206.488 812.977 206.488C814.655 206.488 815.358 207.499 815.701 208.175H815.789V203.429H818.021V216.156H815.824V214.644H815.701C815.341 215.347 814.611 216.323 812.959 216.332ZM811.307 211.375C811.307 213.176 812.098 214.486 813.574 214.486C815.024 214.486 815.842 213.238 815.842 211.375C815.842 209.52 815.033 208.325 813.574 208.316C812.08 208.325 811.307 209.599 811.307 211.375ZM826.389 212.148V206.611H828.621V216.156H826.459V214.468H826.354C825.914 215.532 824.912 216.279 823.488 216.279C821.599 216.279 820.298 214.978 820.289 212.693V206.611H822.539V212.341C822.539 213.554 823.26 214.328 824.35 214.328C825.334 214.328 826.389 213.607 826.389 212.148ZM834.932 216.349C832.084 216.349 830.361 214.31 830.361 211.427C830.361 208.5 832.137 206.488 834.932 206.488C837.243 206.488 838.869 207.841 839.027 209.898H836.883C836.707 208.984 836.039 208.29 834.949 208.281C833.561 208.29 832.629 209.45 832.629 211.375C832.629 213.343 833.543 214.512 834.949 214.521C835.942 214.512 836.681 213.932 836.883 212.904H839.027C838.86 214.917 837.331 216.349 834.932 216.349ZM840.275 213.466C840.275 211.322 842.06 210.698 843.826 210.583C844.494 210.531 845.856 210.469 846.278 210.452L846.27 209.687C846.27 208.738 845.663 208.193 844.547 208.193C843.545 208.193 842.93 208.65 842.754 209.335H840.592C840.75 207.709 842.209 206.488 844.6 206.488C846.41 206.488 848.502 207.235 848.502 209.775V216.156H846.357V214.837H846.287C845.865 215.646 844.978 216.349 843.475 216.349C841.655 216.349 840.275 215.356 840.275 213.466ZM842.438 213.449C842.438 214.275 843.114 214.697 844.055 214.697C845.417 214.697 846.287 213.8 846.287 212.728L846.278 211.946C845.874 211.963 844.626 212.042 844.178 212.078C843.114 212.166 842.438 212.614 842.438 213.449ZM855.375 206.611V208.333H853.494V213.291C853.494 214.205 853.951 214.389 854.514 214.398C854.777 214.407 855.217 214.38 855.498 214.363V216.191C855.234 216.235 854.804 216.288 854.232 216.279C852.545 216.288 851.244 215.453 851.262 213.66V208.333H849.891V206.611H851.262V204.326H853.494V206.611H855.375ZM857.098 216.156V206.611H859.348V216.156H857.098ZM856.939 204.027C856.939 203.359 857.528 202.814 858.24 202.814C858.952 202.814 859.541 203.359 859.541 204.027C859.541 204.704 858.952 205.249 858.24 205.257C857.528 205.249 856.939 204.704 856.939 204.027ZM865.658 216.349C862.872 216.349 861.088 214.372 861.088 211.427C861.088 208.457 862.872 206.488 865.658 206.488C868.453 206.488 870.237 208.457 870.229 211.427C870.237 214.372 868.453 216.349 865.658 216.349ZM863.355 211.41C863.355 213.159 864.12 214.556 865.676 214.556C867.205 214.556 867.97 213.159 867.961 211.41C867.97 209.661 867.205 208.254 865.676 208.263C864.12 208.254 863.355 209.661 863.355 211.41ZM874.219 210.566V216.156H871.969V206.611H874.113V208.228H874.236C874.667 207.165 875.643 206.488 877.066 206.488C879.044 206.488 880.345 207.789 880.336 210.074V216.156H878.104V210.425C878.104 209.142 877.409 208.377 876.24 208.386C875.054 208.377 874.219 209.177 874.219 210.566ZM882.041 213.466C882.041 211.322 883.825 210.698 885.592 210.583C886.26 210.531 887.622 210.469 888.044 210.452L888.035 209.687C888.035 208.738 887.429 208.193 886.312 208.193C885.311 208.193 884.695 208.65 884.52 209.335H882.357C882.516 207.709 883.975 206.488 886.365 206.488C888.176 206.488 890.268 207.235 890.268 209.775V216.156H888.123V214.837H888.053C887.631 215.646 886.743 216.349 885.24 216.349C883.421 216.349 882.041 215.356 882.041 213.466ZM884.203 213.449C884.203 214.275 884.88 214.697 885.82 214.697C887.183 214.697 888.053 213.8 888.053 212.728L888.044 211.946C887.64 211.963 886.392 212.042 885.943 212.078C884.88 212.166 884.203 212.614 884.203 213.449ZM894.627 203.429V216.156H892.377V203.429H894.627ZM904.857 216.332C902.256 216.34 900.656 214.802 900.656 212.781C900.656 211.278 901.623 210.364 903.047 209.379C902.317 208.474 901.746 207.542 901.746 206.417C901.746 204.607 903.064 203.271 905.068 203.271C907.072 203.271 908.312 204.598 908.303 206.154C908.312 207.367 907.679 208.29 906.615 209.054L905.807 209.652L908.136 212.385C908.47 211.752 908.672 211.005 908.672 210.162H910.605C910.597 211.911 910.113 213.15 909.498 213.976L911.361 216.156H908.936L908.118 215.224C907.213 215.989 905.974 216.34 904.857 216.332ZM902.854 212.675C902.854 213.686 903.671 214.495 904.928 214.503C905.604 214.503 906.299 214.257 906.896 213.827L904.251 210.786L904.049 210.935C903.188 211.568 902.854 212.236 902.854 212.675ZM903.732 206.453C903.741 207.033 904.128 207.622 904.655 208.281L905.385 207.789C906.053 207.358 906.404 206.901 906.404 206.259C906.404 205.706 905.912 205.108 905.104 205.117C904.295 205.108 903.741 205.758 903.732 206.453ZM916.846 216.156V203.429H919.131V214.222H924.756V216.156H916.846ZM930.715 216.349C927.841 216.349 926.074 214.433 926.074 211.445C926.074 208.492 927.867 206.488 930.592 206.488C932.93 206.488 934.951 207.956 934.951 211.304V212.007H928.289C928.324 213.633 929.282 214.6 930.732 214.591C931.717 214.6 932.376 214.178 932.666 213.607H934.863C934.459 215.259 932.93 216.349 930.715 216.349ZM928.298 210.478H932.807C932.798 209.177 931.919 208.228 930.627 208.228C929.282 208.228 928.377 209.265 928.298 210.478ZM936.252 213.466C936.252 211.322 938.036 210.698 939.803 210.583C940.471 210.531 941.833 210.469 942.255 210.452L942.246 209.687C942.246 208.738 941.64 208.193 940.523 208.193C939.521 208.193 938.906 208.65 938.73 209.335H936.568C936.727 207.709 938.186 206.488 940.576 206.488C942.387 206.488 944.479 207.235 944.479 209.775V216.156H942.334V214.837H942.264C941.842 215.646 940.954 216.349 939.451 216.349C937.632 216.349 936.252 215.356 936.252 213.466ZM938.414 213.449C938.414 214.275 939.091 214.697 940.031 214.697C941.394 214.697 942.264 213.8 942.264 212.728L942.255 211.946C941.851 211.963 940.603 212.042 940.154 212.078C939.091 212.166 938.414 212.614 938.414 213.449ZM946.588 216.156V206.611H948.768V208.193H948.873C949.216 207.094 950.13 206.47 951.229 206.47C951.475 206.47 951.826 206.497 952.037 206.523V208.597C951.835 208.527 951.369 208.465 951 208.457C949.752 208.465 948.838 209.327 948.838 210.531V216.156H946.588ZM955.623 210.566V216.156H953.373V206.611H955.518V208.228H955.641C956.071 207.165 957.047 206.488 958.471 206.488C960.448 206.488 961.749 207.789 961.74 210.074V216.156H959.508V210.425C959.508 209.142 958.813 208.377 957.645 208.386C956.458 208.377 955.623 209.177 955.623 210.566ZM963.885 216.156V206.611H966.135V216.156H963.885ZM963.727 204.027C963.727 203.359 964.315 202.814 965.027 202.814C965.739 202.814 966.328 203.359 966.328 204.027C966.328 204.704 965.739 205.249 965.027 205.257C964.315 205.249 963.727 204.704 963.727 204.027ZM970.529 210.566V216.156H968.279V206.611H970.424V208.228H970.547C970.978 207.165 971.953 206.488 973.377 206.488C975.354 206.488 976.655 207.789 976.646 210.074V216.156H974.414V210.425C974.414 209.142 973.72 208.377 972.551 208.386C971.364 208.377 970.529 209.177 970.529 210.566ZM982.957 219.935C980.426 219.935 978.817 218.81 978.668 217.017H980.9C981.059 217.852 981.841 218.239 982.992 218.248C984.337 218.239 985.207 217.659 985.207 216.261V214.433H985.102C984.75 215.136 983.985 216.015 982.342 216.015C980.136 216.015 978.404 214.416 978.404 211.304C978.404 208.167 980.145 206.488 982.359 206.488C984.038 206.488 984.75 207.499 985.102 208.175H985.207V206.611H987.422V216.314C987.422 218.757 985.532 219.935 982.957 219.935ZM980.689 211.339C980.689 213.097 981.48 214.257 982.957 214.257C984.407 214.257 985.225 213.167 985.225 211.339C985.225 209.52 984.416 208.325 982.957 208.316C981.463 208.325 980.689 209.599 980.689 211.339ZM803.098 243.349C800.25 243.349 798.527 241.31 798.527 238.427C798.527 235.5 800.303 233.488 803.098 233.488C805.409 233.488 807.035 234.841 807.193 236.898H805.049C804.873 235.984 804.205 235.29 803.115 235.281C801.727 235.29 800.795 236.45 800.795 238.375C800.795 240.343 801.709 241.512 803.115 241.521C804.108 241.512 804.847 240.932 805.049 239.904H807.193C807.026 241.917 805.497 243.349 803.098 243.349ZM813.047 243.349C810.261 243.349 808.477 241.372 808.477 238.427C808.477 235.457 810.261 233.488 813.047 233.488C815.842 233.488 817.626 235.457 817.617 238.427C817.626 241.372 815.842 243.349 813.047 243.349ZM810.744 238.41C810.744 240.159 811.509 241.556 813.064 241.556C814.594 241.556 815.358 240.159 815.35 238.41C815.358 236.661 814.594 235.254 813.064 235.263C811.509 235.254 810.744 236.661 810.744 238.41ZM821.607 237.566V243.156H819.357V233.611H821.502V235.228H821.625C822.056 234.165 823.031 233.488 824.455 233.488C826.433 233.488 827.733 234.789 827.725 237.074V243.156H825.492V237.425C825.492 236.142 824.798 235.377 823.629 235.386C822.442 235.377 821.607 236.177 821.607 237.566ZM834.633 233.611V235.333H832.752V240.291C832.752 241.205 833.209 241.389 833.771 241.398C834.035 241.407 834.475 241.38 834.756 241.363V243.191C834.492 243.235 834.062 243.288 833.49 243.279C831.803 243.288 830.502 242.453 830.52 240.66V235.333H829.148V233.611H830.52V231.326H832.752V233.611H834.633ZM840.486 243.349C837.612 243.349 835.846 241.433 835.846 238.445C835.846 235.492 837.639 233.488 840.363 233.488C842.701 233.488 844.723 234.956 844.723 238.304V239.007H838.061C838.096 240.633 839.054 241.6 840.504 241.591C841.488 241.6 842.147 241.178 842.438 240.607H844.635C844.23 242.259 842.701 243.349 840.486 243.349ZM838.069 237.478H842.578C842.569 236.177 841.69 235.228 840.398 235.228C839.054 235.228 838.148 236.265 838.069 237.478ZM848.713 237.566V243.156H846.463V233.611H848.607V235.228H848.73C849.161 234.165 850.137 233.488 851.561 233.488C853.538 233.488 854.839 234.789 854.83 237.074V243.156H852.598V237.425C852.598 236.142 851.903 235.377 850.734 235.386C849.548 235.377 848.713 236.177 848.713 237.566ZM861.738 233.611V235.333H859.857V240.291C859.857 241.205 860.314 241.389 860.877 241.398C861.141 241.407 861.58 241.38 861.861 241.363V243.191C861.598 243.235 861.167 243.288 860.596 243.279C858.908 243.288 857.607 242.453 857.625 240.66V235.333H856.254V233.611H857.625V231.326H859.857V233.611H861.738ZM868.734 236.335C868.594 235.615 867.996 235.149 867.047 235.158C866.089 235.149 865.386 235.632 865.395 236.283C865.386 236.775 865.781 237.144 866.748 237.373L868.365 237.707C870.167 238.102 871.046 238.937 871.055 240.308C871.046 242.101 869.473 243.349 866.977 243.349C864.551 243.349 863.118 242.259 862.881 240.431H865.166C865.298 241.249 865.931 241.653 866.977 241.644C868.058 241.653 868.761 241.213 868.77 240.501C868.761 239.948 868.33 239.596 867.381 239.394L865.852 239.06C864.076 238.7 863.153 237.768 863.162 236.406C863.153 234.639 864.683 233.488 867.012 233.488C869.288 233.488 870.694 234.604 870.861 236.335H868.734ZM784.333 267.255C783.12 267.264 782.145 266.289 782.153 265.076C782.145 263.88 783.12 262.905 784.333 262.914C785.528 262.905 786.504 263.88 786.495 265.076C786.504 266.289 785.528 267.264 784.333 267.255ZM799.037 270.156V257.429H807.316V259.345H801.322V262.826H806.877V264.742H801.322V268.222H807.352V270.156H799.037ZM815.191 262.878V264.724H809.461V262.878H815.191ZM817.494 270.156V257.429H822.363C825.123 257.429 826.485 258.835 826.494 260.734C826.485 262.281 825.51 263.142 824.262 263.441V263.564C825.615 263.634 826.986 264.759 826.986 266.693C826.986 268.67 825.554 270.156 822.645 270.156H817.494ZM819.779 268.24H822.293C823.963 268.24 824.657 267.528 824.666 266.517C824.657 265.375 823.77 264.504 822.346 264.496H819.779V268.24ZM819.779 262.843H822.082C823.286 262.843 824.2 262.149 824.209 261.015C824.2 260.04 823.497 259.328 822.135 259.328H819.779V262.843ZM832.91 270.349C830.124 270.349 828.34 268.372 828.34 265.427C828.34 262.457 830.124 260.488 832.91 260.488C835.705 260.488 837.489 262.457 837.48 265.427C837.489 268.372 835.705 270.349 832.91 270.349ZM830.607 265.41C830.607 267.159 831.372 268.556 832.928 268.556C834.457 268.556 835.222 267.159 835.213 265.41C835.222 263.661 834.457 262.254 832.928 262.263C831.372 262.254 830.607 263.661 830.607 265.41ZM843.387 270.349C840.601 270.349 838.816 268.372 838.816 265.427C838.816 262.457 840.601 260.488 843.387 260.488C846.182 260.488 847.966 262.457 847.957 265.427C847.966 268.372 846.182 270.349 843.387 270.349ZM841.084 265.41C841.084 267.159 841.849 268.556 843.404 268.556C844.934 268.556 845.698 267.159 845.689 265.41C845.698 263.661 844.934 262.254 843.404 262.263C841.849 262.254 841.084 263.661 841.084 265.41ZM849.697 270.156V257.429H851.947V264.443H852.105L855.533 260.611H858.152L854.452 264.724L858.381 270.156H855.709L852.773 266.06L851.947 266.939V270.156H849.697ZM864.902 263.335C864.762 262.615 864.164 262.149 863.215 262.158C862.257 262.149 861.554 262.632 861.562 263.283C861.554 263.775 861.949 264.144 862.916 264.373L864.533 264.707C866.335 265.102 867.214 265.937 867.223 267.308C867.214 269.101 865.641 270.349 863.145 270.349C860.719 270.349 859.286 269.259 859.049 267.431H861.334C861.466 268.249 862.099 268.653 863.145 268.644C864.226 268.653 864.929 268.213 864.938 267.501C864.929 266.948 864.498 266.596 863.549 266.394L862.02 266.06C860.244 265.7 859.321 264.768 859.33 263.406C859.321 261.639 860.851 260.488 863.18 260.488C865.456 260.488 866.862 261.604 867.029 263.335H864.902ZM871.477 268.908L870 273.83H868.33L869.244 268.908H871.477ZM879.51 270.156H877.066L881.549 257.429H884.361L888.861 270.156H886.418L885.354 267.009H880.564L879.51 270.156ZM881.18 265.164H884.739L883.008 260.031H882.902L881.18 265.164ZM896.367 266.148V260.611H898.6V270.156H896.438V268.468H896.332C895.893 269.532 894.891 270.279 893.467 270.279C891.577 270.279 890.276 268.978 890.268 266.693V260.611H892.518V266.341C892.518 267.554 893.238 268.328 894.328 268.328C895.312 268.328 896.367 267.607 896.367 266.148ZM904.295 270.332C902.054 270.323 900.357 268.53 900.357 265.392C900.357 262.21 902.098 260.488 904.312 260.488C905.991 260.488 906.694 261.499 907.037 262.175H907.125V257.429H909.357V270.156H907.16V268.644H907.037C906.677 269.347 905.947 270.323 904.295 270.332ZM902.643 265.375C902.643 267.176 903.434 268.486 904.91 268.486C906.36 268.486 907.178 267.238 907.178 265.375C907.178 263.52 906.369 262.325 904.91 262.316C903.416 262.325 902.643 263.599 902.643 265.375ZM911.625 270.156V260.611H913.875V270.156H911.625ZM911.467 258.027C911.467 257.359 912.056 256.814 912.768 256.814C913.479 256.814 914.068 257.359 914.068 258.027C914.068 258.704 913.479 259.249 912.768 259.257C912.056 259.249 911.467 258.704 911.467 258.027ZM920.186 270.349C917.399 270.349 915.615 268.372 915.615 265.427C915.615 262.457 917.399 260.488 920.186 260.488C922.98 260.488 924.765 262.457 924.756 265.427C924.765 268.372 922.98 270.349 920.186 270.349ZM917.883 265.41C917.883 267.159 918.647 268.556 920.203 268.556C921.732 268.556 922.497 267.159 922.488 265.41C922.497 263.661 921.732 262.254 920.203 262.263C918.647 262.254 917.883 263.661 917.883 265.41ZM930.873 270.156V257.429H933.123V262.175H933.211C933.554 261.499 934.248 260.488 935.936 260.488C938.142 260.488 939.882 262.21 939.891 265.392C939.882 268.53 938.194 270.323 935.953 270.332C934.301 270.323 933.562 269.347 933.211 268.644H933.07V270.156H930.873ZM933.07 265.375C933.07 267.238 933.888 268.486 935.32 268.486C936.814 268.486 937.597 267.176 937.605 265.375C937.597 263.599 936.832 262.325 935.32 262.316C933.87 262.325 933.07 263.52 933.07 265.375ZM945.814 270.349C943.028 270.349 941.244 268.372 941.244 265.427C941.244 262.457 943.028 260.488 945.814 260.488C948.609 260.488 950.394 262.457 950.385 265.427C950.394 268.372 948.609 270.349 945.814 270.349ZM943.512 265.41C943.512 267.159 944.276 268.556 945.832 268.556C947.361 268.556 948.126 267.159 948.117 265.41C948.126 263.661 947.361 262.254 945.832 262.263C944.276 262.254 943.512 263.661 943.512 265.41ZM956.291 270.349C953.505 270.349 951.721 268.372 951.721 265.427C951.721 262.457 953.505 260.488 956.291 260.488C959.086 260.488 960.87 262.457 960.861 265.427C960.87 268.372 959.086 270.349 956.291 270.349ZM953.988 265.41C953.988 267.159 954.753 268.556 956.309 268.556C957.838 268.556 958.603 267.159 958.594 265.41C958.603 263.661 957.838 262.254 956.309 262.263C954.753 262.254 953.988 263.661 953.988 265.41ZM962.602 270.156V257.429H964.852V264.443H965.01L968.438 260.611H971.057L967.356 264.724L971.285 270.156H968.613L965.678 266.06L964.852 266.939V270.156H962.602ZM977.807 263.335C977.666 262.615 977.068 262.149 976.119 262.158C975.161 262.149 974.458 262.632 974.467 263.283C974.458 263.775 974.854 264.144 975.82 264.373L977.438 264.707C979.239 265.102 980.118 265.937 980.127 267.308C980.118 269.101 978.545 270.349 976.049 270.349C973.623 270.349 972.19 269.259 971.953 267.431H974.238C974.37 268.249 975.003 268.653 976.049 268.644C977.13 268.653 977.833 268.213 977.842 267.501C977.833 266.948 977.402 266.596 976.453 266.394L974.924 266.06C973.148 265.7 972.226 264.768 972.234 263.406C972.226 261.639 973.755 260.488 976.084 260.488C978.36 260.488 979.767 261.604 979.934 263.335H977.807ZM784.333 294.255C783.12 294.264 782.145 293.289 782.153 292.076C782.145 290.88 783.12 289.905 784.333 289.914C785.528 289.905 786.504 290.88 786.495 292.076C786.504 293.289 785.528 294.264 784.333 294.255ZM801.322 284.429V297.156H799.037V284.429H801.322ZM805.84 291.566V297.156H803.59V287.611H805.734V289.228H805.857C806.288 288.165 807.264 287.488 808.688 287.488C810.665 287.488 811.966 288.789 811.957 291.074V297.156H809.725V291.425C809.725 290.142 809.03 289.377 807.861 289.386C806.675 289.377 805.84 290.177 805.84 291.566ZM818.865 287.611V289.333H816.984V294.291C816.984 295.205 817.441 295.389 818.004 295.398C818.268 295.407 818.707 295.38 818.988 295.363V297.191C818.725 297.235 818.294 297.288 817.723 297.279C816.035 297.288 814.734 296.453 814.752 294.66V289.333H813.381V287.611H814.752V285.326H816.984V287.611H818.865ZM824.719 297.349C821.845 297.349 820.078 295.433 820.078 292.445C820.078 289.492 821.871 287.488 824.596 287.488C826.934 287.488 828.955 288.956 828.955 292.304V293.007H822.293C822.328 294.633 823.286 295.6 824.736 295.591C825.721 295.6 826.38 295.178 826.67 294.607H828.867C828.463 296.259 826.934 297.349 824.719 297.349ZM822.302 291.478H826.811C826.802 290.177 825.923 289.228 824.631 289.228C823.286 289.228 822.381 290.265 822.302 291.478ZM830.695 297.156V287.611H832.875V289.193H832.98C833.323 288.094 834.237 287.47 835.336 287.47C835.582 287.47 835.934 287.497 836.145 287.523V289.597C835.942 289.527 835.477 289.465 835.107 289.457C833.859 289.465 832.945 290.327 832.945 291.531V297.156H830.695ZM836.865 294.466C836.865 292.322 838.649 291.698 840.416 291.583C841.084 291.531 842.446 291.469 842.868 291.452L842.859 290.687C842.859 289.738 842.253 289.193 841.137 289.193C840.135 289.193 839.52 289.65 839.344 290.335H837.182C837.34 288.709 838.799 287.488 841.189 287.488C843 287.488 845.092 288.235 845.092 290.775V297.156H842.947V295.837H842.877C842.455 296.646 841.567 297.349 840.064 297.349C838.245 297.349 836.865 296.356 836.865 294.466ZM839.027 294.449C839.027 295.275 839.704 295.697 840.645 295.697C842.007 295.697 842.877 294.8 842.877 293.728L842.868 292.946C842.464 292.963 841.216 293.042 840.768 293.078C839.704 293.166 839.027 293.614 839.027 294.449ZM851.367 297.349C848.52 297.349 846.797 295.31 846.797 292.427C846.797 289.5 848.572 287.488 851.367 287.488C853.679 287.488 855.305 288.841 855.463 290.898H853.318C853.143 289.984 852.475 289.29 851.385 289.281C849.996 289.29 849.064 290.45 849.064 292.375C849.064 294.343 849.979 295.512 851.385 295.521C852.378 295.512 853.116 294.932 853.318 293.904H855.463C855.296 295.917 853.767 297.349 851.367 297.349ZM861.914 287.611V289.333H860.033V294.291C860.033 295.205 860.49 295.389 861.053 295.398C861.316 295.407 861.756 295.38 862.037 295.363V297.191C861.773 297.235 861.343 297.288 860.771 297.279C859.084 297.288 857.783 296.453 857.801 294.66V289.333H856.43V287.611H857.801V285.326H860.033V287.611H861.914ZM863.637 297.156V287.611H865.887V297.156H863.637ZM863.479 285.027C863.479 284.359 864.067 283.814 864.779 283.814C865.491 283.814 866.08 284.359 866.08 285.027C866.08 285.704 865.491 286.249 864.779 286.257C864.067 286.249 863.479 285.704 863.479 285.027ZM876.557 287.611L873.146 297.156H870.686L867.275 287.611H869.666L871.863 294.712H871.969L874.184 287.611H876.557ZM881.865 297.349C878.991 297.349 877.225 295.433 877.225 292.445C877.225 289.492 879.018 287.488 881.742 287.488C884.08 287.488 886.102 288.956 886.102 292.304V293.007H879.439C879.475 294.633 880.433 295.6 881.883 295.591C882.867 295.6 883.526 295.178 883.816 294.607H886.014C885.609 296.259 884.08 297.349 881.865 297.349ZM879.448 291.478H883.957C883.948 290.177 883.069 289.228 881.777 289.228C880.433 289.228 879.527 290.265 879.448 291.478ZM896.279 297.349C893.432 297.349 891.709 295.31 891.709 292.427C891.709 289.5 893.484 287.488 896.279 287.488C898.591 287.488 900.217 288.841 900.375 290.898H898.23C898.055 289.984 897.387 289.29 896.297 289.281C894.908 289.29 893.977 290.45 893.977 292.375C893.977 294.343 894.891 295.512 896.297 295.521C897.29 295.512 898.028 294.932 898.23 293.904H900.375C900.208 295.917 898.679 297.349 896.279 297.349ZM906.229 297.349C903.442 297.349 901.658 295.372 901.658 292.427C901.658 289.457 903.442 287.488 906.229 287.488C909.023 287.488 910.808 289.457 910.799 292.427C910.808 295.372 909.023 297.349 906.229 297.349ZM903.926 292.41C903.926 294.159 904.69 295.556 906.246 295.556C907.775 295.556 908.54 294.159 908.531 292.41C908.54 290.661 907.775 289.254 906.246 289.263C904.69 289.254 903.926 290.661 903.926 292.41ZM914.789 291.566V297.156H912.539V287.611H914.684V289.228H914.807C915.237 288.165 916.213 287.488 917.637 287.488C919.614 287.488 920.915 288.789 920.906 291.074V297.156H918.674V291.425C918.674 290.142 917.979 289.377 916.811 289.386C915.624 289.377 914.789 290.177 914.789 291.566ZM927.814 287.611V289.333H925.934V294.291C925.934 295.205 926.391 295.389 926.953 295.398C927.217 295.407 927.656 295.38 927.938 295.363V297.191C927.674 297.235 927.243 297.288 926.672 297.279C924.984 297.288 923.684 296.453 923.701 294.66V289.333H922.33V287.611H923.701V285.326H925.934V287.611H927.814ZM933.668 297.349C930.794 297.349 929.027 295.433 929.027 292.445C929.027 289.492 930.82 287.488 933.545 287.488C935.883 287.488 937.904 288.956 937.904 292.304V293.007H931.242C931.277 294.633 932.235 295.6 933.686 295.591C934.67 295.6 935.329 295.178 935.619 294.607H937.816C937.412 296.259 935.883 297.349 933.668 297.349ZM931.251 291.478H935.76C935.751 290.177 934.872 289.228 933.58 289.228C932.235 289.228 931.33 290.265 931.251 291.478ZM941.895 291.566V297.156H939.645V287.611H941.789V289.228H941.912C942.343 288.165 943.318 287.488 944.742 287.488C946.72 287.488 948.021 288.789 948.012 291.074V297.156H945.779V291.425C945.779 290.142 945.085 289.377 943.916 289.386C942.729 289.377 941.895 290.177 941.895 291.566ZM954.92 287.611V289.333H953.039V294.291C953.039 295.205 953.496 295.389 954.059 295.398C954.322 295.407 954.762 295.38 955.043 295.363V297.191C954.779 297.235 954.349 297.288 953.777 297.279C952.09 297.288 950.789 296.453 950.807 294.66V289.333H949.436V287.611H950.807V285.326H953.039V287.611H954.92ZM961.916 290.335C961.775 289.615 961.178 289.149 960.229 289.158C959.271 289.149 958.567 289.632 958.576 290.283C958.567 290.775 958.963 291.144 959.93 291.373L961.547 291.707C963.349 292.102 964.228 292.937 964.236 294.308C964.228 296.101 962.654 297.349 960.158 297.349C957.732 297.349 956.3 296.259 956.062 294.431H958.348C958.479 295.249 959.112 295.653 960.158 295.644C961.239 295.653 961.942 295.213 961.951 294.501C961.942 293.948 961.512 293.596 960.562 293.394L959.033 293.06C957.258 292.7 956.335 291.768 956.344 290.406C956.335 288.639 957.864 287.488 960.193 287.488C962.47 287.488 963.876 288.604 964.043 290.335H961.916Z" fill="black"/>
<path d="M232.667 29.3442C232.667 32.2898 235.054 34.6776 238 34.6776C240.946 34.6776 243.333 32.2898 243.333 29.3442C243.333 26.3987 240.946 24.0109 238 24.0109C235.054 24.0109 232.667 26.3987 232.667 29.3442ZM580 29.3442L570 23.5707L570 35.1177L580 29.3442ZM238 30.3442L571 30.3442L571 28.3442L238 28.3442L238 30.3442Z" fill="white" fill-opacity="0.9"/>
</g>
<defs>
<clipPath id="clip0_255_2741">
<rect width="1035.72" height="386" fill="white" transform="translate(0.140625 0.155762)"/>
</clipPath>
</defs>
</svg>
