<svg width="128" height="35" viewBox="0 0 128 35" fill="none" xmlns="http://www.w3.org/2000/svg">
<path d="M29.2129 7.56204L36.6375 7.25879L33.046 33.5246H25.6611L29.2102 7.56204H29.2129Z" fill="white"/>
<path d="M39.568 13.6196H46.9529L44.232 33.5251H36.8472L39.568 13.6196ZM41.2298 10.1588C40.6139 9.49644 40.3697 8.70373 40.4971 7.77801C40.6245 6.85496 41.0838 6.06225 41.8801 5.39722C42.6765 4.73486 43.5631 4.40234 44.5426 4.40234C45.5221 4.40234 46.3105 4.73486 46.9104 5.39722C47.5103 6.06225 47.7465 6.85496 47.6218 7.77801C47.4944 8.70107 47.0405 9.49378 46.26 10.1588C45.4796 10.8238 44.5983 11.1537 43.6188 11.1537C42.6393 11.1537 41.8429 10.8212 41.2298 10.1588Z" fill="white"/>
<path d="M64.2626 32.9208C61.8258 33.7002 59.166 34.0886 56.2885 34.0886C53.0633 34.0886 50.7645 33.2746 49.3894 31.644C48.0144 30.0133 47.5631 27.4676 48.0383 24.0068C48.2719 22.3043 48.7311 20.6258 49.4186 18.9659C50.1061 17.306 50.7485 16.1888 51.3458 15.6115C52.0413 14.9492 53.3048 14.3852 55.1391 13.925C56.9733 13.4648 58.8395 13.2334 60.7401 13.2334C62.6407 13.2334 64.7032 13.4063 66.6702 13.7521C66.5136 14.473 66.3039 15.3163 66.0438 16.2845C65.781 17.2501 65.5288 18.1094 65.2819 18.8595C63.5114 18.7451 61.8364 18.6866 60.2543 18.6866C58.6722 18.6866 57.6954 18.7744 57.2388 18.9473C56.9972 19.0351 56.7079 19.6256 56.3708 20.7216C56.0336 21.8175 55.8001 22.8417 55.67 23.794C55.4974 25.0629 55.5426 26.0365 55.8107 26.7148C56.0788 27.3931 56.5831 27.8613 57.3237 28.122C58.0643 28.3827 59.0969 28.5104 60.4215 28.5104C60.9976 28.5104 62.2717 28.4518 64.244 28.3374L64.2653 32.9235L64.2626 32.9208Z" fill="white"/>
<path d="M86.8924 33.5246H78.8599L75.863 25.4326C75.5736 24.5973 75.1144 24.0626 74.4853 23.8312L73.1607 33.5246H65.7759L69.3249 7.56204L76.7496 7.25879L74.7322 22.0144C75.4622 21.7271 76.1337 21.1339 76.7443 20.2401L81.3206 13.6191L89.4009 13.5765L84.2884 20.3279C83.4787 21.3946 82.6452 22.2458 81.7799 22.8816C82.3426 23.6024 82.9425 24.6984 83.577 26.1694L86.8898 33.5246H86.8924Z" fill="white"/>
<path d="M104.704 13.3162C105.11 13.4039 105.405 13.505 105.59 13.6194C105.503 14.2552 105.288 15.3006 104.945 16.7557C104.603 18.2134 104.332 19.2429 104.133 19.8494C103.849 19.8201 103.318 19.8068 102.54 19.8068C100.727 19.8068 99.1002 19.9079 97.6615 20.1101L95.8272 33.5249H88.4424L91.1632 13.6194H97.3376L97.7623 16.8222H97.8048C98.7896 15.7262 99.801 14.8457 100.844 14.1834C101.885 13.521 102.779 13.1885 103.528 13.1885C103.902 13.1885 104.292 13.231 104.699 13.3188L104.704 13.3162Z" fill="white"/>
<path d="M25.9264 14.2258L26.6617 8.86035H13.3308L8.39078 13.3054L5.62744 33.5248H13.3998L14.7244 23.8314H22.887L23.532 19.115H15.3695L16.0384 14.2258H25.9264Z" fill="white"/>
<path d="M10.1614 6.35724C7.64231 7.11537 6.6336 8.1262 5.87706 10.6506C5.70452 11.2252 4.88693 11.2252 4.71439 10.6506C3.95786 8.1262 2.94915 7.11537 0.430029 6.35724C-0.143343 6.18433 -0.143343 5.36502 0.430029 5.19211C2.94915 4.43398 3.95786 3.42315 4.71439 0.89871C4.88693 0.324128 5.70452 0.324128 5.87706 0.89871C6.6336 3.42315 7.64231 4.43398 10.1614 5.19211C10.7348 5.36502 10.7348 6.18433 10.1614 6.35724Z" fill="white"/>
<path d="M110.056 20.6978L114.17 20.7111L102.156 33.6897H123.328L125.245 25.8477C124 26.8692 122.699 27.1299 121.982 27.1937L120.634 27.2257L115.986 27.1964L128 14.2178H107.807L105.073 22.0997C106.761 21.0037 108.407 20.759 109.286 20.7164L110.056 20.7031V20.6978Z" fill="white"/>
</svg>
