<svg width="25" height="23" viewBox="0 0 25 23" fill="none" xmlns="http://www.w3.org/2000/svg">
<path d="M24.474 9.43236C25.1753 10.6514 25.1753 12.1457 24.474 13.3647L20.1878 20.7838C19.4865 22.0028 18.1888 22.75 16.7797 22.75H8.21372C6.81118 22.75 5.5135 22.0028 4.80568 20.7838L0.525954 13.3647C-0.175318 12.1457 -0.175318 10.6514 0.525954 9.43236L4.81223 2.0133C5.5135 0.794268 6.81118 0.0471191 8.22028 0.0471191H16.7863C18.1888 0.0471191 19.4865 0.794268 20.1943 2.0133L24.4806 9.43236H24.474Z" fill="#9F72FF"/>
<path d="M9.52238 15.4756V6.93159H11.9224V15.4756H9.52238ZM11.4664 12.4396V10.4476H15.6664V12.4396H11.4664ZM11.4664 8.92359V6.93159H15.8464V8.92359H11.4664Z" fill="white"/>
</svg>
