<svg width="25" height="24" viewBox="0 0 25 24" fill="none" xmlns="http://www.w3.org/2000/svg">
<path d="M24.474 9.83788C25.1753 11.0569 25.1753 12.5512 24.474 13.7702L20.1878 21.1893C19.4865 22.4083 18.1888 23.1555 16.7797 23.1555H8.21372C6.81118 23.1555 5.5135 22.4083 4.80568 21.1893L0.525954 13.7702C-0.175318 12.5512 -0.175318 11.0569 0.525954 9.83788L4.81223 2.41882C5.5135 1.19979 6.81118 0.452637 8.22028 0.452637H16.7863C18.1888 0.452637 19.4865 1.19979 20.1943 2.41882L24.4806 9.83788H24.474Z" fill="#25D395"/>
<path d="M9.77434 15.8811V7.3371H12.1743V15.8811H9.77434ZM11.7303 15.8811V13.8411H15.7263V15.8811H11.7303Z" fill="white"/>
</svg>
