<svg width="22" height="22" viewBox="0 0 22 22" fill="none" xmlns="http://www.w3.org/2000/svg">
<path d="M16.3843 4.27246C15.7543 4.27246 15.1243 4.79746 15.1243 5.53246C15.1243 6.26746 15.6493 6.79246 16.3843 6.79246C17.1193 6.79246 17.6443 6.26746 17.6443 5.53246C17.5393 4.79746 17.0143 4.27246 16.3843 4.27246Z" fill="white" fill-opacity="0.5"/>
<path d="M10.8193 5.84766C7.98432 5.84766 5.67432 8.15766 5.67432 10.9927C5.67432 13.8277 7.98432 16.1377 10.8193 16.1377C13.6543 16.1377 15.9643 13.8277 15.9643 10.9927C16.0693 8.15766 13.7593 5.84766 10.8193 5.84766ZM10.8193 14.3527C9.03432 14.3527 7.45932 12.8827 7.45932 10.9927C7.45932 9.20766 8.92932 7.63266 10.8193 7.63266C12.6043 7.63266 14.1793 9.10266 14.1793 10.9927C14.1793 12.8827 12.7093 14.3527 10.8193 14.3527Z" fill="white" fill-opacity="0.5"/>
<path d="M15.0193 0.387695H6.61934C3.15434 0.387695 0.319336 3.2227 0.319336 6.6877V15.0877C0.319336 18.5527 3.15434 21.3877 6.61934 21.3877H15.0193C18.4843 21.3877 21.3193 18.5527 21.3193 15.0877V6.6877C21.3193 3.2227 18.4843 0.387695 15.0193 0.387695ZM19.3243 15.0877C19.3243 17.5027 17.3293 19.3927 15.0193 19.3927H6.61934C4.20434 19.3927 2.31434 17.3977 2.31434 15.0877V6.6877C2.31434 4.2727 4.30934 2.3827 6.61934 2.3827H15.0193C17.4343 2.3827 19.3243 4.3777 19.3243 6.6877V15.0877Z" fill="white" fill-opacity="0.5"/>
</svg>
