<svg width="149" height="21" viewBox="0 0 149 21" fill="none" xmlns="http://www.w3.org/2000/svg">
<g clip-path="url(#clip0_270_3950)">
<path d="M21.6532 20.6721H35.8225V16.9417H25.9479V12.3649H34.1297V8.6345H25.9479V4.40253H35.8852V0.672119H21.6532V20.6721ZM52.8758 13.274L43.5968 0.672119H37.2018L39.2081 3.2113V20.7348H43.4714V7.60002L53.0639 20.6721H57.1705V0.672119H52.8758V13.274ZM15.1956 10.39C17.0764 10.0452 18.6438 8.28967 18.6438 5.81319C18.6438 3.14861 16.7003 0.672119 12.8445 0.672119H0.430664L2.37424 3.14861V20.7035H13.2833C17.1391 20.7035 19.1454 18.2897 19.1454 15.2803C19.0514 12.8038 17.3586 10.6721 15.1956 10.39ZM6.63756 4.43387H11.9981C13.4401 4.43387 14.3492 5.28027 14.3492 6.53419C14.3492 7.78811 13.4401 8.6345 11.9981 8.6345H6.63756V4.43387ZM12.1862 16.9731H6.63756V12.3649H12.1862C13.8162 12.3649 14.7253 13.3994 14.7253 14.6533C14.7253 16.0953 13.7535 16.9417 12.1862 16.9731ZM119.804 13.274H122.029V15.6251C120.87 16.5655 119.428 17.0985 117.923 17.1298C114.349 17.1298 111.841 14.4025 111.841 10.7348C111.841 7.0671 114.381 4.33983 117.923 4.33983C119.772 4.33983 121.496 5.31162 122.5 6.87902L125.885 4.99814C124.443 2.70974 121.904 0.672119 117.891 0.672119C112.218 0.672119 107.515 4.59061 107.515 10.6721C107.515 16.7536 112.155 20.6721 117.891 20.6721C121.026 20.7348 124.004 19.3869 126.073 17.0671V9.66898H116.92L119.804 13.274ZM100.525 13.274L91.2144 0.672119H84.8507L86.8257 3.2113V20.7348H91.1203V7.60002L100.713 20.6721H104.788V0.672119H100.525V13.274ZM140.243 0.672119H131.998L133.973 3.2113L133.628 4.18309L127.233 20.7348H132.061L133.315 17.3492H141.935L143.189 20.7348H148.017L140.243 0.672119ZM134.412 13.5875L137.547 4.96679L140.681 13.5875H134.412ZM78.0796 0.672119H82.3742V20.7662H78.0796V0.672119ZM74.6626 4.1204V0.672119H59.5843V4.40253H69.0514L59.5843 17.2552V20.6721H74.8194V16.9417H65.1329L74.6626 4.1204Z" fill="white" fill-opacity="0.6"/>
</g>
<defs>
<clipPath id="clip0_270_3950">
<rect width="147.68" height="20" fill="white" transform="translate(0.430664 0.672119)"/>
</clipPath>
</defs>
</svg>
