<svg width="130" height="27" viewBox="0 0 130 27" fill="none" xmlns="http://www.w3.org/2000/svg">
<g clip-path="url(#clip0_255_2536)">
<path d="M3.53123 4.02698H6.35384C8.93219 4.02698 10.045 4.83863 10.045 6.489C10.045 7.92292 8.90505 8.8969 6.65239 8.8969H3.55838V4.02698H3.53123ZM0.138672 20.1789H7.03236C10.642 20.1789 14.2789 18.8803 14.2789 14.7408C14.2789 12.2788 12.5419 10.412 10.1535 10.1414V10.0873C12.1348 9.49212 13.4647 8.05819 13.4647 5.92084C13.4647 2.45778 10.5063 1.13208 7.60231 1.13208H0.138672V20.1789ZM3.53123 11.7918H6.78809C9.55642 11.7918 10.832 12.4952 10.832 14.4973C10.832 17.0134 8.38938 17.3111 6.65239 17.3111H3.53123V11.7918Z" fill="white" fill-opacity="0.6"/>
<path d="M16.4771 0.672119H19.7068V20.1789H16.4771V0.672119Z" fill="white" fill-opacity="0.6"/>
<path d="M25.135 13.7127C25.135 11.6836 26.5734 9.84384 28.9347 9.84384C31.323 9.84384 32.7343 11.7106 32.7343 13.7127C32.7343 15.7419 31.2959 17.5816 28.9347 17.5816C26.5734 17.6087 25.135 15.7419 25.135 13.7127ZM21.9053 13.7127C21.9053 17.771 25.0264 20.5036 28.9618 20.5036C32.87 20.5036 36.0183 17.771 36.0183 13.7127C36.0183 9.65445 32.8972 6.92188 28.9618 6.92188C25.0264 6.94893 21.9053 9.65445 21.9053 13.7127Z" fill="white" fill-opacity="0.6"/>
<path d="M40.7139 13.7127C40.7139 11.6836 42.1523 9.84384 44.5136 9.84384C46.9019 9.84384 48.3132 11.7106 48.3132 13.7127C48.3132 15.7419 46.8748 17.5816 44.5136 17.5816C42.1252 17.6087 40.7139 15.7419 40.7139 13.7127ZM37.457 13.7127C37.457 17.771 40.5782 20.5036 44.5136 20.5036C48.4218 20.5036 51.5701 17.771 51.5701 13.7127C51.5701 9.65445 48.4489 6.92188 44.5136 6.92188C40.6053 6.94893 37.457 9.65445 37.457 13.7127Z" fill="white" fill-opacity="0.6"/>
<path d="M53.5511 7.27357H56.6179V9.30271H56.6722C57.2422 8.08522 58.4906 6.94891 60.6347 6.94891C62.6431 6.94891 64.0002 7.73351 64.6787 9.35682C65.6286 7.70646 67.0127 6.94891 68.9397 6.94891C72.3866 6.94891 73.6079 9.41093 73.6079 12.4952V20.2059H70.3782V12.874C70.3782 11.2507 69.8896 9.87087 67.9627 9.87087C65.9271 9.87087 65.1672 11.5483 65.1672 13.1986V20.2059H61.9375V12.4952C61.9375 10.899 61.2861 9.84382 59.712 9.84382C57.5679 9.84382 56.7537 11.413 56.7537 13.1175V20.1789H53.5239V7.27357H53.5511Z" fill="white" fill-opacity="0.6"/>
<path d="M87.0152 13.7127C87.0152 15.7418 85.5768 17.5816 83.2156 17.5816C80.8272 17.5816 79.4159 15.7148 79.4159 13.7127C79.4159 11.6836 80.8543 9.84382 83.2156 9.84382C85.5768 9.84382 87.0152 11.7106 87.0152 13.7127ZM76.2676 20.1789H79.3345V18.2309H79.3887C80.3387 19.8001 82.0485 20.5035 83.8398 20.5035C87.8294 20.5035 90.2449 17.5545 90.2449 13.7127C90.2449 9.89793 87.6666 6.92186 83.9755 6.92186C81.5328 6.92186 80.2572 8.05817 79.5787 8.89688H79.4973V0.672119H76.2676V20.1789Z" fill="white" fill-opacity="0.6"/>
<path d="M94.9673 12.4411C95.2116 10.5743 96.4058 9.3839 98.3056 9.3839C100.341 9.3839 101.562 10.5743 101.59 12.4411H94.9673ZM104.846 14.849V13.9562C104.846 9.46505 102.377 6.92188 98.767 6.92188C94.8587 6.92188 91.7104 9.65445 91.7104 13.7127C91.7104 17.771 94.8316 20.5036 98.767 20.5036C100.83 20.5036 102.729 19.7731 104.249 17.9063L101.915 16.1477C101.101 17.1487 100.043 17.9063 98.4413 17.9063C96.6229 17.9063 95.1844 16.7429 94.9673 14.849H104.846Z" fill="white" fill-opacity="0.6"/>
<path d="M106.964 7.27357H110.194V9.32976H110.248C110.954 7.84173 112.392 6.94891 114.075 6.94891C114.482 6.94891 114.862 7.03007 115.242 7.13829V10.2496C114.699 10.1144 114.183 10.0061 113.668 10.0061C110.628 10.0061 110.194 12.5764 110.194 13.2528V20.1789H106.964V7.27357Z" fill="white" fill-opacity="0.6"/>
<path d="M122.515 9.84382C124.877 9.84382 126.342 11.413 126.342 13.6315C126.342 15.796 124.877 17.4193 122.488 17.4193C120.29 17.4193 118.688 15.7148 118.688 13.6856C118.688 11.413 120.236 9.84382 122.515 9.84382ZM126.342 7.27357V9.22154H126.288C125.338 7.65235 123.628 6.94891 121.837 6.94891C117.847 6.94891 115.432 9.92497 115.432 13.7398C115.432 17.3922 118.01 20.3683 121.891 20.3683C123.52 20.3683 125.175 19.746 126.125 18.4744H126.179V19.4213C126.179 21.9916 125.202 23.7502 122.081 23.7502C120.263 23.7502 118.933 23.0738 117.63 21.8834L115.676 24.5348C117.521 26.1581 119.693 26.6721 122.108 26.6721C127.156 26.6721 129.436 23.7231 129.436 19.0426V7.27357H126.342Z" fill="white" fill-opacity="0.6"/>
</g>
<defs>
<clipPath id="clip0_255_2536">
<rect width="129.297" height="26" fill="white" transform="translate(0.138672 0.672119)"/>
</clipPath>
</defs>
</svg>
