<svg width="25" height="24" viewBox="0 0 25 24" fill="none" xmlns="http://www.w3.org/2000/svg">
<path d="M24.474 10.1352C25.1753 11.3543 25.1753 12.8486 24.474 14.0676L20.1878 21.4867C19.4865 22.7057 18.1888 23.4528 16.7797 23.4528H8.21372C6.81118 23.4528 5.5135 22.7057 4.80568 21.4867L0.525954 14.0676C-0.175318 12.8486 -0.175318 11.3543 0.525954 10.1352L4.81223 2.71618C5.5135 1.49715 6.81118 0.75 8.22028 0.75H16.7863C18.1888 0.75 19.4865 1.49715 20.1943 2.71618L24.4806 10.1352H24.474Z" fill="#FFB800"/>
<path d="M9.3759 16.1785V7.63447H11.7759V16.1785H9.3759ZM11.3199 16.1785V14.1865H15.9039V16.1785H11.3199ZM11.3199 12.7945V10.8505H15.4599V12.7945H11.3199ZM11.3199 9.62647V7.63447H15.8319V9.62647H11.3199Z" fill="white"/>
</svg>
