<svg width="25" height="24" viewBox="0 0 25 24" fill="none" xmlns="http://www.w3.org/2000/svg">
<path d="M24.474 9.72948C25.1753 10.9485 25.1753 12.4428 24.474 13.6618L20.1878 21.0809C19.4865 22.2999 18.1888 23.0471 16.7797 23.0471H8.21372C6.81118 23.0471 5.5135 22.2999 4.80568 21.0809L0.525954 13.6618C-0.175318 12.4428 -0.175318 10.9485 0.525954 9.72948L4.81223 2.31042C5.5135 1.09139 6.81118 0.344238 8.22028 0.344238H16.7863C18.1888 0.344238 19.4865 1.09139 20.1943 2.31042L24.4806 9.72948H24.474Z" fill="#FF383E"/>
<path d="M7.96365 15.7727V7.2287H9.70365L12.8837 11.8847H12.1277L15.2957 7.2287H17.0357V15.7727H14.6597V11.1647L15.0077 11.2607L13.2677 13.7567H11.7317L10.0037 11.2607L10.3397 11.1647V15.7727H7.96365Z" fill="white"/>
</svg>
