<svg width="137" height="21" viewBox="0 0 137 21" fill="none" xmlns="http://www.w3.org/2000/svg">
<g clip-path="url(#clip0_255_2547)">
<path d="M32.3545 14.5838C32.2153 15.3723 31.8159 16.0882 31.2228 16.6122C30.6297 17.1362 29.8787 17.4366 29.0951 17.4633C28.7514 17.4741 28.4099 17.4032 28.0975 17.2561C27.7852 17.1091 27.5106 16.8899 27.2953 16.6158C27.08 16.3418 26.9299 16.0204 26.8569 15.677C26.7839 15.3336 26.79 14.9775 26.8746 14.6369C27.0083 13.8507 27.4026 13.1353 27.9913 12.611C28.5801 12.0867 29.3275 11.7853 30.108 11.7575C30.4563 11.7336 30.8052 11.7955 31.1253 11.938C31.4453 12.0805 31.7273 12.2994 31.9474 12.5763C32.1675 12.8532 32.3194 13.1801 32.3902 13.5294C32.461 13.8787 32.4488 14.2403 32.3545 14.5838ZM33.3933 9.0107L33.1596 10.1784C32.8738 9.64515 32.4369 9.21273 31.9061 8.938C31.3754 8.66327 30.7757 8.55909 30.1859 8.63915C28.584 8.70487 27.0539 9.33574 25.8559 10.4244C24.6579 11.5131 23.8661 12.9923 23.6152 14.6104C23.0439 17.8083 24.5502 20.6082 28.0173 20.6082C28.6799 20.6333 29.3394 20.5028 29.9449 20.2267C30.5505 19.9507 31.086 19.5364 31.5104 19.0158L31.3027 20.2101H34.5361L36.5748 9.0505H33.3933V9.0107ZM38.4577 9.02397H41.5093L41.3015 10.1917C41.6337 9.68041 42.0919 9.26768 42.6299 8.9951C43.168 8.72253 43.7668 8.59975 44.3661 8.63915L43.7688 11.9963C42.2365 11.9963 41.1717 12.3413 40.8211 14.0531L39.7043 20.1835H36.419L38.4577 9.02397Z" fill="white" fill-opacity="0.6"/>
<path d="M46.5605 4.64508L43.7427 20.1836H47.028L48.0019 14.7962H48.0539L50.1575 20.1836H53.8584L51.0016 13.9204L56.001 9.02399H52.1443L48.3655 13.0712H48.3136L49.8459 4.64508H46.5605Z" fill="white" fill-opacity="0.6"/>
<path d="M57.9361 13.3631C58.1722 12.793 58.5684 12.3073 59.0746 11.9672C59.5807 11.6271 60.1742 11.4479 60.7799 11.4523C61.0446 11.4206 61.3129 11.4462 61.5672 11.5276C61.8216 11.609 62.0562 11.7442 62.256 11.9245C62.4557 12.1048 62.616 12.3261 62.7264 12.574C62.8367 12.8219 62.8947 13.0907 62.8966 13.3631H57.9361ZM61.2474 8.63916C59.6194 8.72806 58.0668 9.36852 56.8346 10.4594C55.6025 11.5503 54.761 13.0295 54.443 14.6635C54.2723 15.3815 54.2665 16.1302 54.426 16.8509C54.5856 17.5716 54.9061 18.2449 55.3626 18.8179C55.819 19.391 56.3991 19.8485 57.0573 20.1544C57.7155 20.4604 58.434 20.6066 59.1568 20.5816C60.3236 20.5726 61.4635 20.2227 62.4421 19.5732C63.5661 18.8605 64.5059 17.882 65.182 16.7202H61.8448C61.5764 17.0476 61.2404 17.3102 60.861 17.4891C60.4816 17.6681 60.0681 17.7589 59.6502 17.7552C59.3664 17.789 59.0787 17.7585 58.8077 17.666C58.5367 17.5734 58.2889 17.4211 58.082 17.2197C57.875 17.0184 57.714 16.773 57.6102 16.5009C57.5065 16.2288 57.4626 15.9368 57.4816 15.6454H65.6755C65.7858 15.3635 65.8643 15.0697 65.9092 14.7696C66.5325 11.293 64.5847 8.63916 61.2474 8.63916Z" fill="white" fill-opacity="0.6"/>
<path d="M19.2651 4.64508L13.4995 13.4958H13.4476V4.64508H10.6557L0.436035 20.1836H4.39663L10.1362 11.3329H10.1882V20.1836H13.006L18.7457 11.3329H18.7976V20.1836H22.0829V4.64508H19.2651ZM74.2069 9.02399H72.1422L72.7396 5.7199H69.8698L69.636 7.04684C69.5678 7.62609 69.2874 8.15745 68.8514 8.53409C68.4154 8.91073 67.8559 9.10472 67.2856 9.07706L66.7922 11.5452H68.4154L66.8441 20.1836H70.1035L71.6748 11.5452H73.7654L74.2069 9.02399Z" fill="white" fill-opacity="0.6"/>
<path d="M127.863 4.65831H131.122L130.135 10.1917C130.473 9.67009 130.942 9.25082 131.492 8.9777C132.043 8.70458 132.655 8.58765 133.265 8.63914C133.79 8.60991 134.313 8.70765 134.794 8.92439C135.275 9.14113 135.698 9.47077 136.031 9.88646C136.732 10.9746 136.654 11.9698 136.291 13.9602L135.174 20.1968H131.914L133.005 14.1194C133.109 13.5886 133.421 11.7707 131.707 11.7707C131.13 11.7758 130.576 12.0024 130.155 12.4056C129.734 12.8087 129.477 13.3589 129.434 13.9469L128.304 20.1835H125.097L127.863 4.65831ZM114.124 9.02395H112.112L112.67 5.71987H109.8L109.514 6.99373C109.446 7.57297 109.166 8.10433 108.73 8.48097C108.294 8.85761 107.734 9.05161 107.164 9.02395L106.723 11.5451H108.333L106.774 20.1835H110.034L111.592 11.5451H113.683L114.124 9.02395ZM98.3988 17.4633C99.1937 17.4516 99.9599 17.1581 100.566 16.6328C101.173 16.1075 101.582 15.3832 101.723 14.5838C101.817 14.2403 101.83 13.8787 101.759 13.5294C101.688 13.1801 101.536 12.8532 101.316 12.5763C101.096 12.2993 100.814 12.0804 100.494 11.938C100.174 11.7955 99.8249 11.7336 99.4766 11.7575C98.6961 11.7853 97.9487 12.0866 97.3599 12.611C96.7711 13.1353 96.3768 13.8506 96.2432 14.6369C96.1585 14.9775 96.1525 15.3336 96.2255 15.677C96.2985 16.0204 96.4486 16.3418 96.6639 16.6158C96.8792 16.8899 97.1538 17.109 97.4661 17.2561C97.7785 17.4032 98.12 17.4741 98.4637 17.4633M103.97 20.1172H100.671L100.879 18.9229C100.456 19.463 99.9148 19.8943 99.2992 20.1823C98.6836 20.4703 98.0106 20.6071 97.334 20.5816C93.8668 20.5816 92.3475 17.7818 92.9319 14.5838C93.1877 12.9728 93.98 11.5014 95.1748 10.4183C96.3696 9.33513 97.8937 8.7067 99.4896 8.63914C100.074 8.57265 100.664 8.6862 101.185 8.96522C101.706 9.24424 102.133 9.67597 102.411 10.2049L102.645 9.03722H105.878L103.97 20.1172ZM97.6976 0.67749L91.3346 4.65831H93.1396L87.374 13.4957V4.65831H84.5042L78.7387 13.4957V4.65831H75.4014V20.1835H78.2452L84.0108 11.293V20.1835H86.8286L97.0742 4.65831H98.6845L97.6976 0.67749ZM124.785 15.9506C124.238 17.2834 123.328 18.428 122.163 19.2487C120.999 20.0695 119.629 20.532 118.215 20.5816C117.474 20.6236 116.734 20.4858 116.056 20.1797C115.377 19.8735 114.779 19.4076 114.311 18.8201C113.842 18.2325 113.516 17.54 113.36 16.7991C113.203 16.0583 113.22 15.2901 113.41 14.5573C113.733 12.9185 114.591 11.4404 115.844 10.3652C117.097 9.28994 118.67 8.68137 120.305 8.63914C120.935 8.59749 121.566 8.68795 122.16 8.90495C122.754 9.12195 123.299 9.46091 123.76 9.90095C124.221 10.341 124.589 10.8728 124.841 11.4636C125.093 12.0545 125.225 12.6919 125.227 13.3365H121.916C121.821 12.855 121.555 12.4266 121.168 12.1347C120.782 11.8428 120.303 11.7083 119.825 11.7575C119.062 11.7699 118.329 12.0622 117.759 12.581C117.189 13.0999 116.821 13.8107 116.721 14.5838C116.612 14.9162 116.583 15.2708 116.637 15.6172C116.691 15.9636 116.827 16.2913 117.033 16.5721C117.238 16.8528 117.508 17.0783 117.818 17.2289C118.128 17.3795 118.469 17.4509 118.812 17.4368C119.332 17.4301 119.842 17.2906 120.295 17.031C120.749 16.7714 121.132 16.4 121.409 15.9506H124.746H124.785Z" fill="white" fill-opacity="0.6"/>
</g>
<defs>
<clipPath id="clip0_255_2547">
<rect width="136.296" height="20" fill="white" transform="translate(0.436035 0.672119)"/>
</clipPath>
</defs>
</svg>
