<svg width="98" height="31" viewBox="0 0 98 31" fill="none" xmlns="http://www.w3.org/2000/svg">
<path d="M11.6293 9.62201V9.62186H16.0161V9.62331V14.945L22.2413 5.98027L13.8227 1.10486L1.45117 8.26962V22.5991L10.7141 9.62178L11.6293 9.62201Z" fill="white" fill-opacity="0.6"/>
<path d="M17.1132 21.3469L11.6335 21.2562L11.6399 21.2469H11.6291V15.8685L5.3252 24.8428L13.8225 29.7639L26.1941 22.5991V8.26965L17.1132 21.3469Z" fill="white" fill-opacity="0.6"/>
<path d="M38.8358 17.4354L34.1104 10.1021H32.2173V19.9918H33.9221V12.6579L38.6475 19.9918H40.5406V10.1021H38.8358V17.4354Z" fill="white" fill-opacity="0.6"/>
<path d="M44.078 15.6618H48.6855V14.1357H44.078V11.6282H49.0424V10.1021H42.3164V19.9918H49.1702V18.4656H44.078V15.6618Z" fill="white" fill-opacity="0.6"/>
<path d="M59.4964 17.4726L57.5453 10.1021H55.6373L53.6862 17.4726L51.3151 10.1021H49.4307L52.6526 19.9918H54.7198L56.5907 12.854L58.4616 19.9918H60.5288L63.752 10.1021H61.8662L59.4964 17.4726Z" fill="white" fill-opacity="0.6"/>
<path d="M70.2377 15.3574C69.971 15.1025 69.6264 14.8702 69.2103 14.6671C68.8052 14.4698 68.3162 14.2771 67.7605 14.0961C67.101 13.8755 66.6207 13.6386 66.3329 13.3912C66.0723 13.1677 65.9451 12.904 65.9451 12.5862C65.9451 12.2591 66.0798 12.0048 66.3576 11.8086C66.6528 11.5997 67.1405 11.4937 67.8037 11.4937C68.1655 11.4937 68.5459 11.5327 68.9349 11.6095C69.3165 11.6846 69.6758 11.8115 70.0031 11.9867L70.3489 12.1718L70.4946 10.4466L70.3303 10.3785C69.9685 10.2266 69.5597 10.1148 69.1152 10.045C68.6768 9.97572 68.2495 9.9408 67.8457 9.9408C66.6997 9.9408 65.7945 10.1742 65.1536 10.6346C64.4917 11.1107 64.1558 11.7673 64.1558 12.5862C64.1558 13.3487 64.4237 13.9849 64.951 14.4768C65.4586 14.95 66.2341 15.3452 67.2554 15.6502C68.021 15.8801 68.5545 16.135 68.8423 16.4109C69.1152 16.6717 69.2473 16.9778 69.2473 17.3457C69.2473 17.7438 69.0967 18.0418 68.7879 18.2572C68.4582 18.4854 67.9544 18.6006 67.29 18.6006C66.8318 18.6006 66.3761 18.5389 65.9353 18.4144C65.5006 18.2945 65.0931 18.1094 64.7251 17.8649L64.3657 17.6251L64.199 19.4295L64.3435 19.5051C65.1758 19.9347 66.1341 20.1535 67.1899 20.1535C68.3915 20.1535 69.3387 19.9056 70.0055 19.4178C70.6909 18.9138 71.0379 18.1943 71.0379 17.2794C71.0379 16.8917 70.9713 16.5367 70.8416 16.2247C70.7107 15.908 70.5082 15.617 70.2377 15.3574Z" fill="white" fill-opacity="0.6"/>
<path d="M78.5523 14.7207C78.7906 14.5519 78.9919 14.3464 79.1549 14.1066C79.4093 13.7323 79.539 13.3022 79.539 12.8284C79.539 12.4367 79.4562 12.07 79.2932 11.74C79.1314 11.4093 78.8931 11.1166 78.5856 10.8709C78.2806 10.6282 77.9039 10.4367 77.4655 10.3017C77.0333 10.1696 76.5369 10.1021 75.9898 10.1021H72.3135V19.9918H76.1899C77.384 19.9918 78.3287 19.7345 78.9956 19.2258C79.6773 18.7054 80.0231 17.9732 80.0231 17.05C80.0231 16.4633 79.8551 15.9465 79.5266 15.5134C79.2833 15.1927 78.9573 14.9273 78.5523 14.7207ZM77.3062 13.7475C76.9728 13.9873 76.4727 14.1089 75.8194 14.1089H74.0757V11.6282H75.8194C76.4801 11.6282 76.9864 11.7306 77.3235 11.9332C77.6286 12.1171 77.7767 12.4099 77.7767 12.8284C77.7767 13.2195 77.6224 13.5199 77.3062 13.7475ZM74.0757 15.6351H76.0046C76.8086 15.6351 77.3976 15.7637 77.757 16.0175C78.0966 16.2585 78.2621 16.596 78.2621 17.05C78.2621 17.5122 78.0978 17.8521 77.7582 18.0884C77.4001 18.3387 76.8098 18.4656 76.0046 18.4656H74.0757V15.6351Z" fill="white" fill-opacity="0.6"/>
<path d="M80.231 11.6282H83.3405V19.9918H85.1015V11.6282H88.211V10.1021H80.231V11.6282Z" fill="white" fill-opacity="0.6"/>
<path d="M96.3475 17.9184L96.003 18.1082C95.7016 18.2758 95.3756 18.4004 95.0373 18.4796C94.6902 18.5599 94.3432 18.6006 94.0061 18.6006C93.422 18.6006 92.8934 18.5156 92.4353 18.348C91.9833 18.1827 91.5931 17.9429 91.2782 17.6367C90.962 17.3306 90.7138 16.9569 90.5422 16.5227C90.3668 16.0873 90.2791 15.5902 90.2791 15.0466C90.2791 14.5291 90.3631 14.0478 90.5286 13.6141C90.6916 13.1858 90.9299 12.8109 91.2387 12.4995C91.5437 12.1904 91.9302 11.9431 92.3847 11.7638C92.8404 11.5845 93.3677 11.4937 93.9493 11.4937C94.3185 11.4937 94.6754 11.5321 95.0101 11.6078C95.341 11.6829 95.6572 11.8005 95.9486 11.9588L96.2907 12.1445L96.4574 10.4163L96.2845 10.3494C95.5917 10.0782 94.7816 9.9408 93.8777 9.9408C93.0676 9.9408 92.3229 10.0688 91.6647 10.3215C91.0028 10.5747 90.4298 10.932 89.9605 11.3837C89.4913 11.8348 89.1245 12.3802 88.8701 13.0053C88.6182 13.6264 88.4897 14.3132 88.4897 15.0466C88.4897 15.7986 88.6182 16.4947 88.8701 17.1164C89.1257 17.7415 89.495 18.2851 89.9692 18.7322C90.4421 19.1792 91.0201 19.5319 91.6882 19.781C92.355 20.0278 93.1108 20.1535 93.9345 20.1535C94.3445 20.1535 94.7569 20.1233 95.1595 20.0627C95.572 19.9999 95.9721 19.8881 96.35 19.7286L96.5142 19.6588L96.3475 17.9184Z" fill="white" fill-opacity="0.6"/>
</svg>
