<svg xmlns="http://www.w3.org/2000/svg" xmlns:xlink="http://www.w3.org/1999/xlink" width="500" zoomAndPan="magnify" viewBox="0 0 375 374.999991" height="500" preserveAspectRatio="xMidYMid meet" version="1.0"><defs><g/><clipPath id="bdeef1e5a5"><path d="M 183 305 L 188 305 L 188 311.890625 L 183 311.890625 Z M 183 305 " clip-rule="nonzero"/></clipPath><clipPath id="50dbc65213"><path d="M 188 305 L 194 305 L 194 311.890625 L 188 311.890625 Z M 188 305 " clip-rule="nonzero"/></clipPath><clipPath id="50a16cea43"><path d="M 194 305 L 202 305 L 202 311.890625 L 194 311.890625 Z M 194 305 " clip-rule="nonzero"/></clipPath></defs><path fill="#EE312F" d="M 192.683594 58.847656 C 194.410156 58.847656 196.136719 58.882812 197.863281 58.960938 C 199.589844 59.035156 201.3125 59.152344 203.03125 59.304688 C 204.753906 59.457031 206.46875 59.644531 208.179688 59.875 C 209.894531 60.101562 211.597656 60.367188 213.300781 60.671875 C 215 60.976562 216.691406 61.316406 218.378906 61.695312 C 220.0625 62.074219 221.738281 62.488281 223.40625 62.941406 C 225.070312 63.394531 226.726562 63.882812 228.375 64.410156 C 230.019531 64.933594 231.652344 65.496094 233.273438 66.09375 C 234.890625 66.691406 236.5 67.324219 238.089844 67.992188 C 239.683594 68.664062 241.261719 69.367188 242.820312 70.105469 C 244.382812 70.84375 245.925781 71.617188 247.453125 72.421875 C 248.980469 73.230469 250.488281 74.070312 251.980469 74.941406 C 253.46875 75.816406 254.941406 76.722656 256.390625 77.660156 C 257.839844 78.597656 259.269531 79.566406 260.675781 80.570312 C 262.082031 81.570312 263.46875 82.601562 264.828125 83.664062 C 266.191406 84.726562 267.527344 85.820312 268.839844 86.941406 C 270.15625 88.0625 271.441406 89.214844 272.707031 90.390625 C 273.96875 91.570312 275.203125 92.777344 276.414062 94.007812 C 277.621094 95.242188 278.804688 96.503906 279.957031 97.789062 C 281.109375 99.074219 282.234375 100.382812 283.332031 101.71875 C 284.425781 103.054688 285.492188 104.414062 286.527344 105.792969 C 287.5625 107.175781 288.570312 108.582031 289.542969 110.007812 C 290.515625 111.433594 291.457031 112.882812 292.367188 114.351562 C 293.277344 115.816406 294.152344 117.304688 294.996094 118.8125 C 295.839844 120.320312 296.652344 121.84375 297.429688 123.386719 C 298.203125 124.929688 298.945312 126.488281 299.652344 128.0625 C 300.363281 129.640625 301.035156 131.230469 301.671875 132.835938 C 302.308594 134.441406 302.910156 136.058594 303.476562 137.691406 C 304.042969 139.324219 304.570312 140.964844 305.066406 142.621094 C 305.558594 144.277344 306.015625 145.941406 306.433594 147.617188 C 306.855469 149.292969 307.238281 150.976562 307.582031 152.667969 C 307.925781 154.359375 308.234375 156.058594 308.503906 157.765625 C 308.777344 159.472656 309.007812 161.183594 309.203125 162.898438 C 309.398438 164.617188 309.554688 166.335938 309.671875 168.058594 C 309.789062 169.78125 309.871094 171.503906 309.914062 173.234375 C 309.957031 174.960938 309.960938 176.6875 309.925781 178.414062 C 309.890625 180.140625 309.820312 181.863281 309.710938 183.589844 C 309.601562 185.3125 309.453125 187.03125 309.265625 188.75 C 309.078125 190.464844 308.855469 192.179688 308.59375 193.886719 C 308.332031 195.59375 308.03125 197.292969 307.695312 198.988281 C 307.359375 200.679688 306.984375 202.367188 306.574219 204.042969 C 306.160156 205.722656 305.714844 207.390625 305.226562 209.046875 C 304.742188 210.703125 304.222656 212.351562 303.664062 213.984375 C 303.105469 215.621094 302.511719 217.242188 301.882812 218.851562 C 301.253906 220.457031 300.589844 222.050781 299.890625 223.628906 C 299.1875 225.210938 298.453125 226.773438 297.683594 228.320312 C 296.917969 229.867188 296.113281 231.394531 295.277344 232.90625 C 294.441406 234.417969 293.570312 235.90625 292.667969 237.378906 C 291.765625 238.851562 290.832031 240.304688 289.867188 241.738281 C 288.898438 243.167969 287.902344 244.578125 286.871094 245.964844 C 285.84375 247.351562 284.785156 248.714844 283.695312 250.054688 C 282.605469 251.398438 281.488281 252.710938 280.339844 254.003906 C 279.195312 255.292969 278.019531 256.558594 276.816406 257.796875 C 275.613281 259.039062 274.382812 260.25 273.125 261.433594 C 271.867188 262.621094 270.585938 263.777344 269.277344 264.902344 C 267.96875 266.03125 266.636719 267.128906 265.28125 268.199219 C 263.925781 269.269531 262.546875 270.308594 261.144531 271.316406 C 259.742188 272.324219 258.316406 273.300781 256.871094 274.246094 C 255.425781 275.191406 253.960938 276.105469 252.476562 276.984375 C 250.988281 277.867188 249.484375 278.714844 247.960938 279.527344 C 246.4375 280.34375 244.898438 281.121094 243.339844 281.867188 C 241.785156 282.613281 240.210938 283.328125 238.621094 284.003906 C 237.03125 284.679688 235.429688 285.320312 233.8125 285.925781 C 232.195312 286.53125 230.5625 287.101562 228.921875 287.636719 L 192.683594 176.109375 Z M 192.683594 58.847656 " fill-opacity="1" fill-rule="nonzero"/><path fill="#F16C6B" d="M 228.921875 287.636719 C 223.070312 289.535156 217.105469 290.96875 211.027344 291.929688 C 204.953125 292.894531 198.835938 293.375 192.683594 293.375 C 186.53125 293.375 180.417969 292.894531 174.339844 291.929688 C 168.261719 290.96875 162.300781 289.535156 156.449219 287.636719 L 192.683594 176.109375 Z M 228.921875 287.636719 " fill-opacity="1" fill-rule="nonzero"/><path fill="#F19392" d="M 156.449219 287.636719 C 150.597656 285.734375 144.929688 283.386719 139.449219 280.59375 C 133.964844 277.800781 128.734375 274.59375 123.757812 270.980469 C 118.78125 267.363281 114.117188 263.378906 109.765625 259.027344 C 105.414062 254.679688 101.433594 250.015625 97.816406 245.035156 L 192.683594 176.109375 Z M 156.449219 287.636719 " fill-opacity="1" fill-rule="nonzero"/><path fill="#F2BAB9" d="M 97.816406 245.035156 C 95.105469 241.308594 92.625 237.429688 90.371094 233.410156 C 88.117188 229.386719 86.109375 225.246094 84.347656 220.984375 C 82.582031 216.726562 81.074219 212.378906 79.824219 207.941406 C 78.570312 203.503906 77.585938 199.007812 76.863281 194.453125 C 76.140625 189.902344 75.691406 185.320312 75.511719 180.714844 C 75.328125 176.105469 75.417969 171.507812 75.78125 166.910156 C 76.144531 162.3125 76.773438 157.753906 77.671875 153.234375 C 78.574219 148.710938 79.734375 144.257812 81.160156 139.875 L 192.683594 176.109375 Z M 97.816406 245.035156 " fill-opacity="1" fill-rule="nonzero"/><path fill="#FCD9D8" d="M 81.160156 139.875 C 82.582031 135.488281 84.261719 131.203125 86.191406 127.015625 C 88.121094 122.828125 90.292969 118.769531 92.699219 114.839844 C 95.109375 110.910156 97.742188 107.132812 100.59375 103.511719 C 103.449219 99.890625 106.507812 96.453125 109.765625 93.191406 C 113.027344 89.933594 116.464844 86.875 120.085938 84.019531 C 123.707031 81.167969 127.484375 78.535156 131.414062 76.125 C 135.34375 73.71875 139.402344 71.546875 143.589844 69.617188 C 147.777344 67.6875 152.0625 66.007812 156.449219 64.585938 L 192.683594 176.109375 Z M 81.160156 139.875 " fill-opacity="1" fill-rule="nonzero"/><path fill="#000" d="M 156.449219 64.585938 C 168.21875 60.761719 180.292969 58.847656 192.671875 58.847656 L 192.683594 176.109375 Z M 156.449219 64.585938 " fill-opacity="1" fill-rule="nonzero"/><g fill="#ffffff" fill-opacity="1"><g transform="translate(314.346399, 163.455458)"><g><path d="M 4.125 0 L 3.390625 0 L 3.390625 -1.578125 L 0.296875 -1.578125 L 0.296875 -2.203125 L 3.21875 -6.609375 L 4.125 -6.609375 L 4.125 -2.203125 L 5.28125 -2.203125 L 5.28125 -1.578125 L 4.125 -1.578125 Z M 1.21875 -2.296875 L 1.25 -2.203125 L 3.390625 -2.203125 L 3.390625 -5.53125 L 3.296875 -5.546875 Z M 1.21875 -2.296875 "/></g></g></g><g fill="#ffffff" fill-opacity="1"><g transform="translate(319.94497, 163.455458)"><g><path d="M 2.71875 0.09375 C 2.101562 0.09375 1.609375 -0.0390625 1.234375 -0.3125 C 0.867188 -0.59375 0.628906 -0.984375 0.515625 -1.484375 L 1.09375 -1.75 L 1.203125 -1.71875 C 1.273438 -1.46875 1.367188 -1.257812 1.484375 -1.09375 C 1.609375 -0.9375 1.769531 -0.816406 1.96875 -0.734375 C 2.164062 -0.648438 2.414062 -0.609375 2.71875 -0.609375 C 3.164062 -0.609375 3.507812 -0.738281 3.75 -1 C 4 -1.269531 4.125 -1.660156 4.125 -2.171875 C 4.125 -2.679688 4.003906 -3.070312 3.765625 -3.34375 C 3.523438 -3.613281 3.1875 -3.75 2.75 -3.75 C 2.425781 -3.75 2.160156 -3.679688 1.953125 -3.546875 C 1.753906 -3.421875 1.570312 -3.21875 1.40625 -2.9375 L 0.796875 -3 L 0.921875 -6.609375 L 4.609375 -6.609375 L 4.609375 -5.9375 L 1.59375 -5.9375 L 1.515625 -3.75 L 1.609375 -3.734375 C 1.765625 -3.960938 1.953125 -4.132812 2.171875 -4.25 C 2.398438 -4.363281 2.671875 -4.421875 2.984375 -4.421875 C 3.378906 -4.421875 3.722656 -4.332031 4.015625 -4.15625 C 4.316406 -3.976562 4.546875 -3.71875 4.703125 -3.375 C 4.867188 -3.039062 4.953125 -2.640625 4.953125 -2.171875 C 4.953125 -1.703125 4.859375 -1.296875 4.671875 -0.953125 C 4.484375 -0.609375 4.222656 -0.347656 3.890625 -0.171875 C 3.554688 0.00390625 3.164062 0.09375 2.71875 0.09375 Z M 2.71875 0.09375 "/></g></g></g><g fill="#ffffff" fill-opacity="1"><g transform="translate(325.240751, 163.455458)"><g><path d="M 1.875 -3.015625 C 1.582031 -3.015625 1.320312 -3.082031 1.09375 -3.21875 C 0.875 -3.351562 0.695312 -3.554688 0.5625 -3.828125 C 0.4375 -4.097656 0.375 -4.441406 0.375 -4.859375 C 0.375 -5.472656 0.507812 -5.929688 0.78125 -6.234375 C 1.050781 -6.546875 1.414062 -6.703125 1.875 -6.703125 C 2.175781 -6.703125 2.4375 -6.632812 2.65625 -6.5 C 2.875 -6.375 3.046875 -6.171875 3.171875 -5.890625 C 3.304688 -5.617188 3.375 -5.273438 3.375 -4.859375 C 3.375 -4.441406 3.304688 -4.097656 3.171875 -3.828125 C 3.046875 -3.554688 2.875 -3.351562 2.65625 -3.21875 C 2.4375 -3.082031 2.175781 -3.015625 1.875 -3.015625 Z M 2.03125 0 L 1.375 0 L 1.34375 -0.09375 L 5.765625 -6.609375 L 6.421875 -6.609375 L 6.4375 -6.515625 Z M 1.875 -3.59375 C 2.15625 -3.59375 2.363281 -3.6875 2.5 -3.875 C 2.632812 -4.070312 2.703125 -4.398438 2.703125 -4.859375 C 2.703125 -5.316406 2.632812 -5.644531 2.5 -5.84375 C 2.363281 -6.039062 2.15625 -6.140625 1.875 -6.140625 C 1.6875 -6.140625 1.53125 -6.097656 1.40625 -6.015625 C 1.28125 -5.929688 1.1875 -5.796875 1.125 -5.609375 C 1.0625 -5.421875 1.03125 -5.171875 1.03125 -4.859375 C 1.03125 -4.546875 1.0625 -4.296875 1.125 -4.109375 C 1.1875 -3.921875 1.28125 -3.785156 1.40625 -3.703125 C 1.53125 -3.628906 1.6875 -3.59375 1.875 -3.59375 Z M 5.9375 0.09375 C 5.476562 0.09375 5.113281 -0.0546875 4.84375 -0.359375 C 4.570312 -0.671875 4.4375 -1.132812 4.4375 -1.75 C 4.4375 -2.363281 4.570312 -2.820312 4.84375 -3.125 C 5.113281 -3.4375 5.476562 -3.59375 5.9375 -3.59375 C 6.226562 -3.59375 6.484375 -3.523438 6.703125 -3.390625 C 6.929688 -3.253906 7.109375 -3.046875 7.234375 -2.765625 C 7.359375 -2.492188 7.421875 -2.15625 7.421875 -1.75 C 7.421875 -1.332031 7.359375 -0.984375 7.234375 -0.703125 C 7.109375 -0.429688 6.929688 -0.226562 6.703125 -0.09375 C 6.484375 0.03125 6.226562 0.09375 5.9375 0.09375 Z M 5.9375 -0.46875 C 6.21875 -0.46875 6.425781 -0.5625 6.5625 -0.75 C 6.695312 -0.945312 6.765625 -1.28125 6.765625 -1.75 C 6.765625 -2.207031 6.695312 -2.53125 6.5625 -2.71875 C 6.425781 -2.914062 6.21875 -3.015625 5.9375 -3.015625 C 5.644531 -3.015625 5.429688 -2.914062 5.296875 -2.71875 C 5.160156 -2.53125 5.09375 -2.207031 5.09375 -1.75 C 5.09375 -1.28125 5.160156 -0.945312 5.296875 -0.75 C 5.429688 -0.5625 5.644531 -0.46875 5.9375 -0.46875 Z M 5.9375 -0.46875 "/></g></g></g><g fill="#ffffff" fill-opacity="1"><g transform="translate(52.973482, 204.898706)"><g><path d="M 0.46875 0 L 0.46875 -0.640625 L 2.265625 -0.640625 L 2.265625 -5.6875 L 2.171875 -5.71875 C 1.878906 -5.570312 1.625 -5.457031 1.40625 -5.375 C 1.1875 -5.300781 0.90625 -5.226562 0.5625 -5.15625 L 0.5625 -5.875 C 0.894531 -5.945312 1.226562 -6.046875 1.5625 -6.171875 C 1.894531 -6.296875 2.195312 -6.441406 2.46875 -6.609375 L 3.03125 -6.609375 L 3.03125 -0.640625 L 4.640625 -0.640625 L 4.640625 0 Z M 0.46875 0 "/></g></g></g><g fill="#ffffff" fill-opacity="1"><g transform="translate(57.898774, 204.898706)"><g><path d="M 2.71875 0.09375 C 2.101562 0.09375 1.609375 -0.0390625 1.234375 -0.3125 C 0.867188 -0.59375 0.628906 -0.984375 0.515625 -1.484375 L 1.09375 -1.75 L 1.203125 -1.71875 C 1.273438 -1.46875 1.367188 -1.257812 1.484375 -1.09375 C 1.609375 -0.9375 1.769531 -0.816406 1.96875 -0.734375 C 2.164062 -0.648438 2.414062 -0.609375 2.71875 -0.609375 C 3.164062 -0.609375 3.507812 -0.738281 3.75 -1 C 4 -1.269531 4.125 -1.660156 4.125 -2.171875 C 4.125 -2.679688 4.003906 -3.070312 3.765625 -3.34375 C 3.523438 -3.613281 3.1875 -3.75 2.75 -3.75 C 2.425781 -3.75 2.160156 -3.679688 1.953125 -3.546875 C 1.753906 -3.421875 1.570312 -3.21875 1.40625 -2.9375 L 0.796875 -3 L 0.921875 -6.609375 L 4.609375 -6.609375 L 4.609375 -5.9375 L 1.59375 -5.9375 L 1.515625 -3.75 L 1.609375 -3.734375 C 1.765625 -3.960938 1.953125 -4.132812 2.171875 -4.25 C 2.398438 -4.363281 2.671875 -4.421875 2.984375 -4.421875 C 3.378906 -4.421875 3.722656 -4.332031 4.015625 -4.15625 C 4.316406 -3.976562 4.546875 -3.71875 4.703125 -3.375 C 4.867188 -3.039062 4.953125 -2.640625 4.953125 -2.171875 C 4.953125 -1.703125 4.859375 -1.296875 4.671875 -0.953125 C 4.484375 -0.609375 4.222656 -0.347656 3.890625 -0.171875 C 3.554688 0.00390625 3.164062 0.09375 2.71875 0.09375 Z M 2.71875 0.09375 "/></g></g></g><g fill="#ffffff" fill-opacity="1"><g transform="translate(63.194555, 204.898706)"><g><path d="M 1.875 -3.015625 C 1.582031 -3.015625 1.320312 -3.082031 1.09375 -3.21875 C 0.875 -3.351562 0.695312 -3.554688 0.5625 -3.828125 C 0.4375 -4.097656 0.375 -4.441406 0.375 -4.859375 C 0.375 -5.472656 0.507812 -5.929688 0.78125 -6.234375 C 1.050781 -6.546875 1.414062 -6.703125 1.875 -6.703125 C 2.175781 -6.703125 2.4375 -6.632812 2.65625 -6.5 C 2.875 -6.375 3.046875 -6.171875 3.171875 -5.890625 C 3.304688 -5.617188 3.375 -5.273438 3.375 -4.859375 C 3.375 -4.441406 3.304688 -4.097656 3.171875 -3.828125 C 3.046875 -3.554688 2.875 -3.351562 2.65625 -3.21875 C 2.4375 -3.082031 2.175781 -3.015625 1.875 -3.015625 Z M 2.03125 0 L 1.375 0 L 1.34375 -0.09375 L 5.765625 -6.609375 L 6.421875 -6.609375 L 6.4375 -6.515625 Z M 1.875 -3.59375 C 2.15625 -3.59375 2.363281 -3.6875 2.5 -3.875 C 2.632812 -4.070312 2.703125 -4.398438 2.703125 -4.859375 C 2.703125 -5.316406 2.632812 -5.644531 2.5 -5.84375 C 2.363281 -6.039062 2.15625 -6.140625 1.875 -6.140625 C 1.6875 -6.140625 1.53125 -6.097656 1.40625 -6.015625 C 1.28125 -5.929688 1.1875 -5.796875 1.125 -5.609375 C 1.0625 -5.421875 1.03125 -5.171875 1.03125 -4.859375 C 1.03125 -4.546875 1.0625 -4.296875 1.125 -4.109375 C 1.1875 -3.921875 1.28125 -3.785156 1.40625 -3.703125 C 1.53125 -3.628906 1.6875 -3.59375 1.875 -3.59375 Z M 5.9375 0.09375 C 5.476562 0.09375 5.113281 -0.0546875 4.84375 -0.359375 C 4.570312 -0.671875 4.4375 -1.132812 4.4375 -1.75 C 4.4375 -2.363281 4.570312 -2.820312 4.84375 -3.125 C 5.113281 -3.4375 5.476562 -3.59375 5.9375 -3.59375 C 6.226562 -3.59375 6.484375 -3.523438 6.703125 -3.390625 C 6.929688 -3.253906 7.109375 -3.046875 7.234375 -2.765625 C 7.359375 -2.492188 7.421875 -2.15625 7.421875 -1.75 C 7.421875 -1.332031 7.359375 -0.984375 7.234375 -0.703125 C 7.109375 -0.429688 6.929688 -0.226562 6.703125 -0.09375 C 6.484375 0.03125 6.226562 0.09375 5.9375 0.09375 Z M 5.9375 -0.46875 C 6.21875 -0.46875 6.425781 -0.5625 6.5625 -0.75 C 6.695312 -0.945312 6.765625 -1.28125 6.765625 -1.75 C 6.765625 -2.207031 6.695312 -2.53125 6.5625 -2.71875 C 6.425781 -2.914062 6.21875 -3.015625 5.9375 -3.015625 C 5.644531 -3.015625 5.429688 -2.914062 5.296875 -2.71875 C 5.160156 -2.53125 5.09375 -2.207031 5.09375 -1.75 C 5.09375 -1.28125 5.160156 -0.945312 5.296875 -0.75 C 5.429688 -0.5625 5.644531 -0.46875 5.9375 -0.46875 Z M 5.9375 -0.46875 "/></g></g></g><g fill="#ffffff" fill-opacity="1"><g transform="translate(88.53396, 89.070644)"><g><path d="M 0.46875 0 L 0.46875 -0.640625 L 2.265625 -0.640625 L 2.265625 -5.6875 L 2.171875 -5.71875 C 1.878906 -5.570312 1.625 -5.457031 1.40625 -5.375 C 1.1875 -5.300781 0.90625 -5.226562 0.5625 -5.15625 L 0.5625 -5.875 C 0.894531 -5.945312 1.226562 -6.046875 1.5625 -6.171875 C 1.894531 -6.296875 2.195312 -6.441406 2.46875 -6.609375 L 3.03125 -6.609375 L 3.03125 -0.640625 L 4.640625 -0.640625 L 4.640625 0 Z M 0.46875 0 "/></g></g></g><g fill="#ffffff" fill-opacity="1"><g transform="translate(93.459253, 89.070644)"><g><path d="M 2.71875 0.09375 C 2.101562 0.09375 1.609375 -0.0390625 1.234375 -0.3125 C 0.867188 -0.59375 0.628906 -0.984375 0.515625 -1.484375 L 1.09375 -1.75 L 1.203125 -1.71875 C 1.273438 -1.46875 1.367188 -1.257812 1.484375 -1.09375 C 1.609375 -0.9375 1.769531 -0.816406 1.96875 -0.734375 C 2.164062 -0.648438 2.414062 -0.609375 2.71875 -0.609375 C 3.164062 -0.609375 3.507812 -0.738281 3.75 -1 C 4 -1.269531 4.125 -1.660156 4.125 -2.171875 C 4.125 -2.679688 4.003906 -3.070312 3.765625 -3.34375 C 3.523438 -3.613281 3.1875 -3.75 2.75 -3.75 C 2.425781 -3.75 2.160156 -3.679688 1.953125 -3.546875 C 1.753906 -3.421875 1.570312 -3.21875 1.40625 -2.9375 L 0.796875 -3 L 0.921875 -6.609375 L 4.609375 -6.609375 L 4.609375 -5.9375 L 1.59375 -5.9375 L 1.515625 -3.75 L 1.609375 -3.734375 C 1.765625 -3.960938 1.953125 -4.132812 2.171875 -4.25 C 2.398438 -4.363281 2.671875 -4.421875 2.984375 -4.421875 C 3.378906 -4.421875 3.722656 -4.332031 4.015625 -4.15625 C 4.316406 -3.976562 4.546875 -3.71875 4.703125 -3.375 C 4.867188 -3.039062 4.953125 -2.640625 4.953125 -2.171875 C 4.953125 -1.703125 4.859375 -1.296875 4.671875 -0.953125 C 4.484375 -0.609375 4.222656 -0.347656 3.890625 -0.171875 C 3.554688 0.00390625 3.164062 0.09375 2.71875 0.09375 Z M 2.71875 0.09375 "/></g></g></g><g fill="#ffffff" fill-opacity="1"><g transform="translate(98.755034, 89.070644)"><g><path d="M 1.875 -3.015625 C 1.582031 -3.015625 1.320312 -3.082031 1.09375 -3.21875 C 0.875 -3.351562 0.695312 -3.554688 0.5625 -3.828125 C 0.4375 -4.097656 0.375 -4.441406 0.375 -4.859375 C 0.375 -5.472656 0.507812 -5.929688 0.78125 -6.234375 C 1.050781 -6.546875 1.414062 -6.703125 1.875 -6.703125 C 2.175781 -6.703125 2.4375 -6.632812 2.65625 -6.5 C 2.875 -6.375 3.046875 -6.171875 3.171875 -5.890625 C 3.304688 -5.617188 3.375 -5.273438 3.375 -4.859375 C 3.375 -4.441406 3.304688 -4.097656 3.171875 -3.828125 C 3.046875 -3.554688 2.875 -3.351562 2.65625 -3.21875 C 2.4375 -3.082031 2.175781 -3.015625 1.875 -3.015625 Z M 2.03125 0 L 1.375 0 L 1.34375 -0.09375 L 5.765625 -6.609375 L 6.421875 -6.609375 L 6.4375 -6.515625 Z M 1.875 -3.59375 C 2.15625 -3.59375 2.363281 -3.6875 2.5 -3.875 C 2.632812 -4.070312 2.703125 -4.398438 2.703125 -4.859375 C 2.703125 -5.316406 2.632812 -5.644531 2.5 -5.84375 C 2.363281 -6.039062 2.15625 -6.140625 1.875 -6.140625 C 1.6875 -6.140625 1.53125 -6.097656 1.40625 -6.015625 C 1.28125 -5.929688 1.1875 -5.796875 1.125 -5.609375 C 1.0625 -5.421875 1.03125 -5.171875 1.03125 -4.859375 C 1.03125 -4.546875 1.0625 -4.296875 1.125 -4.109375 C 1.1875 -3.921875 1.28125 -3.785156 1.40625 -3.703125 C 1.53125 -3.628906 1.6875 -3.59375 1.875 -3.59375 Z M 5.9375 0.09375 C 5.476562 0.09375 5.113281 -0.0546875 4.84375 -0.359375 C 4.570312 -0.671875 4.4375 -1.132812 4.4375 -1.75 C 4.4375 -2.363281 4.570312 -2.820312 4.84375 -3.125 C 5.113281 -3.4375 5.476562 -3.59375 5.9375 -3.59375 C 6.226562 -3.59375 6.484375 -3.523438 6.703125 -3.390625 C 6.929688 -3.253906 7.109375 -3.046875 7.234375 -2.765625 C 7.359375 -2.492188 7.421875 -2.15625 7.421875 -1.75 C 7.421875 -1.332031 7.359375 -0.984375 7.234375 -0.703125 C 7.109375 -0.429688 6.929688 -0.226562 6.703125 -0.09375 C 6.484375 0.03125 6.226562 0.09375 5.9375 0.09375 Z M 5.9375 -0.46875 C 6.21875 -0.46875 6.425781 -0.5625 6.5625 -0.75 C 6.695312 -0.945312 6.765625 -1.28125 6.765625 -1.75 C 6.765625 -2.207031 6.695312 -2.53125 6.5625 -2.71875 C 6.425781 -2.914062 6.21875 -3.015625 5.9375 -3.015625 C 5.644531 -3.015625 5.429688 -2.914062 5.296875 -2.71875 C 5.160156 -2.53125 5.09375 -2.207031 5.09375 -1.75 C 5.09375 -1.28125 5.160156 -0.945312 5.296875 -0.75 C 5.429688 -0.5625 5.644531 -0.46875 5.9375 -0.46875 Z M 5.9375 -0.46875 "/></g></g></g><g clip-path="url(#bdeef1e5a5)"><g fill="#ffffff" fill-opacity="1"><g transform="translate(183.156681, 312.068737)"><g><path d="M 0.46875 0 L 0.46875 -0.640625 L 2.265625 -0.640625 L 2.265625 -5.6875 L 2.171875 -5.71875 C 1.878906 -5.570312 1.625 -5.457031 1.40625 -5.375 C 1.1875 -5.300781 0.90625 -5.226562 0.5625 -5.15625 L 0.5625 -5.875 C 0.894531 -5.945312 1.226562 -6.046875 1.5625 -6.171875 C 1.894531 -6.296875 2.195312 -6.441406 2.46875 -6.609375 L 3.03125 -6.609375 L 3.03125 -0.640625 L 4.640625 -0.640625 L 4.640625 0 Z M 0.46875 0 "/></g></g></g></g><g clip-path="url(#50dbc65213)"><g fill="#ffffff" fill-opacity="1"><g transform="translate(187.910228, 312.068737)"><g><path d="M 3.25 0.09375 C 2.757812 0.09375 2.320312 -0.0195312 1.9375 -0.25 C 1.550781 -0.488281 1.242188 -0.859375 1.015625 -1.359375 C 0.785156 -1.867188 0.671875 -2.515625 0.671875 -3.296875 C 0.671875 -4.078125 0.785156 -4.722656 1.015625 -5.234375 C 1.242188 -5.742188 1.550781 -6.113281 1.9375 -6.34375 C 2.320312 -6.582031 2.757812 -6.703125 3.25 -6.703125 C 3.726562 -6.703125 4.160156 -6.582031 4.546875 -6.34375 C 4.929688 -6.113281 5.238281 -5.742188 5.46875 -5.234375 C 5.695312 -4.722656 5.8125 -4.078125 5.8125 -3.296875 C 5.8125 -2.515625 5.695312 -1.867188 5.46875 -1.359375 C 5.238281 -0.859375 4.929688 -0.488281 4.546875 -0.25 C 4.160156 -0.0195312 3.726562 0.09375 3.25 0.09375 Z M 3.25 -0.625 C 3.820312 -0.625 4.253906 -0.828125 4.546875 -1.234375 C 4.847656 -1.648438 5 -2.335938 5 -3.296875 C 5 -4.253906 4.847656 -4.941406 4.546875 -5.359375 C 4.253906 -5.773438 3.820312 -5.984375 3.25 -5.984375 C 2.863281 -5.984375 2.539062 -5.894531 2.28125 -5.71875 C 2.03125 -5.539062 1.832031 -5.253906 1.6875 -4.859375 C 1.550781 -4.460938 1.484375 -3.941406 1.484375 -3.296875 C 1.484375 -2.648438 1.550781 -2.128906 1.6875 -1.734375 C 1.832031 -1.335938 2.03125 -1.050781 2.28125 -0.875 C 2.539062 -0.707031 2.863281 -0.625 3.25 -0.625 Z M 3.25 -0.625 "/></g></g></g></g><g clip-path="url(#50a16cea43)"><g fill="#ffffff" fill-opacity="1"><g transform="translate(194.408, 312.068737)"><g><path d="M 1.875 -3.015625 C 1.582031 -3.015625 1.320312 -3.082031 1.09375 -3.21875 C 0.875 -3.351562 0.695312 -3.554688 0.5625 -3.828125 C 0.4375 -4.097656 0.375 -4.441406 0.375 -4.859375 C 0.375 -5.472656 0.507812 -5.929688 0.78125 -6.234375 C 1.050781 -6.546875 1.414062 -6.703125 1.875 -6.703125 C 2.175781 -6.703125 2.4375 -6.632812 2.65625 -6.5 C 2.875 -6.375 3.046875 -6.171875 3.171875 -5.890625 C 3.304688 -5.617188 3.375 -5.273438 3.375 -4.859375 C 3.375 -4.441406 3.304688 -4.097656 3.171875 -3.828125 C 3.046875 -3.554688 2.875 -3.351562 2.65625 -3.21875 C 2.4375 -3.082031 2.175781 -3.015625 1.875 -3.015625 Z M 2.03125 0 L 1.375 0 L 1.34375 -0.09375 L 5.765625 -6.609375 L 6.421875 -6.609375 L 6.4375 -6.515625 Z M 1.875 -3.59375 C 2.15625 -3.59375 2.363281 -3.6875 2.5 -3.875 C 2.632812 -4.070312 2.703125 -4.398438 2.703125 -4.859375 C 2.703125 -5.316406 2.632812 -5.644531 2.5 -5.84375 C 2.363281 -6.039062 2.15625 -6.140625 1.875 -6.140625 C 1.6875 -6.140625 1.53125 -6.097656 1.40625 -6.015625 C 1.28125 -5.929688 1.1875 -5.796875 1.125 -5.609375 C 1.0625 -5.421875 1.03125 -5.171875 1.03125 -4.859375 C 1.03125 -4.546875 1.0625 -4.296875 1.125 -4.109375 C 1.1875 -3.921875 1.28125 -3.785156 1.40625 -3.703125 C 1.53125 -3.628906 1.6875 -3.59375 1.875 -3.59375 Z M 5.9375 0.09375 C 5.476562 0.09375 5.113281 -0.0546875 4.84375 -0.359375 C 4.570312 -0.671875 4.4375 -1.132812 4.4375 -1.75 C 4.4375 -2.363281 4.570312 -2.820312 4.84375 -3.125 C 5.113281 -3.4375 5.476562 -3.59375 5.9375 -3.59375 C 6.226562 -3.59375 6.484375 -3.523438 6.703125 -3.390625 C 6.929688 -3.253906 7.109375 -3.046875 7.234375 -2.765625 C 7.359375 -2.492188 7.421875 -2.15625 7.421875 -1.75 C 7.421875 -1.332031 7.359375 -0.984375 7.234375 -0.703125 C 7.109375 -0.429688 6.929688 -0.226562 6.703125 -0.09375 C 6.484375 0.03125 6.226562 0.09375 5.9375 0.09375 Z M 5.9375 -0.46875 C 6.21875 -0.46875 6.425781 -0.5625 6.5625 -0.75 C 6.695312 -0.945312 6.765625 -1.28125 6.765625 -1.75 C 6.765625 -2.207031 6.695312 -2.53125 6.5625 -2.71875 C 6.425781 -2.914062 6.21875 -3.015625 5.9375 -3.015625 C 5.644531 -3.015625 5.429688 -2.914062 5.296875 -2.71875 C 5.160156 -2.53125 5.09375 -2.207031 5.09375 -1.75 C 5.09375 -1.28125 5.160156 -0.945312 5.296875 -0.75 C 5.429688 -0.5625 5.644531 -0.46875 5.9375 -0.46875 Z M 5.9375 -0.46875 "/></g></g></g></g><g fill="#ffffff" fill-opacity="1"><g transform="translate(104.286498, 292.749399)"><g><path d="M 0.46875 0 L 0.46875 -0.640625 L 2.265625 -0.640625 L 2.265625 -5.6875 L 2.171875 -5.71875 C 1.878906 -5.570312 1.625 -5.457031 1.40625 -5.375 C 1.1875 -5.300781 0.90625 -5.226562 0.5625 -5.15625 L 0.5625 -5.875 C 0.894531 -5.945312 1.226562 -6.046875 1.5625 -6.171875 C 1.894531 -6.296875 2.195312 -6.441406 2.46875 -6.609375 L 3.03125 -6.609375 L 3.03125 -0.640625 L 4.640625 -0.640625 L 4.640625 0 Z M 0.46875 0 "/></g></g></g><g fill="#ffffff" fill-opacity="1"><g transform="translate(109.040045, 292.749399)"><g><path d="M 3.25 0.09375 C 2.757812 0.09375 2.320312 -0.0195312 1.9375 -0.25 C 1.550781 -0.488281 1.242188 -0.859375 1.015625 -1.359375 C 0.785156 -1.867188 0.671875 -2.515625 0.671875 -3.296875 C 0.671875 -4.078125 0.785156 -4.722656 1.015625 -5.234375 C 1.242188 -5.742188 1.550781 -6.113281 1.9375 -6.34375 C 2.320312 -6.582031 2.757812 -6.703125 3.25 -6.703125 C 3.726562 -6.703125 4.160156 -6.582031 4.546875 -6.34375 C 4.929688 -6.113281 5.238281 -5.742188 5.46875 -5.234375 C 5.695312 -4.722656 5.8125 -4.078125 5.8125 -3.296875 C 5.8125 -2.515625 5.695312 -1.867188 5.46875 -1.359375 C 5.238281 -0.859375 4.929688 -0.488281 4.546875 -0.25 C 4.160156 -0.0195312 3.726562 0.09375 3.25 0.09375 Z M 3.25 -0.625 C 3.820312 -0.625 4.253906 -0.828125 4.546875 -1.234375 C 4.847656 -1.648438 5 -2.335938 5 -3.296875 C 5 -4.253906 4.847656 -4.941406 4.546875 -5.359375 C 4.253906 -5.773438 3.820312 -5.984375 3.25 -5.984375 C 2.863281 -5.984375 2.539062 -5.894531 2.28125 -5.71875 C 2.03125 -5.539062 1.832031 -5.253906 1.6875 -4.859375 C 1.550781 -4.460938 1.484375 -3.941406 1.484375 -3.296875 C 1.484375 -2.648438 1.550781 -2.128906 1.6875 -1.734375 C 1.832031 -1.335938 2.03125 -1.050781 2.28125 -0.875 C 2.539062 -0.707031 2.863281 -0.625 3.25 -0.625 Z M 3.25 -0.625 "/></g></g></g><g fill="#ffffff" fill-opacity="1"><g transform="translate(115.537816, 292.749399)"><g><path d="M 1.875 -3.015625 C 1.582031 -3.015625 1.320312 -3.082031 1.09375 -3.21875 C 0.875 -3.351562 0.695312 -3.554688 0.5625 -3.828125 C 0.4375 -4.097656 0.375 -4.441406 0.375 -4.859375 C 0.375 -5.472656 0.507812 -5.929688 0.78125 -6.234375 C 1.050781 -6.546875 1.414062 -6.703125 1.875 -6.703125 C 2.175781 -6.703125 2.4375 -6.632812 2.65625 -6.5 C 2.875 -6.375 3.046875 -6.171875 3.171875 -5.890625 C 3.304688 -5.617188 3.375 -5.273438 3.375 -4.859375 C 3.375 -4.441406 3.304688 -4.097656 3.171875 -3.828125 C 3.046875 -3.554688 2.875 -3.351562 2.65625 -3.21875 C 2.4375 -3.082031 2.175781 -3.015625 1.875 -3.015625 Z M 2.03125 0 L 1.375 0 L 1.34375 -0.09375 L 5.765625 -6.609375 L 6.421875 -6.609375 L 6.4375 -6.515625 Z M 1.875 -3.59375 C 2.15625 -3.59375 2.363281 -3.6875 2.5 -3.875 C 2.632812 -4.070312 2.703125 -4.398438 2.703125 -4.859375 C 2.703125 -5.316406 2.632812 -5.644531 2.5 -5.84375 C 2.363281 -6.039062 2.15625 -6.140625 1.875 -6.140625 C 1.6875 -6.140625 1.53125 -6.097656 1.40625 -6.015625 C 1.28125 -5.929688 1.1875 -5.796875 1.125 -5.609375 C 1.0625 -5.421875 1.03125 -5.171875 1.03125 -4.859375 C 1.03125 -4.546875 1.0625 -4.296875 1.125 -4.109375 C 1.1875 -3.921875 1.28125 -3.785156 1.40625 -3.703125 C 1.53125 -3.628906 1.6875 -3.59375 1.875 -3.59375 Z M 5.9375 0.09375 C 5.476562 0.09375 5.113281 -0.0546875 4.84375 -0.359375 C 4.570312 -0.671875 4.4375 -1.132812 4.4375 -1.75 C 4.4375 -2.363281 4.570312 -2.820312 4.84375 -3.125 C 5.113281 -3.4375 5.476562 -3.59375 5.9375 -3.59375 C 6.226562 -3.59375 6.484375 -3.523438 6.703125 -3.390625 C 6.929688 -3.253906 7.109375 -3.046875 7.234375 -2.765625 C 7.359375 -2.492188 7.421875 -2.15625 7.421875 -1.75 C 7.421875 -1.332031 7.359375 -0.984375 7.234375 -0.703125 C 7.109375 -0.429688 6.929688 -0.226562 6.703125 -0.09375 C 6.484375 0.03125 6.226562 0.09375 5.9375 0.09375 Z M 5.9375 -0.46875 C 6.21875 -0.46875 6.425781 -0.5625 6.5625 -0.75 C 6.695312 -0.945312 6.765625 -1.28125 6.765625 -1.75 C 6.765625 -2.207031 6.695312 -2.53125 6.5625 -2.71875 C 6.425781 -2.914062 6.21875 -3.015625 5.9375 -3.015625 C 5.644531 -3.015625 5.429688 -2.914062 5.296875 -2.71875 C 5.160156 -2.53125 5.09375 -2.207031 5.09375 -1.75 C 5.09375 -1.28125 5.160156 -0.945312 5.296875 -0.75 C 5.429688 -0.5625 5.644531 -0.46875 5.9375 -0.46875 Z M 5.9375 -0.46875 "/></g></g></g><g fill="#ffffff" fill-opacity="1"><g transform="translate(165.928564, 56.666537)"><g><path d="M 2.71875 0.09375 C 2.101562 0.09375 1.609375 -0.0390625 1.234375 -0.3125 C 0.867188 -0.59375 0.628906 -0.984375 0.515625 -1.484375 L 1.09375 -1.75 L 1.203125 -1.71875 C 1.273438 -1.46875 1.367188 -1.257812 1.484375 -1.09375 C 1.609375 -0.9375 1.769531 -0.816406 1.96875 -0.734375 C 2.164062 -0.648438 2.414062 -0.609375 2.71875 -0.609375 C 3.164062 -0.609375 3.507812 -0.738281 3.75 -1 C 4 -1.269531 4.125 -1.660156 4.125 -2.171875 C 4.125 -2.679688 4.003906 -3.070312 3.765625 -3.34375 C 3.523438 -3.613281 3.1875 -3.75 2.75 -3.75 C 2.425781 -3.75 2.160156 -3.679688 1.953125 -3.546875 C 1.753906 -3.421875 1.570312 -3.21875 1.40625 -2.9375 L 0.796875 -3 L 0.921875 -6.609375 L 4.609375 -6.609375 L 4.609375 -5.9375 L 1.59375 -5.9375 L 1.515625 -3.75 L 1.609375 -3.734375 C 1.765625 -3.960938 1.953125 -4.132812 2.171875 -4.25 C 2.398438 -4.363281 2.671875 -4.421875 2.984375 -4.421875 C 3.378906 -4.421875 3.722656 -4.332031 4.015625 -4.15625 C 4.316406 -3.976562 4.546875 -3.71875 4.703125 -3.375 C 4.867188 -3.039062 4.953125 -2.640625 4.953125 -2.171875 C 4.953125 -1.703125 4.859375 -1.296875 4.671875 -0.953125 C 4.484375 -0.609375 4.222656 -0.347656 3.890625 -0.171875 C 3.554688 0.00390625 3.164062 0.09375 2.71875 0.09375 Z M 2.71875 0.09375 "/></g></g></g><g fill="#ffffff" fill-opacity="1"><g transform="translate(171.224345, 56.666537)"><g><path d="M 1.875 -3.015625 C 1.582031 -3.015625 1.320312 -3.082031 1.09375 -3.21875 C 0.875 -3.351562 0.695312 -3.554688 0.5625 -3.828125 C 0.4375 -4.097656 0.375 -4.441406 0.375 -4.859375 C 0.375 -5.472656 0.507812 -5.929688 0.78125 -6.234375 C 1.050781 -6.546875 1.414062 -6.703125 1.875 -6.703125 C 2.175781 -6.703125 2.4375 -6.632812 2.65625 -6.5 C 2.875 -6.375 3.046875 -6.171875 3.171875 -5.890625 C 3.304688 -5.617188 3.375 -5.273438 3.375 -4.859375 C 3.375 -4.441406 3.304688 -4.097656 3.171875 -3.828125 C 3.046875 -3.554688 2.875 -3.351562 2.65625 -3.21875 C 2.4375 -3.082031 2.175781 -3.015625 1.875 -3.015625 Z M 2.03125 0 L 1.375 0 L 1.34375 -0.09375 L 5.765625 -6.609375 L 6.421875 -6.609375 L 6.4375 -6.515625 Z M 1.875 -3.59375 C 2.15625 -3.59375 2.363281 -3.6875 2.5 -3.875 C 2.632812 -4.070312 2.703125 -4.398438 2.703125 -4.859375 C 2.703125 -5.316406 2.632812 -5.644531 2.5 -5.84375 C 2.363281 -6.039062 2.15625 -6.140625 1.875 -6.140625 C 1.6875 -6.140625 1.53125 -6.097656 1.40625 -6.015625 C 1.28125 -5.929688 1.1875 -5.796875 1.125 -5.609375 C 1.0625 -5.421875 1.03125 -5.171875 1.03125 -4.859375 C 1.03125 -4.546875 1.0625 -4.296875 1.125 -4.109375 C 1.1875 -3.921875 1.28125 -3.785156 1.40625 -3.703125 C 1.53125 -3.628906 1.6875 -3.59375 1.875 -3.59375 Z M 5.9375 0.09375 C 5.476562 0.09375 5.113281 -0.0546875 4.84375 -0.359375 C 4.570312 -0.671875 4.4375 -1.132812 4.4375 -1.75 C 4.4375 -2.363281 4.570312 -2.820312 4.84375 -3.125 C 5.113281 -3.4375 5.476562 -3.59375 5.9375 -3.59375 C 6.226562 -3.59375 6.484375 -3.523438 6.703125 -3.390625 C 6.929688 -3.253906 7.109375 -3.046875 7.234375 -2.765625 C 7.359375 -2.492188 7.421875 -2.15625 7.421875 -1.75 C 7.421875 -1.332031 7.359375 -0.984375 7.234375 -0.703125 C 7.109375 -0.429688 6.929688 -0.226562 6.703125 -0.09375 C 6.484375 0.03125 6.226562 0.09375 5.9375 0.09375 Z M 5.9375 -0.46875 C 6.21875 -0.46875 6.425781 -0.5625 6.5625 -0.75 C 6.695312 -0.945312 6.765625 -1.28125 6.765625 -1.75 C 6.765625 -2.207031 6.695312 -2.53125 6.5625 -2.71875 C 6.425781 -2.914062 6.21875 -3.015625 5.9375 -3.015625 C 5.644531 -3.015625 5.429688 -2.914062 5.296875 -2.71875 C 5.160156 -2.53125 5.09375 -2.207031 5.09375 -1.75 C 5.09375 -1.28125 5.160156 -0.945312 5.296875 -0.75 C 5.429688 -0.5625 5.644531 -0.46875 5.9375 -0.46875 Z M 5.9375 -0.46875 "/></g></g></g></svg>