<svg width="38" height="21" viewBox="0 0 38 21" fill="none" xmlns="http://www.w3.org/2000/svg">
<g clip-path="url(#clip0_270_4024)">
<path fill-rule="evenodd" clip-rule="evenodd" d="M19.3381 6.8085V12.7176H20.7927H22.2472V10.4449C22.2472 8.94487 22.2472 8.12669 22.2472 8.03578C22.2927 7.80851 22.3381 7.58123 22.4745 7.39941C22.6563 7.08123 22.9745 6.94487 23.3381 6.99032C23.8381 7.03578 24.1563 7.30851 24.2472 7.89941C24.2472 7.99032 24.2472 8.89941 24.2472 10.354V12.6721H25.7018H27.1563V9.94487C27.1563 7.62669 27.1563 7.17214 27.1108 6.94487C27.0199 6.12669 26.7472 5.49032 26.2472 5.03578C25.8381 4.62669 25.3381 4.39941 24.7472 4.3085C24.5199 4.26305 23.8836 4.3085 23.7017 4.35396C23.1563 4.49032 22.7472 4.67214 22.3836 5.08123L22.1563 5.26305V3.08123V0.899414H20.7018H19.2472V6.8085H19.3381ZM50.2472 0.990323C50.1563 1.17214 47.2017 8.3085 47.2017 8.3085C47.2017 8.3085 47.9745 8.3085 48.929 8.3085H50.6563L52.2018 4.62669C53.0654 2.58123 53.7472 0.899414 53.7472 0.899414C53.7472 0.899414 52.9745 0.899414 52.0199 0.899414H50.2927L50.2472 0.990323ZM12.9745 4.35396C12.3381 4.44487 11.8381 4.62669 11.3381 4.94487C10.3381 5.58123 9.70175 6.67214 9.51993 7.94487C9.42902 8.53578 9.47448 9.26305 9.61084 9.8085C9.97448 11.2176 10.929 12.3085 12.1563 12.7176C12.6108 12.854 12.7927 12.8994 13.3381 12.8994C13.7472 12.8994 13.8836 12.8994 14.0199 12.854C14.6108 12.7176 15.0199 12.4903 15.3836 12.1267L15.5654 11.9449V12.3085V12.6721H16.9745H18.3836V8.58123V4.49032H16.9745H15.5654V4.85396V5.2176L15.429 5.08123C15.1108 4.7176 14.6563 4.49032 14.0654 4.35396C13.8836 4.3085 13.7927 4.3085 13.429 4.3085C13.2017 4.35396 13.0199 4.35396 12.9745 4.35396ZM31.5199 4.35396C30.7472 4.44487 29.929 4.8085 29.3381 5.26305C28.2018 6.2176 27.6108 7.7176 27.8381 9.26305C28.0654 10.9903 29.2927 12.3085 31.0199 12.763C31.3836 12.854 31.7472 12.8994 32.2017 12.8994C33.0199 12.8994 33.6108 12.7631 34.2472 12.4449C35.5199 11.8085 36.3381 10.6721 36.5199 9.26305C36.5654 8.89941 36.5654 8.3085 36.5199 7.99032C36.429 7.3085 36.1563 6.62669 35.7472 6.08123C35.5654 5.85396 35.2017 5.44487 34.9745 5.26305C34.3381 4.76305 33.6108 4.44487 32.7927 4.35396C32.4745 4.3085 31.8381 4.3085 31.5199 4.35396ZM40.7927 4.35396C40.0199 4.44487 39.2472 4.76305 38.6563 5.26305C38.429 5.44487 38.0199 5.85396 37.8836 6.08123C37.4745 6.62669 37.2472 7.3085 37.1108 7.99032C37.0654 8.3085 37.0654 8.94487 37.1108 9.26305C37.3836 11.0812 38.7018 12.4903 40.5199 12.854C40.8836 12.9449 41.0654 12.9449 41.4745 12.9449C42.2472 12.9449 42.929 12.8085 43.5654 12.4449C45.2472 11.5812 46.1563 9.67214 45.7472 7.7176C45.3836 5.89941 43.929 4.58123 42.0654 4.35396C41.7472 4.3085 41.1108 4.3085 40.7927 4.35396ZM0.11084 4.53578C0.11084 4.53578 0.883567 6.39941 1.83811 8.67214C2.79266 10.9449 3.56539 12.8085 3.56539 12.8085C3.56539 12.8085 3.29266 13.4903 2.92902 14.3085C2.56539 15.1267 2.29266 15.7631 2.29266 15.8085C2.29266 15.854 2.97448 15.8085 3.83811 15.8085H5.38357L7.70175 10.2176C8.97448 7.12669 10.0199 4.62669 10.0199 4.58123C10.0199 4.58123 9.70175 4.53578 8.47448 4.58123H6.92902L5.97448 6.94487C5.56539 8.2176 5.15629 9.30851 5.15629 9.30851C5.15629 9.30851 4.7472 8.2176 4.20175 6.94487L3.29266 4.58123H1.70175C0.838113 4.53578 0.11084 4.53578 0.11084 4.53578ZM14.3836 6.99032C14.9745 7.12669 15.429 7.58123 15.6108 8.17214C15.6563 8.39941 15.6563 8.80851 15.6108 9.03578C15.4745 9.62669 15.0199 10.0812 14.429 10.2176C14.2017 10.2631 13.7927 10.2631 13.5654 10.2176C13.0654 10.0812 12.6108 9.7176 12.429 9.26305C12.2017 8.76305 12.2927 8.12669 12.5654 7.67214C12.9745 7.08123 13.6563 6.85396 14.3836 6.99032ZM32.5199 7.03578C33.1563 7.12669 33.6563 7.62669 33.7927 8.26305C33.8381 8.49032 33.8381 8.85396 33.7927 9.08123C33.6563 9.67214 33.2017 10.0812 32.6563 10.263C32.4745 10.3085 31.9745 10.3085 31.7927 10.263C31.3381 10.1267 30.9745 9.80851 30.7472 9.39941C30.6108 9.12669 30.6108 8.99032 30.6108 8.67214C30.6108 8.39941 30.6563 8.26305 30.7472 8.03578C30.8836 7.76305 31.0654 7.49032 31.3381 7.3085C31.6108 7.03578 32.0654 6.94487 32.5199 7.03578ZM41.7472 7.03578C42.2927 7.12669 42.7472 7.49032 42.929 7.99032C43.0199 8.2176 43.0654 8.35396 43.0654 8.62669C43.0654 8.94487 43.0199 9.08123 42.929 9.35396C42.7472 9.76305 42.3381 10.0812 41.8836 10.2176C41.7018 10.2631 41.2018 10.2631 41.0199 10.2176C40.4745 10.0812 40.0199 9.62669 39.8836 9.03578C39.8381 8.80851 39.8381 8.39941 39.8836 8.17214C40.0654 7.44487 40.7018 6.94487 41.429 6.94487C41.5199 6.99032 41.6563 6.99032 41.7472 7.03578ZM47.929 9.03578C47.0654 9.12669 46.429 9.76305 46.2472 10.5812C46.2018 10.8085 46.2018 11.2176 46.2472 11.4449C46.429 12.1721 46.9745 12.6721 47.7017 12.854C47.7927 12.854 47.9745 12.8994 48.1108 12.8994C48.6563 12.8994 49.1108 12.7176 49.4745 12.354C49.8836 11.9449 50.0199 11.5358 50.0199 10.9903C50.0199 10.3085 49.7018 9.7176 49.1563 9.39941C48.7927 9.08123 48.2927 8.99032 47.929 9.03578ZM23.9745 13.4903C23.3836 13.6721 23.1108 14.354 23.429 14.854C23.5199 14.9903 23.7017 15.1721 23.8381 15.2176C23.9745 15.2631 23.9745 15.263 24.2472 15.263C24.4745 15.263 24.5199 15.2631 24.6563 15.2176C24.8381 15.1267 25.0199 14.9449 25.1108 14.7631C25.3381 14.3085 25.1108 13.7631 24.6563 13.5358C24.5199 13.4449 24.4745 13.4449 24.2927 13.4449C24.1108 13.4449 24.0654 13.4449 23.9745 13.4903ZM21.5199 13.5358C20.7472 13.6721 20.2472 14.1721 20.0199 14.9903C19.9745 15.1267 19.9745 15.2631 19.9745 15.4449V15.763H19.6563H19.3381V16.4449V17.1267H19.6563H19.9745V18.7631V20.3994H20.8381H21.7017V18.7631V17.1267H22.2927H22.8836V16.4449V15.763H22.2927H21.7017V15.6267C21.7472 15.3085 21.8836 15.0812 22.1563 15.0358C22.3381 14.9903 22.6108 14.9903 22.7927 15.0812C22.8836 15.1267 22.929 15.1267 22.929 15.1267C22.929 15.1267 22.929 14.8085 22.929 14.3994V13.6721L22.7927 13.6267C22.6108 13.5358 22.3836 13.5358 22.0654 13.5358C21.8381 13.4903 21.6563 13.5358 21.5199 13.5358ZM28.429 15.6721C28.0654 15.7631 27.7927 15.9449 27.6108 16.1721L27.5199 16.3085V16.0358V15.763H26.6563H25.7927V18.0812V20.3994H26.6563H27.5199V19.1267C27.5199 18.3994 27.5199 17.8085 27.5199 17.7176C27.5654 17.5358 27.6563 17.354 27.7472 17.2631C27.9745 17.0812 28.3836 17.1267 28.5654 17.354C28.7017 17.5358 28.7017 17.5358 28.7017 18.9903V20.354H29.5654H30.429V18.8085C30.429 17.1721 30.429 16.9903 30.3381 16.6721C30.2472 16.3994 30.1563 16.1721 29.929 15.9903C29.7472 15.8085 29.5654 15.6721 29.2927 15.6267C29.0654 15.6267 28.6108 15.6267 28.429 15.6721ZM32.7472 15.6267C32.4745 15.6721 32.0654 15.8085 31.8381 15.9903C31.3381 16.354 31.0199 16.8994 30.8836 17.5812C30.8381 17.854 30.8381 18.354 30.8836 18.6267C30.9745 19.0358 31.1108 19.4449 31.3381 19.7176C31.6563 20.1267 32.0654 20.3994 32.5654 20.4903C32.8381 20.5358 33.2927 20.5358 33.5199 20.4449C33.7927 20.354 33.9745 20.263 34.2018 20.0812L34.3836 19.8994V20.1267V20.354H35.2472H36.1108V18.0358V15.7176H35.2472H34.3836V15.9449V16.1721L34.2472 16.1267C34.0199 15.8994 33.7017 15.7176 33.3381 15.6721C33.2017 15.6267 32.8836 15.6267 32.7472 15.6267ZM39.3381 15.6721C39.0199 15.7176 38.7018 15.9449 38.5199 16.1721L38.429 16.2631V15.9903V15.7176H37.5654H36.7018V18.0358V20.354H37.5654H38.429V19.0358C38.429 17.6267 38.429 17.6267 38.5199 17.3994C38.6108 17.2176 38.7927 17.1267 38.9745 17.1267C39.1563 17.1267 39.2472 17.1721 39.3836 17.2631C39.5654 17.4449 39.5654 17.3994 39.5654 18.9449V20.3085H40.429H41.2927V18.6267C41.2927 16.9449 41.2927 16.9449 41.2472 16.7631C41.2018 16.6721 41.1563 16.4903 41.1108 16.354C41.0199 16.1721 40.9745 16.1267 40.8381 15.9903C40.6563 15.8085 40.5199 15.7176 40.3381 15.6267C40.0199 15.6267 39.6563 15.5812 39.3381 15.6721ZM43.8381 15.6721C43.0654 15.8085 42.4745 16.1721 42.1108 16.8085C42.0199 16.9903 41.929 17.2176 41.8381 17.4449C41.7927 17.6721 41.7927 17.7176 41.7927 18.0812C41.7927 18.4903 41.7927 18.6267 41.929 18.9449C42.2018 19.7176 42.8381 20.3085 43.7018 20.4903C43.8381 20.5358 43.9745 20.5358 44.2927 20.5358C44.7472 20.5358 44.929 20.4903 45.2472 20.354L45.429 20.263V19.4903V18.7176L45.2927 18.8085C45.0654 18.9449 44.929 18.9903 44.6563 18.9903C44.3836 18.9903 44.2472 18.9903 44.0654 18.8994C43.8836 18.8085 43.7472 18.6721 43.6563 18.4903C43.6108 18.354 43.6108 18.354 43.6108 18.1267C43.6108 17.9449 43.6108 17.8994 43.6563 17.7631C43.7927 17.3994 44.1108 17.2176 44.5654 17.1721C44.8836 17.1721 45.0199 17.1721 45.4745 17.3994C45.4745 17.3994 45.4745 17.0358 45.4745 16.6267V15.854L45.3381 15.8085C44.8381 15.6267 44.2927 15.5812 43.8381 15.6721ZM47.7472 15.6721C46.429 15.8994 45.6108 17.0358 45.7018 18.354C45.7472 18.8085 45.8836 19.2176 46.1108 19.5358C46.429 20.0358 46.929 20.354 47.5654 20.4903C47.8381 20.5358 48.5654 20.5358 48.8836 20.4903C49.3381 20.3994 49.7472 20.1721 50.0654 19.854C50.2017 19.7176 50.429 19.3994 50.429 19.3994C50.429 19.3994 50.1108 19.263 49.7018 19.1267L48.9745 18.854L48.8836 18.9449C48.7472 19.0812 48.6563 19.1267 48.4745 19.1721C47.9745 19.3085 47.4745 19.0358 47.3836 18.5812V18.4903H48.9745H50.5654V18.0812C50.5654 17.8085 50.5654 17.6267 50.5199 17.5358C50.429 16.9903 50.2018 16.6267 49.8836 16.2631C49.5654 15.9449 49.2018 15.7631 48.7018 15.6721C48.5199 15.6267 47.9745 15.6267 47.7472 15.6721ZM23.3836 18.0812V20.3994H24.2472H25.1108V18.0812V15.763H24.2472H23.3836V18.0812ZM48.429 16.9449C48.5654 16.9903 48.6108 17.0358 48.7472 17.1267C48.8381 17.2176 48.929 17.3085 48.929 17.4449V17.5358H48.1563C47.2927 17.5358 47.3381 17.5358 47.429 17.354C47.5654 17.0358 47.9745 16.854 48.429 16.9449ZM33.7472 17.1721C33.9745 17.2176 34.2472 17.4449 34.3381 17.6721C34.5654 18.1721 34.3381 18.763 33.7927 18.9449C33.6108 18.9903 33.3381 18.9903 33.1563 18.9449C32.8836 18.854 32.6108 18.6267 32.5654 18.354C32.5199 18.2176 32.5199 18.1721 32.5199 18.0358C32.5199 17.854 32.5199 17.8085 32.6108 17.6721C32.7927 17.2631 33.2472 17.0812 33.7472 17.1721Z" fill="white" fill-opacity="0.6"/>
</g>
<defs>
<clipPath id="clip0_270_4024">
<rect width="53.6364" height="20" fill="white" transform="translate(0.11084 0.672119)"/>
</clipPath>
</defs>
</svg>
